<svg viewBox="0 0 530 436" fill="none" xmlns="http://www.w3.org/2000/svg">
	<svg x="0" y="0" fill="var(--vscode-editor-background, #000)" xmlns="http://www.w3.org/2000/svg">
		<text x="50%" y="20" text-anchor="middle" font-family="var(--vscode-font-family)" font-size="14" font-weight="600" fill="var(--vscode-editor-foreground, #fff)">Commit Graph</text>
	</svg>
	<svg x="0" y="40" height="290" fill="var(--vscode-editor-background, #000)" xmlns="http://www.w3.org/2000/svg">
		<rect x="0" y="0" width="100%" height="290" stroke-width="1" stroke="var(--vscode-editorWidget-border)" fill="var(--vscode-sideBarSectionHeader-background)" />
		<rect fill="var(--vscode-gitlens-graphLane2Color, #0669f7)" x="70" y="46" width="140" height="19" rx="4"/>
		<text fill="white" font-weigh="700" x="110" y="59"><tspan>main</tspan></text>
		<svg x="74" y="51" width="10" height="8" viewBox="0 0 10 8" fill="white" xmlns="http://www.w3.org/2000/svg"><path d="M9.84 0.48L3.48 8L2.88 7.96L0.36 4.4L0.96 3.96L3.2 7.12L9.24 -4.76837e-07L9.84 0.48Z"/></svg>
		<svg x="90" y="49" width="12" height="11" viewBox="0 0 12 11" fill="white" xmlns="http://www.w3.org/2000/svg"><path d="M10.88 0.48L11.24 0.88V8.36L10.88 8.76H6.76V9.48H9V10.24H3V9.48H5.24V8.76H1.12L0.76 8.36V0.88L1.12 0.48H10.88ZM10.52 8V1.24H1.52V8H10.52Z"/></svg>


		<rect fill="var(--vscode-gitlens-graphLane3Color, #8e00c2)" opacity="0.5" x="70" y="73" width="140" height="19" rx="4"/>
		<text fill="white" x="110" y="87"><tspan>feature/onboard</tspan></text>
		<svg x="74" y="78" width="12" height="7" viewBox="0 0 12 7" fill="white" xmlns="http://www.w3.org/2000/svg"><path d="M8.96 2.48H9C9.61333 2.50667 10.1333 2.73333 10.56 3.16C11.0133 3.58667 11.24 4.12 11.24 4.76C11.24 5.37333 11.0133 5.90667 10.56 6.36C10.1333 6.78667 9.61333 7 9 7H3.4C3.02667 7 2.66667 6.93333 2.32 6.8C1.97333 6.64 1.68 6.41333 1.44 6.12C1.12 5.77333 0.906667 5.37333 0.8 4.92C0.72 4.44 0.746667 3.97333 0.88 3.52C1.04 3.06667 1.29333 2.69333 1.64 2.4C2.01333 2.08 2.42667 1.88 2.88 1.8C3.25333 1.72 3.62667 1.73333 4 1.84C4.24 1.30667 4.61333 0.893333 5.12 0.6C5.62667 0.306667 6.16 0.2 6.72 0.28C7.30667 0.36 7.8 0.613333 8.2 1.04C8.62667 1.44 8.88 1.92 8.96 2.48ZM3.76 6.24H9C9.42667 6.24 9.78667 6.09333 10.08 5.8C10.3733 5.50667 10.52 5.16 10.52 4.76C10.52 4.33333 10.3733 3.97333 10.08 3.68C9.78667 3.38667 9.42667 3.24 9 3.24H8.32L8.24 2.6C8.18667 2.2 8 1.85333 7.68 1.56C7.38667 1.26667 7.02667 1.09333 6.6 1.04C6.2 0.96 5.81333 1.02667 5.44 1.24C5.09333 1.45333 4.84 1.74667 4.68 2.12L4.44 2.68L3.8 2.56C3.66667 2.53333 3.53333 2.50667 3.4 2.48C2.86667 2.48 2.42667 2.66667 2.08 3.04C1.81333 3.30667 1.64 3.62667 1.56 4C1.48 4.37333 1.50667 4.73333 1.64 5.08C1.8 5.42667 2.04 5.70667 2.36 5.92C2.68 6.13333 3.02667 6.24 3.4 6.24H3.76Z"/></svg>
		<svg x="90" y="77" width="12" height="13" viewBox="0 0 12 13" fill="white" xmlns="http://www.w3.org/2000/svg"><path d="M4.2 3.68C3.98667 4 3.70667 4.24 3.36 4.4L3.04 4.48V8.24C3.54667 8.34667 3.93333 8.61333 4.2 9.04C4.41333 9.36 4.52 9.70667 4.52 10.08C4.52 10.3467 4.48 10.6 4.4 10.84C4.24 11.1867 4 11.4667 3.68 11.68C3.36 11.8933 3 12 2.6 12C2.22667 12 1.88 11.8933 1.56 11.68C1.26667 11.4667 1.04 11.1867 0.88 10.84C0.746667 10.4933 0.706667 10.1333 0.76 9.76C0.84 9.38667 1.01333 9.06667 1.28 8.8C1.54667 8.53333 1.86667 8.36 2.24 8.28V4.48C1.86667 4.4 1.54667 4.22667 1.28 3.96C1.01333 3.69333 0.84 3.37333 0.76 3C0.706667 2.62667 0.746667 2.26667 0.88 1.92C1.04 1.57333 1.26667 1.29333 1.56 1.08C1.88 0.866667 2.24 0.76 2.64 0.76C3.14667 0.733333 3.58667 0.906667 3.96 1.28C4.36 1.65333 4.54667 2.10667 4.52 2.64C4.52 3.04 4.41333 3.38667 4.2 3.68ZM3.64 9.6C3.53333 9.41333 3.38667 9.26667 3.2 9.16C3.04 9.05333 2.85333 9 2.64 9C2.29333 9 2 9.14667 1.76 9.44C1.54667 9.70667 1.48 10.0133 1.56 10.36C1.58667 10.5733 1.68 10.76 1.84 10.92C2.02667 11.08 2.22667 11.1867 2.44 11.24C2.65333 11.2667 2.86667 11.24 3.08 11.16C3.29333 11.08 3.45333 10.9467 3.56 10.76C3.69333 10.5733 3.76 10.3867 3.76 10.2C3.78667 9.98667 3.74667 9.78667 3.64 9.6ZM2.04 3.56C2.22667 3.69333 2.42667 3.76 2.64 3.76C2.85333 3.76 3.04 3.70667 3.2 3.6C3.38667 3.49333 3.53333 3.34667 3.64 3.16C3.74667 2.97333 3.78667 2.77333 3.76 2.56C3.76 2.34667 3.69333 2.16 3.56 2C3.45333 1.81333 3.29333 1.68 3.08 1.6C2.86667 1.49333 2.64 1.46667 2.4 1.52C2.18667 1.57333 2 1.68 1.84 1.84C1.68 2 1.57333 2.18667 1.52 2.4C1.49333 2.61333 1.52 2.82667 1.6 3.04C1.70667 3.25333 1.85333 3.42667 2.04 3.56ZM9.76 8.28C10.1333 8.36 10.4533 8.53333 10.72 8.8C11.0933 9.17333 11.28 9.61333 11.28 10.12C11.28 10.4933 11.1733 10.84 10.96 11.16C10.7467 11.48 10.4667 11.72 10.12 11.88C9.77333 12.0133 9.41333 12.04 9.04 11.96C8.66667 11.88 8.34667 11.7067 8.08 11.44C7.81333 11.1733 7.64 10.8533 7.56 10.48C7.48 10.1067 7.50667 9.74667 7.64 9.4C7.8 9.05333 8.04 8.77333 8.36 8.56C8.57333 8.42667 8.8 8.33333 9.04 8.28V4.12C9.04 3.8 8.92 3.53333 8.68 3.32C8.46667 3.10667 8.21333 3 7.92 3H6.52L7.48 3.96L6.92 4.48L5.32 2.88V2.36L6.92 0.76L7.48 1.28L6.52 2.24H7.92C8.29333 2.24 8.64 2.34667 8.96 2.56C9.28 2.77333 9.50667 3.05333 9.64 3.4C9.74667 3.64 9.78667 3.88 9.76 4.12V8.28ZM10.2 10.92C10.3867 10.7333 10.4933 10.5067 10.52 10.24C10.5467 9.97333 10.4933 9.73333 10.36 9.52C10.2267 9.30667 10.0533 9.16 9.84 9.08C9.62667 9 9.4 8.98667 9.16 9.04C8.94667 9.06667 8.76 9.16 8.6 9.32C8.44 9.48 8.33333 9.68 8.28 9.92C8.25333 10.1333 8.28 10.3333 8.36 10.52C8.44 10.7067 8.54667 10.8667 8.68 11C8.84 11.1067 9 11.1867 9.16 11.24C9.34667 11.2667 9.53333 11.2533 9.72 11.2C9.90667 11.1467 10.0667 11.0533 10.2 10.92Z"/></svg>

		<rect fill="var(--vscode-gitlens-graphLane4Color, #c517b6)" opacity="0.5" x="70" y="99" width="140" height="19" rx="4"/>
		<text fill="white" x="110" y="113"><tspan>feature/graph</tspan></text>
		<svg x="74" y="103" width="12" height="11" viewBox="0 0 12 11" fill="white" xmlns="http://www.w3.org/2000/svg"><path d="M10.88 0.48L11.24 0.88V8.36L10.88 8.76H6.76V9.48H9V10.24H3V9.48H5.24V8.76H1.12L0.76 8.36V0.88L1.12 0.48H10.88ZM10.52 8V1.24H1.52V8H10.52Z"/></svg>
		<svg x="91" y="103" width="12" height="13" viewBox="0 0 12 13" fill="white" xmlns="http://www.w3.org/2000/svg"><path d="M4.2 3.68C3.98667 4 3.70667 4.24 3.36 4.4L3.04 4.48V8.24C3.54667 8.34667 3.93333 8.61333 4.2 9.04C4.41333 9.36 4.52 9.70667 4.52 10.08C4.52 10.3467 4.48 10.6 4.4 10.84C4.24 11.1867 4 11.4667 3.68 11.68C3.36 11.8933 3 12 2.6 12C2.22667 12 1.88 11.8933 1.56 11.68C1.26667 11.4667 1.04 11.1867 0.88 10.84C0.746667 10.4933 0.706667 10.1333 0.76 9.76C0.84 9.38667 1.01333 9.06667 1.28 8.8C1.54667 8.53333 1.86667 8.36 2.24 8.28V4.48C1.86667 4.4 1.54667 4.22667 1.28 3.96C1.01333 3.69333 0.84 3.37333 0.76 3C0.706667 2.62667 0.746667 2.26667 0.88 1.92C1.04 1.57333 1.26667 1.29333 1.56 1.08C1.88 0.866667 2.24 0.76 2.64 0.76C3.14667 0.733333 3.58667 0.906667 3.96 1.28C4.36 1.65333 4.54667 2.10667 4.52 2.64C4.52 3.04 4.41333 3.38667 4.2 3.68ZM3.64 9.6C3.53333 9.41333 3.38667 9.26667 3.2 9.16C3.04 9.05333 2.85333 9 2.64 9C2.29333 9 2 9.14667 1.76 9.44C1.54667 9.70667 1.48 10.0133 1.56 10.36C1.58667 10.5733 1.68 10.76 1.84 10.92C2.02667 11.08 2.22667 11.1867 2.44 11.24C2.65333 11.2667 2.86667 11.24 3.08 11.16C3.29333 11.08 3.45333 10.9467 3.56 10.76C3.69333 10.5733 3.76 10.3867 3.76 10.2C3.78667 9.98667 3.74667 9.78667 3.64 9.6ZM2.04 3.56C2.22667 3.69333 2.42667 3.76 2.64 3.76C2.85333 3.76 3.04 3.70667 3.2 3.6C3.38667 3.49333 3.53333 3.34667 3.64 3.16C3.74667 2.97333 3.78667 2.77333 3.76 2.56C3.76 2.34667 3.69333 2.16 3.56 2C3.45333 1.81333 3.29333 1.68 3.08 1.6C2.86667 1.49333 2.64 1.46667 2.4 1.52C2.18667 1.57333 2 1.68 1.84 1.84C1.68 2 1.57333 2.18667 1.52 2.4C1.49333 2.61333 1.52 2.82667 1.6 3.04C1.70667 3.25333 1.85333 3.42667 2.04 3.56ZM9.76 8.28C10.1333 8.36 10.4533 8.53333 10.72 8.8C11.0933 9.17333 11.28 9.61333 11.28 10.12C11.28 10.4933 11.1733 10.84 10.96 11.16C10.7467 11.48 10.4667 11.72 10.12 11.88C9.77333 12.0133 9.41333 12.04 9.04 11.96C8.66667 11.88 8.34667 11.7067 8.08 11.44C7.81333 11.1733 7.64 10.8533 7.56 10.48C7.48 10.1067 7.50667 9.74667 7.64 9.4C7.8 9.05333 8.04 8.77333 8.36 8.56C8.57333 8.42667 8.8 8.33333 9.04 8.28V4.12C9.04 3.8 8.92 3.53333 8.68 3.32C8.46667 3.10667 8.21333 3 7.92 3H6.52L7.48 3.96L6.92 4.48L5.32 2.88V2.36L6.92 0.76L7.48 1.28L6.52 2.24H7.92C8.29333 2.24 8.64 2.34667 8.96 2.56C9.28 2.77333 9.50667 3.05333 9.64 3.4C9.74667 3.64 9.78667 3.88 9.76 4.12V8.28ZM10.2 10.92C10.3867 10.7333 10.4933 10.5067 10.52 10.24C10.5467 9.97333 10.4933 9.73333 10.36 9.52C10.2267 9.30667 10.0533 9.16 9.84 9.08C9.62667 9 9.4 8.98667 9.16 9.04C8.94667 9.06667 8.76 9.16 8.6 9.32C8.44 9.48 8.33333 9.68 8.28 9.92C8.25333 10.1333 8.28 10.3333 8.36 10.52C8.44 10.7067 8.54667 10.8667 8.68 11C8.84 11.1067 9 11.1867 9.16 11.24C9.34667 11.2667 9.53333 11.2533 9.72 11.2C9.90667 11.1467 10.0667 11.0533 10.2 10.92Z"/></svg>

		<rect fill="var(--vscode-gitlens-graphLane5Color, #d90171)" opacity="0.5" x="70" y="237" width="140" height="19" rx="4"/>
		<text fill="white" x="93" y="251"><tspan>bug/crash</tspan></text>
		<svg x="74" y="241" width="12" height="11" viewBox="0 0 12 11" fill="white" xmlns="http://www.w3.org/2000/svg"><path d="M10.88 0.48L11.24 0.88V8.36L10.88 8.76H6.76V9.48H9V10.24H3V9.48H5.24V8.76H1.12L0.76 8.36V0.88L1.12 0.48H10.88ZM10.52 8V1.24H1.52V8H10.52Z"/></svg>

		<rect fill="var(--vscode-gitlens-graphLane1Color, #15a0bf)" opacity="0.2" x="216" y="20" width="128" height="18"/>
		<rect fill="var(--vscode-gitlens-graphLane1Color, #15a0bf)" x="342" y="20" width="2" height="18"/>

		<line stroke="var(--vscode-gitlens-graphLane2Color, #0669f7)" opacity="0.4" x1="211" y1="56" x2="230" y2="56" stroke-width="2"/>
		<rect fill="var(--vscode-gitlens-graphLane2Color, #0669f7)" opacity="0.2" x="238" y="47" width="106" height="18"/>
		<rect fill="var(--vscode-gitlens-graphLane2Color, #0669f7)" x="342" y="47" width="2" height="18"/>

		<rect fill="var(--vscode-gitlens-graphLane2Color, #0669f7)" opacity="0.2" x="238" y="128" width="106" height="18" />
		<rect fill="var(--vscode-gitlens-graphLane2Color, #0669f7)" x="342" y="128" width="2" height="18"/>

		<rect fill="var(--vscode-gitlens-graphLane2Color, #0669f7)" opacity="0.2" x="238" y="263" width="106" height="18"/>
		<rect fill="var(--vscode-gitlens-graphLane2Color, #0669f7)" x="342" y="263" width="2" height="18"/>

		<line stroke="var(--vscode-gitlens-graphLane3Color, #8e00c2)" opacity="0.4" x1="211" y1="83" x2="253" y2="83" stroke-width="2"/>
		<rect fill="var(--vscode-gitlens-graphLane3Color, #8e00c2)" opacity="0.2" x="260" y="74" width="84" height="18"/>
		<rect fill="var(--vscode-gitlens-graphLane3Color, #8e00c2)" x="342" y="74" width="2" height="18"/>

		<rect fill="var(--vscode-gitlens-graphLane3Color, #8e00c2)" opacity="0.2" x="260" y="155" width="84" height="18"/>
		<rect fill="var(--vscode-gitlens-graphLane3Color, #8e00c2)" x="342" y="155" width="2" height="18"/>

		<rect fill="var(--vscode-gitlens-graphLane3Color, #8e00c2)" opacity="0.2" x="260" y="209" width="84" height="18"/>
		<rect fill="var(--vscode-gitlens-graphLane3Color, #8e00c2)" x="342" y="209" width="2" height="18"/>

		<line stroke="var(--vscode-gitlens-graphLane4Color, #c517b6)" opacity="0.4" x1="211" y1="109" x2="275" y2="109" stroke-width="2"/>
		<rect fill="var(--vscode-gitlens-graphLane4Color, #c517b6)" opacity="0.2" x="282" y="101" width="62" height="18"/>
		<rect fill="var(--vscode-gitlens-graphLane4Color, #c517b6)" x="342" y="101" width="2" height="18"/>

		<rect fill="var(--vscode-gitlens-graphLane4Color, #c517b6)" x="342" y="182" width="2" height="18"/>
		<rect fill="var(--vscode-gitlens-graphLane4Color, #c517b6)" opacity="0.2" x="282" y="182" width="62" height="18"/>

		<line stroke="var(--vscode-gitlens-graphLane5Color, #d90171)" opacity="0.3" x1="211" y1="246" x2="297" y2="246" stroke-width="2"/>
		<rect fill="var(--vscode-gitlens-graphLane5Color, #d90171)" opacity="0.2" x="304" y="236" width="40" height="18"/>
		<rect fill="var(--vscode-gitlens-graphLane5Color, #d90171)" x="342" y="236" width="2" height="18"/>
		<path stroke="var(--vscode-gitlens-graphLane5Color, #d90171)" d="M239 270.74H297C301.418 270.74 305 267.158 305 262.74V247" fill="none" stroke-width="2"/>

		<line stroke="var(--vscode-gitlens-graphLane1Color, #15a0bf)" x1="217" y1="38" x2="217" y2="319" stroke-width="2" stroke-dasharray="4 4"/>
		<circle stroke="var(--vscode-gitlens-graphLane1Color, #15a0bf)" cx="217" cy="29" r="8" stroke-width="2" stroke-dasharray="4 4"/>

		<rect fill="var(--vscode-gitlens-graphLane2Color, #0669f7)" x="238" y="47" width="2" height="332"/>
		<circle stroke="var(--vscode-gitlens-graphLane2Color, #0669f7)" cx="239" cy="56" r="8" stroke-width="2"/>
		<circle stroke="var(--vscode-gitlens-graphLane2Color, #0669f7)" cx="239" cy="137" r="8" stroke-width="2"/>
		<circle stroke="var(--vscode-gitlens-graphLane2Color, #0669f7)" cx="239" cy="271" r="8" stroke-width="2"/>

		<rect fill="var(--vscode-gitlens-graphLane3Color, #8e00c2)" x="260" y="74" width="2" height="305"/>
		<circle stroke="var(--vscode-gitlens-graphLane3Color, #8e00c2)" cx="261" cy="83" r="8" stroke-width="2"/>
		<circle stroke="var(--vscode-gitlens-graphLane3Color, #8e00c2)" cx="261" cy="164" r="8" stroke-width="2"/>
		<circle stroke="var(--vscode-gitlens-graphLane3Color, #8e00c2)" cx="261" cy="218" r="8" stroke-width="2"/>

		<rect fill="var(--vscode-gitlens-graphLane4Color, #c517b6)" x="282" y="106" width="2" height="209"/>
		<circle stroke="var(--vscode-gitlens-graphLane4Color, #c517b6)" cx="283" cy="110" r="8" stroke-width="2"/>
		<circle stroke="var(--vscode-gitlens-graphLane4Color, #c517b6)" cx="283" cy="191" r="8" stroke-width="2"/>

		<circle stroke="var(--vscode-gitlens-graphLane5Color, #d90171)" cx="305" cy="245" r="8" stroke-width="2"/>

		<text x="366" y="33.5" fill="var(--vscode-editor-foreground, #fff)" opacity="0.45"><tspan>Work in progress</tspan></text>
		<text fill="var(--vscode-editor-foreground, #fff)" opacity="0.7" font-size="11">
			<tspan x="366" y="59.5">Improves performance &amp; reduces bundle size</tspan>
			<tspan x="366" y="86.5">Adds brand new welcome experience</tspan>
			<tspan x="366" y="113.5">Adds new Commit Graph panel layout</tspan>
			<tspan x="366" y="140.5">Optimizes startup performance</tspan>
			<tspan x="366" y="167.5">Revamps Home view experience for better utility</tspan>
			<tspan x="366" y="194.5">Optimizes Commit Graph loading performance</tspan>
			<tspan x="366" y="221.5">Adds new GitLens Inspect side bar for a better experience</tspan>
			<tspan x="366" y="248.5">Fixes crash when run on a phone</tspan>
			<tspan x="366" y="275.5">Updates package dependencies</tspan>
		</text>

		<text fill="var(--vscode-editor-foreground, #fff)" opacity="0.45" font-size="11">
			<tspan x="696" y="59.5">Eric Amodio</tspan>
			<tspan x="696" y="86.5">Keith Daulton</tspan>
			<tspan x="696" y="113.5">Eric Amodio</tspan>
			<tspan x="696" y="140.5">Ramin Tadayon</tspan>
			<tspan x="696" y="167.5">Keith Daulton</tspan>
			<tspan x="696" y="194.5">Eric Amodio</tspan>
			<tspan x="696" y="221.5">Keith Daulton</tspan>
			<tspan x="696" y="248.5">Ramin Tadayon</tspan>
			<tspan x="696" y="275.5">Ramin Tadayon</tspan>
		</text>
	</svg>
	<svg x="0" y="370" fill="var(--vscode-editor-background, #000)" xmlns="http://www.w3.org/2000/svg">
		<text x="50%" y="20" text-anchor="middle" font-family="var(--vscode-font-family)" font-size="14" font-weight="600" fill="var(--vscode-editor-foreground, #fff)">Visual File History</text>
	</svg>
	<svg x="0" y="410" height="290" fill="var(--vscode-editor-background, #000)" xmlns="http://www.w3.org/2000/svg">
		<rect x="0" y="0" width="100%" height="288" fill="none" stroke="var(--vscode-editorWidget-border, #474747)" stroke-width="1"/>
		<g class="additions">
			<line x1="39" x2="39" y1="278" y2="276" stroke="var(--vscode-gitlens-decorations-addedForegroundColor, #339e3e)" stroke-width="1.2" />
			<line x1="45" x2="45" y1="272" y2="265" stroke="var(--vscode-gitlens-decorations-addedForegroundColor, #339e3e)" stroke-width="1.2" />
			<line x1="99" x2="99" y1="264" y2="249" stroke="var(--vscode-gitlens-decorations-addedForegroundColor, #339e3e)" stroke-width="1.2" />
			<line x1="106" x2="106" y1="252" y2="225" stroke="var(--vscode-gitlens-decorations-addedForegroundColor, #339e3e)" stroke-width="1.2" />
			<line x1="161" x2="161" y1="272" y2="265" stroke="var(--vscode-gitlens-decorations-addedForegroundColor, #339e3e)" stroke-width="1.2" />
			<line x1="174" x2="174" y1="278" y2="276" stroke="var(--vscode-gitlens-decorations-addedForegroundColor, #339e3e)" stroke-width="1.2" />
			<line x1="228" x2="228" y1="272" y2="265" stroke="var(--vscode-gitlens-decorations-addedForegroundColor, #339e3e)" stroke-width="1.2" />
			<line x1="234" x2="234" y1="264" y2="249" stroke="var(--vscode-gitlens-decorations-addedForegroundColor, #339e3e)" stroke-width="1.2" />
			<line x1="288" x2="288" y1="278" y2="276" stroke="var(--vscode-gitlens-decorations-addedForegroundColor, #339e3e)" stroke-width="1.2" />
			<line x1="342" x2="342" y1="272" y2="265" stroke="var(--vscode-gitlens-decorations-addedForegroundColor, #339e3e)" stroke-width="1.2" />
			<line x1="350" x2="350" y1="172" y2="63" stroke="var(--vscode-gitlens-decorations-addedForegroundColor, #339e3e)" stroke-width="1.2" />
			<line x1="357" x2="357" y1="249" y2="218" stroke="var(--vscode-gitlens-decorations-addedForegroundColor, #339e3e)" stroke-width="1.2" />
			<line x1="364" x2="364" y1="266" y2="254" stroke="var(--vscode-gitlens-decorations-addedForegroundColor, #339e3e)" stroke-width="1.2" />
			<line x1="371" x2="371" y1="273" y2="266" stroke="var(--vscode-gitlens-decorations-addedForegroundColor, #339e3e)" stroke-width="1.2" />
			<line x1="378" x2="378" y1="273" y2="266" stroke="var(--vscode-gitlens-decorations-addedForegroundColor, #339e3e)" stroke-width="1.2" />
			<line x1="385" x2="385" y1="273" y2="266" stroke="var(--vscode-gitlens-decorations-addedForegroundColor, #339e3e)" stroke-width="1.2" />
			<line x1="440" x2="440" y1="249" y2="218" stroke="var(--vscode-gitlens-decorations-addedForegroundColor, #339e3e)" stroke-width="1.2" />
			<line x1="447" x2="447" y1="249" y2="218" stroke="var(--vscode-gitlens-decorations-addedForegroundColor, #339e3e)" stroke-width="1.2" />
			<line x1="454" x2="454" y1="264" y2="249" stroke="var(--vscode-gitlens-decorations-addedForegroundColor, #339e3e)" stroke-width="1.2" />
			<line x1="461" x2="461" y1="264" y2="249" stroke="var(--vscode-gitlens-decorations-addedForegroundColor, #339e3e)" stroke-width="1.2" />
			<line x1="468" x2="468" y1="273" y2="266" stroke="var(--vscode-gitlens-decorations-addedForegroundColor, #339e3e)" stroke-width="1.2" />
			<line x1="475" x2="475" y1="117" y2="20" stroke="var(--vscode-gitlens-decorations-addedForegroundColor, #339e3e)" stroke-width="1.2" />
			<line x1="482" x2="482" y1="273" y2="266" stroke="var(--vscode-gitlens-decorations-addedForegroundColor, #339e3e)" stroke-width="1.2" />
			<line x1="490" x2="490" y1="273" y2="266" stroke="var(--vscode-gitlens-decorations-addedForegroundColor, #339e3e)" stroke-width="1.2" />
			<line x1="497" x2="497" y1="204" y2="129" stroke="var(--vscode-gitlens-decorations-addedForegroundColor, #339e3e)" stroke-width="1.2" />
			<line x1="504" x2="504" y1="200" y2="120" stroke="var(--vscode-gitlens-decorations-addedForegroundColor, #339e3e)" stroke-width="1.2" />
			<line x1="511" x2="511" y1="200" y2="120" stroke="var(--vscode-gitlens-decorations-addedForegroundColor, #339e3e)" stroke-width="1.2" />
			<line x1="518" x2="518" y1="213" y2="145" stroke="var(--vscode-gitlens-decorations-addedForegroundColor, #339e3e)" stroke-width="1.2" />
			<line x1="525" x2="525" y1="252" y2="225" stroke="var(--vscode-gitlens-decorations-addedForegroundColor, #339e3e)" stroke-width="1.2" />
			<line x1="580" x2="580" y1="278" y2="276" stroke="var(--vscode-gitlens-decorations-addedForegroundColor, #339e3e)" stroke-width="1.2" />
			<line x1="587" x2="587" y1="273" y2="266" stroke="var(--vscode-gitlens-decorations-addedForegroundColor, #339e3e)" stroke-width="1.2" />
			<line x1="594" x2="594" y1="252" y2="225" stroke="var(--vscode-gitlens-decorations-addedForegroundColor, #339e3e)" stroke-width="1.2" />
			<line x1="601" x2="601" y1="247" y2="214" stroke="var(--vscode-gitlens-decorations-addedForegroundColor, #339e3e)" stroke-width="1.2" />
			<line x1="608" x2="608" y1="271" y2="263" stroke="var(--vscode-gitlens-decorations-addedForegroundColor, #339e3e)" stroke-width="1.2" />
			<line x1="615" x2="615" y1="274" y2="268" stroke="var(--vscode-gitlens-decorations-addedForegroundColor, #339e3e)" stroke-width="1.2" />
			<line x1="623" x2="623" y1="271" y2="263" stroke="var(--vscode-gitlens-decorations-addedForegroundColor, #339e3e)" stroke-width="1.2" />
			<line x1="677" x2="677" y1="264" y2="249" stroke="var(--vscode-gitlens-decorations-addedForegroundColor, #339e3e)" stroke-width="1.2" />
			<line x1="731" x2="731" y1="273" y2="266" stroke="var(--vscode-gitlens-decorations-addedForegroundColor, #339e3e)" stroke-width="1.2" />
			<line x1="739" x2="739" y1="252" y2="225" stroke="var(--vscode-gitlens-decorations-addedForegroundColor, #339e3e)" stroke-width="1.2" />
			<line x1="743" x2="743" y1="264" y2="249" stroke="var(--vscode-gitlens-decorations-addedForegroundColor, #339e3e)" stroke-width="1.2" />
			<line x1="751" x2="751" y1="224" y2="168" stroke="var(--vscode-gitlens-decorations-addedForegroundColor, #339e3e)" stroke-width="1.2" />
			<line x1="805" x2="805" y1="278" y2="276" stroke="var(--vscode-gitlens-decorations-addedForegroundColor, #339e3e)" stroke-width="1.2" />
		</g>
		<g class="deletions">
			<line x1="39" x2="39" y1="276" y2="289" stroke="var(--vscode-gitlens-decorations-deletedForegroundColor, #9e2716)" stroke-width="1.2" />
			<line x1="45" x2="45" y1="270" y2="289" stroke="var(--vscode-gitlens-decorations-deletedForegroundColor, #9e2716)" stroke-width="1.2" />
			<line x1="99" x2="99" y1="262" y2="289" stroke="var(--vscode-gitlens-decorations-deletedForegroundColor, #9e2716)" stroke-width="1.2" />
			<line x1="106" x2="106" y1="250" y2="289" stroke="var(--vscode-gitlens-decorations-deletedForegroundColor, #9e2716)" stroke-width="1.2" />
			<line x1="161" x2="161" y1="270" y2="289" stroke="var(--vscode-gitlens-decorations-deletedForegroundColor, #9e2716)" stroke-width="1.2" />
			<line x1="174" x2="174" y1="276" y2="289" stroke="var(--vscode-gitlens-decorations-deletedForegroundColor, #9e2716)" stroke-width="1.2" />
			<line x1="228" x2="228" y1="270" y2="289" stroke="var(--vscode-gitlens-decorations-deletedForegroundColor, #9e2716)" stroke-width="1.2" />
			<line x1="234" x2="234" y1="262" y2="289" stroke="var(--vscode-gitlens-decorations-deletedForegroundColor, #9e2716)" stroke-width="1.2" />
			<line x1="288" x2="288" y1="276" y2="289" stroke="var(--vscode-gitlens-decorations-deletedForegroundColor, #9e2716)" stroke-width="1.2" />
			<line x1="342" x2="342" y1="270" y2="289" stroke="var(--vscode-gitlens-decorations-deletedForegroundColor, #9e2716)" stroke-width="1.2" />
			<line x1="350" x2="350" y1="170" y2="289" stroke="var(--vscode-gitlens-decorations-deletedForegroundColor, #9e2716)" stroke-width="1.2" />
			<line x1="357" x2="357" y1="249" y2="289" stroke="var(--vscode-gitlens-decorations-deletedForegroundColor, #9e2716)" stroke-width="1.2" />
			<line x1="364" x2="364" y1="264" y2="289" stroke="var(--vscode-gitlens-decorations-deletedForegroundColor, #9e2716)" stroke-width="1.2" />
			<line x1="371" x2="371" y1="271" y2="289" stroke="var(--vscode-gitlens-decorations-deletedForegroundColor, #9e2716)" stroke-width="1.2" />
			<line x1="378" x2="378" y1="271" y2="289" stroke="var(--vscode-gitlens-decorations-deletedForegroundColor, #9e2716)" stroke-width="1.2" />
			<line x1="385" x2="385" y1="271" y2="289" stroke="var(--vscode-gitlens-decorations-deletedForegroundColor, #9e2716)" stroke-width="1.2" />
			<line x1="440" x2="440" y1="247" y2="289" stroke="var(--vscode-gitlens-decorations-deletedForegroundColor, #9e2716)" stroke-width="1.2" />
			<line x1="447" x2="447" y1="247" y2="289" stroke="var(--vscode-gitlens-decorations-deletedForegroundColor, #9e2716)" stroke-width="1.2" />
			<line x1="454" x2="454" y1="262" y2="289" stroke="var(--vscode-gitlens-decorations-deletedForegroundColor, #9e2716)" stroke-width="1.2" />
			<line x1="461" x2="461" y1="262" y2="289" stroke="var(--vscode-gitlens-decorations-deletedForegroundColor, #9e2716)" stroke-width="1.2" />
			<line x1="468" x2="468" y1="271" y2="289" stroke="var(--vscode-gitlens-decorations-deletedForegroundColor, #9e2716)" stroke-width="1.2" />
			<line x1="475" x2="475" y1="115" y2="289" stroke="var(--vscode-gitlens-decorations-deletedForegroundColor, #9e2716)" stroke-width="1.2" />
			<line x1="482" x2="482" y1="271" y2="289" stroke="var(--vscode-gitlens-decorations-deletedForegroundColor, #9e2716)" stroke-width="1.2" />
			<line x1="490" x2="490" y1="271" y2="289" stroke="var(--vscode-gitlens-decorations-deletedForegroundColor, #9e2716)" stroke-width="1.2" />
			<line x1="497" x2="497" y1="202" y2="289" stroke="var(--vscode-gitlens-decorations-deletedForegroundColor, #9e2716)" stroke-width="1.2" />
			<line x1="504" x2="504" y1="198" y2="289" stroke="var(--vscode-gitlens-decorations-deletedForegroundColor, #9e2716)" stroke-width="1.2" />
			<line x1="511" x2="511" y1="198" y2="289" stroke="var(--vscode-gitlens-decorations-deletedForegroundColor, #9e2716)" stroke-width="1.2" />
			<line x1="518" x2="518" y1="211" y2="289" stroke="var(--vscode-gitlens-decorations-deletedForegroundColor, #9e2716)" stroke-width="1.2" />
			<line x1="525" x2="525" y1="250" y2="289" stroke="var(--vscode-gitlens-decorations-deletedForegroundColor, #9e2716)" stroke-width="1.2" />
			<line x1="580" x2="580" y1="276" y2="289" stroke="var(--vscode-gitlens-decorations-deletedForegroundColor, #9e2716)" stroke-width="1.2" />
			<line x1="587" x2="587" y1="271" y2="289" stroke="var(--vscode-gitlens-decorations-deletedForegroundColor, #9e2716)" stroke-width="1.2" />
			<line x1="594" x2="594" y1="250" y2="289" stroke="var(--vscode-gitlens-decorations-deletedForegroundColor, #9e2716)" stroke-width="1.2" />
			<line x1="601" x2="601" y1="245" y2="289" stroke="var(--vscode-gitlens-decorations-deletedForegroundColor, #9e2716)" stroke-width="1.2" />
			<line x1="608" x2="608" y1="269" y2="289" stroke="var(--vscode-gitlens-decorations-deletedForegroundColor, #9e2716)" stroke-width="1.2" />
			<line x1="615" x2="615" y1="272" y2="289" stroke="var(--vscode-gitlens-decorations-deletedForegroundColor, #9e2716)" stroke-width="1.2" />
			<line x1="623" x2="623" y1="269" y2="289" stroke="var(--vscode-gitlens-decorations-deletedForegroundColor, #9e2716)" stroke-width="1.2" />
			<line x1="677" x2="677" y1="262" y2="289" stroke="var(--vscode-gitlens-decorations-deletedForegroundColor, #9e2716)" stroke-width="1.2" />
			<line x1="731" x2="731" y1="271" y2="289" stroke="var(--vscode-gitlens-decorations-deletedForegroundColor, #9e2716)" stroke-width="1.2" />
			<line x1="739" x2="739" y1="250" y2="289" stroke="var(--vscode-gitlens-decorations-deletedForegroundColor, #9e2716)" stroke-width="1.2" />
			<line x1="743" x2="743" y1="262" y2="289" stroke="var(--vscode-gitlens-decorations-deletedForegroundColor, #9e2716)" stroke-width="1.2" />
			<line x1="751" x2="751" y1="222" y2="289" stroke="var(--vscode-gitlens-decorations-deletedForegroundColor, #9e2716)" stroke-width="1.2" />
			<line x1="805" x2="805" y1="276" y2="289" stroke="var(--vscode-gitlens-decorations-deletedForegroundColor, #9e2716)" stroke-width="1.2" />
		</g>
		<g class="lane1">
			<line class="grid-line" x1="39" x2="809" y1="99" y2="99" stroke="var(--vscode-editorWidget-border, #474747)" stroke-dasharray="4.5 4.5" />
			<circle cx="39" cy="99" r="4" fill="#7101ff" opacity="0.3" />
			<circle cx="45" cy="99" r="8" fill="#7101ff" opacity="0.3" />
			<circle cx="99" cy="99" r="17" fill="#7101ff" opacity="0.3" />
			<circle cx="106" cy="99" r="29" fill="#7101ff" opacity="0.3" />
			<circle cx="174" cy="99" r="4" fill="#7101ff" opacity="0.3" />
			<circle cx="350" cy="99" r="96" fill="#7101ff" opacity="0.3" />
			<circle cx="364" cy="99" r="12" fill="#7101ff" opacity="0.3" />
			<circle cx="378" cy="99" r="8" fill="#7101ff" opacity="0.3" />
			<circle cx="385" cy="99" r="8" fill="#7101ff" opacity="0.3" />
			<circle cx="447" cy="99" r="32" fill="#7101ff" opacity="0.3" />
			<circle cx="461" cy="99" r="17" fill="#7101ff" opacity="0.3" />
			<circle cx="468" cy="99" r="8" fill="#7101ff" opacity="0.3" />
			<circle cx="475" cy="99" r="100" fill="#7101ff" opacity="0.3" />
			<circle cx="482" cy="99" r="8" fill="#7101ff" opacity="0.3" />
			<circle cx="490" cy="99" r="8" fill="#7101ff" opacity="0.3" />
			<circle cx="497" cy="99" r="67" fill="#7101ff" opacity="0.3" />
			<circle cx="504" cy="99" r="71" fill="#7101ff" opacity="0.3" />
			<circle cx="511" cy="99" r="71" fill="#7101ff" opacity="0.3" />
			<circle cx="518" cy="99" r="61" fill="#7101ff" opacity="0.3" />
			<circle cx="525" cy="99" r="29" fill="#7101ff" opacity="0.3" />
			<circle cx="580" cy="99" r="4" fill="#7101ff" opacity="0.3" />
			<circle cx="594" cy="99" r="29" fill="#7101ff" opacity="0.3" />
			<circle cx="677" cy="99" r="17" fill="#7101ff" opacity="0.3" />
			<circle cx="731" cy="99" r="8" fill="#7101ff" opacity="0.3" />
			<circle cx="739" cy="99" r="29" fill="#7101ff" opacity="0.3" />
		</g>
		<g class="lane2">
			<line class="grid-line" x1="39" x2="809" y1="154" y2="154" stroke="var(--vscode-editorWidget-border, #474747)" stroke-dasharray="4.5 4.5" />
			<circle cx="161" cy="154" r="8" fill="#ff9900" opacity="0.3" />
			<circle cx="228" cy="154" r="8" fill="#ff9900" opacity="0.3" />
			<circle cx="234" cy="154" r="17" fill="#ff9900" opacity="0.3" />
			<circle cx="288" cy="154" r="4" fill="#ff9900" opacity="0.3" />
			<circle cx="342" cy="154" r="8" fill="#ff9900" opacity="0.3" />
			<circle cx="357" cy="154" r="31" fill="#ff9900" opacity="0.3" />
			<circle cx="371" cy="154" r="8" fill="#ff9900" opacity="0.3" />
			<circle cx="385" cy="154" r="8" fill="#ff9900" opacity="0.3" />
			<circle cx="440" cy="154" r="32" fill="#ff9900" opacity="0.3" />
			<circle cx="454" cy="154" r="17" fill="#ff9900" opacity="0.3" />
			<circle cx="587" cy="154" r="8" fill="#ff9900" opacity="0.3" />
			<circle cx="601" cy="154" r="33" fill="#ff9900" opacity="0.3" />
			<circle cx="608" cy="154" r="9" fill="#ff9900" opacity="0.3" />
			<circle cx="615" cy="154" r="7" fill="#ff9900" opacity="0.3" />
			<circle cx="623" cy="154" r="9" fill="#ff9900" opacity="0.3" />
			<circle cx="743" cy="154" r="17" fill="#ff9900" opacity="0.3" />
			<circle cx="751" cy="154" r="50" fill="#ff9900" opacity="0.3" />
			<circle cx="805" cy="154" r="4" fill="#ff9900" opacity="0.3" />
		</g>
	</svg>
</svg>
