<svg width="850" height="600" viewBox="0 0 850 600" fill="none" xmlns="http://www.w3.org/2000/svg">
	<svg x="0" y="0" width="850" height="290" viewBox="0 0 850 290" fill="none" xmlns="http://www.w3.org/2000/svg">
		<rect x="0" y="0" width="100%" height="290" stroke-width="1" stroke="var(--vscode-editorWidget-border)" fill="var(--vscode-sideBarSectionHeader-background)" />
		<g>
			<text x="10" y="30" class="heading" font-weight="600" font-size="20" fill="var(--vscode-foreground)">
				<tspan>My Pull Requests</tspan>
			</text>
			<text x="100%" y="30.5" class="tabs" text-anchor="end" fill="var(--vscode-foreground)" font-size="16" opacity="0.8">
				<tspan text-decoration="underline" dx="-10">All</tspan>
				<tspan text-decoration="underline" dx="6">Opened by me</tspan>
				<tspan text-decoration="underline" dx="6">Assigned to me</tspan>
				<tspan text-decoration="underline" dx="6">Needs my review</tspan>
				<tspan text-decoration="underline" dx="6">Mentions me</tspan>
			</text>
		</g>
		<g class="row">
			<rect x="0" y="52" width="100%" height="34" class="row-box" />
			<text x="88" y="75" fill="var(--vscode-foreground)" font-size="18">
				<tspan>1wk</tspan>
				<tspan dx="30">adds stylelint</tspan>
				<tspan text-decoration="underline" fill=" var(--vscode-textLink-foreground)">#2453</tspan>
			</text>
			<svg x="13" y="60" width="16" height="18" viewBox="0 0 16 18" xmlns="http://www.w3.org/2000/svg" fill="var(--vscode-foreground)"><path d="M5.3 4.52C4.98 5 4.56 5.36 4.04 5.6L3.56 5.72V11.36C4.32 11.52 4.9 11.92 5.3 12.56C5.62 13.04 5.78 13.56 5.78 14.12C5.78 14.52 5.72 14.9 5.6 15.26C5.36 15.78 5 16.2 4.52 16.52C4.04 16.84 3.5 17 2.9 17C2.34 17 1.82 16.84 1.34 16.52C0.9 16.2 0.56 15.78 0.32 15.26C0.12 14.74 0.06 14.2 0.14 13.64C0.26 13.08 0.52 12.6 0.92 12.2C1.32 11.8 1.8 11.54 2.36 11.42V5.72C1.8 5.6 1.32 5.34 0.92 4.94C0.52 4.54 0.26 4.06 0.14 3.5C0.06 2.94 0.12 2.4 0.32 1.88C0.56 1.36 0.9 0.94 1.34 0.62C1.82 0.3 2.36 0.14 2.96 0.14C3.72 0.1 4.38 0.36 4.94 0.919999C5.54 1.48 5.82 2.16 5.78 2.96C5.78 3.56 5.62 4.08 5.3 4.52ZM4.46 13.4C4.3 13.12 4.08 12.9 3.8 12.74C3.56 12.58 3.28 12.5 2.96 12.5C2.44 12.5 2 12.72 1.64 13.16C1.32 13.56 1.22 14.02 1.34 14.54C1.38 14.86 1.52 15.14 1.76 15.38C2.04 15.62 2.34 15.78 2.66 15.86C2.98 15.9 3.3 15.86 3.62 15.74C3.94 15.62 4.18 15.42 4.34 15.14C4.54 14.86 4.64 14.58 4.64 14.3C4.68 13.98 4.62 13.68 4.46 13.4ZM2.06 4.34C2.34 4.54 2.64 4.64 2.96 4.64C3.28 4.64 3.56 4.56 3.8 4.4C4.08 4.24 4.3 4.02 4.46 3.74C4.62 3.46 4.68 3.16 4.64 2.84C4.64 2.52 4.54 2.24 4.34 2C4.18 1.72 3.94 1.52 3.62 1.4C3.3 1.24 2.96 1.2 2.6 1.28C2.28 1.36 2 1.52 1.76 1.76C1.52 2 1.36 2.28 1.28 2.6C1.24 2.92 1.28 3.24 1.4 3.56C1.56 3.88 1.78 4.14 2.06 4.34ZM13.64 11.42C14.2 11.54 14.68 11.8 15.08 12.2C15.64 12.76 15.92 13.42 15.92 14.18C15.92 14.74 15.76 15.26 15.44 15.74C15.12 16.22 14.7 16.58 14.18 16.82C13.66 17.02 13.12 17.06 12.56 16.94C12 16.82 11.52 16.56 11.12 16.16C10.72 15.76 10.46 15.28 10.34 14.72C10.22 14.16 10.26 13.62 10.46 13.1C10.7 12.58 11.06 12.16 11.54 11.84C11.86 11.64 12.2 11.5 12.56 11.42V5.18C12.56 4.7 12.38 4.3 12.02 3.98C11.7 3.66 11.32 3.5 10.88 3.5H8.78L10.22 4.94L9.38 5.72L6.98 3.32V2.54L9.38 0.14L10.22 0.919999L8.78 2.36H10.88C11.44 2.36 11.96 2.52 12.44 2.84C12.92 3.16 13.26 3.58 13.46 4.1C13.62 4.46 13.68 4.82 13.64 5.18V11.42ZM14.3 15.38C14.58 15.1 14.74 14.76 14.78 14.36C14.82 13.96 14.74 13.6 14.54 13.28C14.34 12.96 14.08 12.74 13.76 12.62C13.44 12.5 13.1 12.48 12.74 12.56C12.42 12.6 12.14 12.74 11.9 12.98C11.66 13.22 11.5 13.52 11.42 13.88C11.38 14.2 11.42 14.5 11.54 14.78C11.66 15.06 11.82 15.3 12.02 15.5C12.26 15.66 12.5 15.78 12.74 15.86C13.02 15.9 13.3 15.88 13.58 15.8C13.86 15.72 14.1 15.58 14.3 15.38Z"/></svg>
			<svg x="37" y="60" width="16" height="16" viewBox="0 0 16 16" xmlns="http://www.w3.org/2000/svg" fill="var(--vscode-problemsErrorIcon-foreground)"><path d="M15.32 0.14L15.86 0.679999V11.96L15.32 12.5H7.7L4.46 15.74L3.5 15.32V12.5H0.68L0.14 11.96V0.679999L0.68 0.14H15.32ZM14.78 11.36V1.22H1.28V11.36H4.04L4.64 11.96V13.94L7.04 11.54L7.46 11.36H14.78ZM10.28 10.22V9.08H5.78V10.22H10.28ZM7.46 2.36V4.64H5.18V5.72H7.46V8H8.54V5.72H10.82V4.64H8.54V2.36H7.46Z"/></svg>
			<svg x="625" y="58" width="18" height="18" viewBox="0 0 18 18" xmlns="http://www.w3.org/2000/svg" fill="var(--vscode-foreground)"><path d="M18 9C18 10.32 17.72 11.58 17.16 12.78C16.6 13.98 15.84 15 14.88 15.84L14.04 16.44C12.52 17.48 10.84 18 9 18C7.16 18 5.48 17.48 3.96 16.44L3.18 15.84C2.18 15 1.4 13.98 0.84 12.78C0.28 11.58 0 10.32 0 9C0 7.36 0.4 5.86 1.2 4.5C2 3.1 3.08 2 4.44 1.2C5.84 0.4 7.36 0 9 0C10.64 0 12.14 0.4 13.5 1.2C14.9 2 16 3.1 16.8 4.5C17.6 5.86 18 7.36 18 9ZM9 16.86C10.68 16.86 12.2 16.38 13.56 15.42C13.48 15.06 13.38 14.72 13.26 14.4C13.02 13.84 12.68 13.36 12.24 12.96C11.84 12.52 11.34 12.2 10.74 12C10.18 11.76 9.6 11.64 9 11.64C8.6 11.64 8.18 11.7 7.74 11.82C7.34 11.9 6.98 12.04 6.66 12.24C6.34 12.44 6.04 12.68 5.76 12.96C5.48 13.24 5.24 13.56 5.04 13.92C4.84 14.24 4.68 14.6 4.56 15L4.5 15.42C5.86 16.38 7.36 16.86 9 16.86ZM6.24 8.52C6.4 8.88 6.62 9.2 6.9 9.48C7.18 9.76 7.48 9.98 7.8 10.14C8.6 10.46 9.38 10.46 10.14 10.14C10.5 9.98 10.82 9.76 11.1 9.48C11.38 9.2 11.6 8.9 11.76 8.58C11.92 8.22 12 7.84 12 7.44C12 7 11.92 6.6 11.76 6.24C11.6 5.88 11.38 5.56 11.1 5.28C10.82 5 10.5 4.78 10.14 4.62C9.82 4.46 9.44 4.38 9 4.38C8.56 4.38 8.16 4.48 7.8 4.68C7.44 4.84 7.12 5.06 6.84 5.34C6.6 5.58 6.4 5.88 6.24 6.24C6.08 6.6 6 6.98 6 7.38C6 7.78 6.08 8.16 6.24 8.52ZM14.58 14.52C15.34 13.8 15.9 12.96 16.26 12C16.66 11.04 16.86 10.04 16.86 9C16.86 7.56 16.5 6.24 15.78 5.04C15.1 3.84 14.16 2.9 12.96 2.22C11.76 1.5 10.44 1.14 9 1.14C7.56 1.14 6.24 1.5 5.04 2.22C3.84 2.9 2.88 3.84 2.16 5.04C1.48 6.24 1.14 7.56 1.14 9C1.14 10.04 1.34 11.04 1.74 12C2.14 12.96 2.7 13.8 3.42 14.52V14.46C3.62 13.86 3.88 13.32 4.2 12.84C4.56 12.36 4.98 11.94 5.46 11.58C5.82 11.3 6.2 11.08 6.6 10.92C6.4 10.76 6.22 10.6 6.06 10.44C5.74 10.12 5.5 9.82 5.34 9.54C5.18 9.26 5.04 8.94 4.92 8.58C4.8 8.18 4.74 7.78 4.74 7.38C4.74 6.82 4.84 6.28 5.04 5.76C5.28 5.24 5.58 4.78 5.94 4.38C6.34 3.98 6.8 3.68 7.32 3.48C7.84 3.28 8.38 3.18 8.94 3.18C9.54 3.18 10.1 3.28 10.62 3.48C11.14 3.68 11.6 3.98 12 4.38C12.4 4.78 12.7 5.24 12.9 5.76C13.14 6.28 13.24 6.82 13.2 7.38C13.24 8.18 13.06 8.9 12.66 9.54C12.46 9.86 12.22 10.16 11.94 10.44C11.78 10.6 11.6 10.74 11.4 10.86C11.84 11.06 12.24 11.3 12.6 11.58C13.08 11.94 13.48 12.36 13.8 12.84C14.16 13.32 14.42 13.84 14.58 14.4V14.46C14.58 14.5 14.58 14.52 14.58 14.52Z"/></svg>
			<svg x="824" y="60" width="16" height="16" viewBox="0 0 16 16" xmlns="http://www.w3.org/2000/svg" fill="var(--vscode-foreground)"><path d="M5.5 3.90753C3.53768 4.07098 2 5.59302 2 7.44649C2 9.40902 3.72397 11 5.8506 11C5.90063 11 5.95043 10.9991 6 10.9973V11H12.4429L10.4428 13L11.1499 13.7071L14.0035 10.8536V10.1465L11.15 7.2929L10.4429 8.00001L12.4429 10H6V9.99663C5.95063 9.99885 5.90082 9.99997 5.8506 9.99997C4.19913 9.99997 3 8.78265 3 7.44649C3 6.20686 4.03212 5.06953 5.5 4.91165V3.90753Z"/></svg>
		</g>
		<g class="row">
			<rect x="0" y="86" width="100%" height="34" class="row-box" />
			<text x="88" y="109" fill="var(--vscode-foreground)" font-size="18">
				<tspan>1wk</tspan>
				<tspan dx="30">Workspaces side bar view</tspan>
				<tspan text-decoration="underline" fill=" var(--vscode-textLink-foreground)">#2650</tspan>
			</text>
			<svg x="13" y="94" width="16" height="18" viewBox="0 0 16 18" xmlns="http://www.w3.org/2000/svg" fill="var(--vscode-foreground)"><path d="M5.3 4.52C4.98 5 4.56 5.36 4.04 5.6L3.56 5.72V11.36C4.32 11.52 4.9 11.92 5.3 12.56C5.62 13.04 5.78 13.56 5.78 14.12C5.78 14.52 5.72 14.9 5.6 15.26C5.36 15.78 5 16.2 4.52 16.52C4.04 16.84 3.5 17 2.9 17C2.34 17 1.82 16.84 1.34 16.52C0.9 16.2 0.56 15.78 0.32 15.26C0.12 14.74 0.06 14.2 0.14 13.64C0.26 13.08 0.52 12.6 0.92 12.2C1.32 11.8 1.8 11.54 2.36 11.42V5.72C1.8 5.6 1.32 5.34 0.92 4.94C0.52 4.54 0.26 4.06 0.14 3.5C0.06 2.94 0.12 2.4 0.32 1.88C0.56 1.36 0.9 0.94 1.34 0.62C1.82 0.3 2.36 0.14 2.96 0.14C3.72 0.1 4.38 0.36 4.94 0.919999C5.54 1.48 5.82 2.16 5.78 2.96C5.78 3.56 5.62 4.08 5.3 4.52ZM4.46 13.4C4.3 13.12 4.08 12.9 3.8 12.74C3.56 12.58 3.28 12.5 2.96 12.5C2.44 12.5 2 12.72 1.64 13.16C1.32 13.56 1.22 14.02 1.34 14.54C1.38 14.86 1.52 15.14 1.76 15.38C2.04 15.62 2.34 15.78 2.66 15.86C2.98 15.9 3.3 15.86 3.62 15.74C3.94 15.62 4.18 15.42 4.34 15.14C4.54 14.86 4.64 14.58 4.64 14.3C4.68 13.98 4.62 13.68 4.46 13.4ZM2.06 4.34C2.34 4.54 2.64 4.64 2.96 4.64C3.28 4.64 3.56 4.56 3.8 4.4C4.08 4.24 4.3 4.02 4.46 3.74C4.62 3.46 4.68 3.16 4.64 2.84C4.64 2.52 4.54 2.24 4.34 2C4.18 1.72 3.94 1.52 3.62 1.4C3.3 1.24 2.96 1.2 2.6 1.28C2.28 1.36 2 1.52 1.76 1.76C1.52 2 1.36 2.28 1.28 2.6C1.24 2.92 1.28 3.24 1.4 3.56C1.56 3.88 1.78 4.14 2.06 4.34ZM13.64 11.42C14.2 11.54 14.68 11.8 15.08 12.2C15.64 12.76 15.92 13.42 15.92 14.18C15.92 14.74 15.76 15.26 15.44 15.74C15.12 16.22 14.7 16.58 14.18 16.82C13.66 17.02 13.12 17.06 12.56 16.94C12 16.82 11.52 16.56 11.12 16.16C10.72 15.76 10.46 15.28 10.34 14.72C10.22 14.16 10.26 13.62 10.46 13.1C10.7 12.58 11.06 12.16 11.54 11.84C11.86 11.64 12.2 11.5 12.56 11.42V5.18C12.56 4.7 12.38 4.3 12.02 3.98C11.7 3.66 11.32 3.5 10.88 3.5H8.78L10.22 4.94L9.38 5.72L6.98 3.32V2.54L9.38 0.14L10.22 0.919999L8.78 2.36H10.88C11.44 2.36 11.96 2.52 12.44 2.84C12.92 3.16 13.26 3.58 13.46 4.1C13.62 4.46 13.68 4.82 13.64 5.18V11.42ZM14.3 15.38C14.58 15.1 14.74 14.76 14.78 14.36C14.82 13.96 14.74 13.6 14.54 13.28C14.34 12.96 14.08 12.74 13.76 12.62C13.44 12.5 13.1 12.48 12.74 12.56C12.42 12.6 12.14 12.74 11.9 12.98C11.66 13.22 11.5 13.52 11.42 13.88C11.38 14.2 11.42 14.5 11.54 14.78C11.66 15.06 11.82 15.3 12.02 15.5C12.26 15.66 12.5 15.78 12.74 15.86C13.02 15.9 13.3 15.88 13.58 15.8C13.86 15.72 14.1 15.58 14.3 15.38Z"/></svg>
			<svg x="37" y="94" width="16" height="17" viewBox="0 0 16 17" xmlns="http://www.w3.org/2000/svg" fill="var(--vscode-problemsInfoIcon-foreground)"><path d="M6.08 11.24H6.86L11.96 6.08L11.18 5.3L6.44 10.04L4.28 7.88L3.5 8.66L6.08 11.24ZM8.66 0.14C9.54 0.18 10.38 0.4 11.18 0.799999C12.02 1.2 12.76 1.72 13.4 2.36C14.92 4 15.68 5.92 15.68 8.12C15.68 9.84 15.08 11.48 13.88 13.04C13.28 13.76 12.6 14.36 11.84 14.84C11.08 15.28 10.26 15.58 9.38 15.74C7.46 16.1 5.72 15.84 4.16 14.96C3.36 14.52 2.66 13.96 2.06 13.28C1.46 12.6 1 11.84 0.68 11C0.36 10.16 0.16 9.28 0.08 8.36C0.04 7.44 0.16 6.56 0.44 5.72C1.04 3.88 2.1 2.46 3.62 1.46C4.34 0.98 5.12 0.62 5.96 0.38C6.84 0.14 7.74 0.0600001 8.66 0.14ZM9.26 14.66C10.78 14.3 12.04 13.5 13.04 12.26C14.04 10.9 14.5 9.48 14.42 8C14.42 7.08 14.24 6.2 13.88 5.36C13.56 4.52 13.1 3.78 12.5 3.14C11.34 1.98 10 1.34 8.48 1.22C7.72 1.18 6.96 1.26 6.2 1.46C5.44 1.62 4.76 1.92 4.16 2.36C2.88 3.32 2 4.58 1.52 6.14C1.08 7.7 1.18 9.2 1.82 10.64C2.5 12.08 3.52 13.18 4.88 13.94C5.52 14.34 6.22 14.6 6.98 14.72C7.74 14.84 8.5 14.82 9.26 14.66Z" /></svg>
			<svg x="625" y="92" width="18" height="18" viewBox="0 0 18 18" xmlns="http://www.w3.org/2000/svg" fill="var(--vscode-foreground)"><path d="M18 9C18 10.32 17.72 11.58 17.16 12.78C16.6 13.98 15.84 15 14.88 15.84L14.04 16.44C12.52 17.48 10.84 18 9 18C7.16 18 5.48 17.48 3.96 16.44L3.18 15.84C2.18 15 1.4 13.98 0.84 12.78C0.28 11.58 0 10.32 0 9C0 7.36 0.4 5.86 1.2 4.5C2 3.1 3.08 2 4.44 1.2C5.84 0.4 7.36 0 9 0C10.64 0 12.14 0.4 13.5 1.2C14.9 2 16 3.1 16.8 4.5C17.6 5.86 18 7.36 18 9ZM9 16.86C10.68 16.86 12.2 16.38 13.56 15.42C13.48 15.06 13.38 14.72 13.26 14.4C13.02 13.84 12.68 13.36 12.24 12.96C11.84 12.52 11.34 12.2 10.74 12C10.18 11.76 9.6 11.64 9 11.64C8.6 11.64 8.18 11.7 7.74 11.82C7.34 11.9 6.98 12.04 6.66 12.24C6.34 12.44 6.04 12.68 5.76 12.96C5.48 13.24 5.24 13.56 5.04 13.92C4.84 14.24 4.68 14.6 4.56 15L4.5 15.42C5.86 16.38 7.36 16.86 9 16.86ZM6.24 8.52C6.4 8.88 6.62 9.2 6.9 9.48C7.18 9.76 7.48 9.98 7.8 10.14C8.6 10.46 9.38 10.46 10.14 10.14C10.5 9.98 10.82 9.76 11.1 9.48C11.38 9.2 11.6 8.9 11.76 8.58C11.92 8.22 12 7.84 12 7.44C12 7 11.92 6.6 11.76 6.24C11.6 5.88 11.38 5.56 11.1 5.28C10.82 5 10.5 4.78 10.14 4.62C9.82 4.46 9.44 4.38 9 4.38C8.56 4.38 8.16 4.48 7.8 4.68C7.44 4.84 7.12 5.06 6.84 5.34C6.6 5.58 6.4 5.88 6.24 6.24C6.08 6.6 6 6.98 6 7.38C6 7.78 6.08 8.16 6.24 8.52ZM14.58 14.52C15.34 13.8 15.9 12.96 16.26 12C16.66 11.04 16.86 10.04 16.86 9C16.86 7.56 16.5 6.24 15.78 5.04C15.1 3.84 14.16 2.9 12.96 2.22C11.76 1.5 10.44 1.14 9 1.14C7.56 1.14 6.24 1.5 5.04 2.22C3.84 2.9 2.88 3.84 2.16 5.04C1.48 6.24 1.14 7.56 1.14 9C1.14 10.04 1.34 11.04 1.74 12C2.14 12.96 2.7 13.8 3.42 14.52V14.46C3.62 13.86 3.88 13.32 4.2 12.84C4.56 12.36 4.98 11.94 5.46 11.58C5.82 11.3 6.2 11.08 6.6 10.92C6.4 10.76 6.22 10.6 6.06 10.44C5.74 10.12 5.5 9.82 5.34 9.54C5.18 9.26 5.04 8.94 4.92 8.58C4.8 8.18 4.74 7.78 4.74 7.38C4.74 6.82 4.84 6.28 5.04 5.76C5.28 5.24 5.58 4.78 5.94 4.38C6.34 3.98 6.8 3.68 7.32 3.48C7.84 3.28 8.38 3.18 8.94 3.18C9.54 3.18 10.1 3.28 10.62 3.48C11.14 3.68 11.6 3.98 12 4.38C12.4 4.78 12.7 5.24 12.9 5.76C13.14 6.28 13.24 6.82 13.2 7.38C13.24 8.18 13.06 8.9 12.66 9.54C12.46 9.86 12.22 10.16 11.94 10.44C11.78 10.6 11.6 10.74 11.4 10.86C11.84 11.06 12.24 11.3 12.6 11.58C13.08 11.94 13.48 12.36 13.8 12.84C14.16 13.32 14.42 13.84 14.58 14.4V14.46C14.58 14.5 14.58 14.52 14.58 14.52Z"/></svg>
			<svg x="824" y="94" width="16" height="16" viewBox="0 0 16 16" xmlns="http://www.w3.org/2000/svg" fill="var(--vscode-foreground)"><path d="M5.5 3.90753C3.53768 4.07098 2 5.59302 2 7.44649C2 9.40902 3.72397 11 5.8506 11C5.90063 11 5.95043 10.9991 6 10.9973V11H12.4429L10.4428 13L11.1499 13.7071L14.0035 10.8536V10.1465L11.15 7.2929L10.4429 8.00001L12.4429 10H6V9.99663C5.95063 9.99885 5.90082 9.99997 5.8506 9.99997C4.19913 9.99997 3 8.78265 3 7.44649C3 6.20686 4.03212 5.06953 5.5 4.91165V3.90753Z"/></svg>
		</g>
		<g class="row">
			<rect x="0" y="120" width="100%" height="34" class="row-box" />
			<text x="88" y="143" fill="var(--vscode-foreground)" font-size="18">
				<tspan fill="var(--vscode-problemsWarningIcon-foreground)">3wk</tspan>
				<tspan dx="29">Adds experimental.OpenAIModel</tspan>
				<tspan text-decoration="underline" fill=" var(--vscode-textLink-foreground)">#2637</tspan>
			</text>
			<svg x="13" y="129" width="16" height="18" viewBox="0 0 16 18" xmlns="http://www.w3.org/2000/svg" fill="var(--vscode-foreground)"><path d="M5.3 4.52C4.98 5 4.56 5.36 4.04 5.6L3.56 5.72V11.36C4.32 11.52 4.9 11.92 5.3 12.56C5.62 13.04 5.78 13.56 5.78 14.12C5.78 14.52 5.72 14.9 5.6 15.26C5.36 15.78 5 16.2 4.52 16.52C4.04 16.84 3.5 17 2.9 17C2.34 17 1.82 16.84 1.34 16.52C0.9 16.2 0.56 15.78 0.32 15.26C0.12 14.74 0.06 14.2 0.14 13.64C0.26 13.08 0.52 12.6 0.92 12.2C1.32 11.8 1.8 11.54 2.36 11.42V5.72C1.8 5.6 1.32 5.34 0.92 4.94C0.52 4.54 0.26 4.06 0.14 3.5C0.06 2.94 0.12 2.4 0.32 1.88C0.56 1.36 0.9 0.94 1.34 0.62C1.82 0.3 2.36 0.14 2.96 0.14C3.72 0.1 4.38 0.36 4.94 0.919999C5.54 1.48 5.82 2.16 5.78 2.96C5.78 3.56 5.62 4.08 5.3 4.52ZM4.46 13.4C4.3 13.12 4.08 12.9 3.8 12.74C3.56 12.58 3.28 12.5 2.96 12.5C2.44 12.5 2 12.72 1.64 13.16C1.32 13.56 1.22 14.02 1.34 14.54C1.38 14.86 1.52 15.14 1.76 15.38C2.04 15.62 2.34 15.78 2.66 15.86C2.98 15.9 3.3 15.86 3.62 15.74C3.94 15.62 4.18 15.42 4.34 15.14C4.54 14.86 4.64 14.58 4.64 14.3C4.68 13.98 4.62 13.68 4.46 13.4ZM2.06 4.34C2.34 4.54 2.64 4.64 2.96 4.64C3.28 4.64 3.56 4.56 3.8 4.4C4.08 4.24 4.3 4.02 4.46 3.74C4.62 3.46 4.68 3.16 4.64 2.84C4.64 2.52 4.54 2.24 4.34 2C4.18 1.72 3.94 1.52 3.62 1.4C3.3 1.24 2.96 1.2 2.6 1.28C2.28 1.36 2 1.52 1.76 1.76C1.52 2 1.36 2.28 1.28 2.6C1.24 2.92 1.28 3.24 1.4 3.56C1.56 3.88 1.78 4.14 2.06 4.34ZM13.64 11.42C14.2 11.54 14.68 11.8 15.08 12.2C15.64 12.76 15.92 13.42 15.92 14.18C15.92 14.74 15.76 15.26 15.44 15.74C15.12 16.22 14.7 16.58 14.18 16.82C13.66 17.02 13.12 17.06 12.56 16.94C12 16.82 11.52 16.56 11.12 16.16C10.72 15.76 10.46 15.28 10.34 14.72C10.22 14.16 10.26 13.62 10.46 13.1C10.7 12.58 11.06 12.16 11.54 11.84C11.86 11.64 12.2 11.5 12.56 11.42V5.18C12.56 4.7 12.38 4.3 12.02 3.98C11.7 3.66 11.32 3.5 10.88 3.5H8.78L10.22 4.94L9.38 5.72L6.98 3.32V2.54L9.38 0.14L10.22 0.919999L8.78 2.36H10.88C11.44 2.36 11.96 2.52 12.44 2.84C12.92 3.16 13.26 3.58 13.46 4.1C13.62 4.46 13.68 4.82 13.64 5.18V11.42ZM14.3 15.38C14.58 15.1 14.74 14.76 14.78 14.36C14.82 13.96 14.74 13.6 14.54 13.28C14.34 12.96 14.08 12.74 13.76 12.62C13.44 12.5 13.1 12.48 12.74 12.56C12.42 12.6 12.14 12.74 11.9 12.98C11.66 13.22 11.5 13.52 11.42 13.88C11.38 14.2 11.42 14.5 11.54 14.78C11.66 15.06 11.82 15.3 12.02 15.5C12.26 15.66 12.5 15.78 12.74 15.86C13.02 15.9 13.3 15.88 13.58 15.8C13.86 15.72 14.1 15.58 14.3 15.38Z"/></svg>
			<svg x="38" y="129" width="15" height="15" viewBox="0 0 15 15" xmlns="http://www.w3.org/2000/svg" fill="var(--vscode-problemsErrorIcon-foreground)"><path d="M4.78 1.36H4.66C4.42 1.36 4.2 1.4 4 1.48C3.8 1.56 3.62 1.68 3.46 1.84C3.34 2 3.24 2.18 3.16 2.38C3.08 2.58 3.04 2.8 3.04 3.04V4.54C3.04 4.78 3.02 5.02 2.98 5.26C2.94 5.5 2.88 5.74 2.8 5.98C2.72 6.18 2.6 6.36 2.44 6.52C2.32 6.68 2.16 6.84 1.96 7C2.16 7.16 2.32 7.32 2.44 7.48C2.6 7.64 2.72 7.84 2.8 8.08C2.88 8.28 2.94 8.5 2.98 8.74C3.02 8.98 3.04 9.22 3.04 9.46V10.96C3.04 11.2 3.08 11.42 3.16 11.62C3.24 11.82 3.34 12 3.46 12.16C3.62 12.32 3.8 12.44 4 12.52C4.2 12.6 4.42 12.64 4.66 12.64H4.78V13.72H4.66C4.3 13.72 3.96 13.66 3.64 13.54C3.32 13.42 3.02 13.24 2.74 13C2.5 12.72 2.32 12.42 2.2 12.1C2.08 11.78 2 11.48 1.96 11.2V11.14C1.92 10.82 1.92 10.5 1.96 10.18V9.22C1.96 8.98 1.92 8.76 1.84 8.56C1.76 8.36 1.64 8.2 1.48 8.08V8.02C1.36 7.9 1.2 7.8 1 7.72C0.8 7.6 0.58 7.54 0.34 7.54H0.28V6.46H0.34C0.58 6.46 0.8 6.42 1 6.34C1.2 6.22 1.36 6.1 1.48 5.98C1.64 5.82 1.76 5.64 1.84 5.44C1.92 5.24 1.96 5.02 1.96 4.78V3.82C1.92 3.5 1.92 3.18 1.96 2.86C2 2.54 2.08 2.22 2.2 1.9C2.32 1.58 2.5 1.3 2.74 1.06C3.02 0.779999 3.32 0.58 3.64 0.46C3.96 0.3 4.3 0.22 4.66 0.22H4.78V1.36ZM13.66 7.54H13.78V6.46H13.66C13.42 6.46 13.2 6.4 13 6.28C12.8 6.2 12.64 6.1 12.52 5.98V5.92C12.36 5.8 12.24 5.64 12.16 5.44C12.08 5.24 12.04 5.02 12.04 4.78V3.82C12.08 3.5 12.08 3.18 12.04 2.86V2.8C12 2.52 11.92 2.22 11.8 1.9C11.68 1.58 11.48 1.3 11.2 1.06C10.96 0.779999 10.68 0.58 10.36 0.46C10.04 0.3 9.7 0.22 9.34 0.22H9.28V1.36H9.34C9.58 1.36 9.8 1.4 10 1.48C10.2 1.56 10.36 1.68 10.48 1.84C10.64 2 10.76 2.18 10.84 2.38C10.92 2.58 10.96 2.8 10.96 3.04V4.54C10.96 4.78 10.98 5.02 11.02 5.26C11.06 5.5 11.12 5.74 11.2 5.98C11.28 6.18 11.38 6.36 11.5 6.52C11.66 6.68 11.84 6.84 12.04 7H11.98C12.58 7.08 13.14 7.26 13.66 7.54ZM9.64 8.68C10.2 8.32 10.82 8.14 11.5 8.14C12.42 8.14 13.2 8.48 13.84 9.16C14.52 9.8 14.86 10.58 14.86 11.5C14.86 12.18 14.66 12.8 14.26 13.36C13.9 13.92 13.4 14.34 12.76 14.62C12.16 14.86 11.52 14.92 10.84 14.8C10.16 14.68 9.58 14.38 9.1 13.9C8.62 13.42 8.32 12.84 8.2 12.16C8.08 11.48 8.14 10.84 8.38 10.24C8.66 9.6 9.08 9.08 9.64 8.68ZM12.76 9.4L11.5 10.72L10.24 9.4L9.4 10.24L10.72 11.5L9.4 12.76L10.24 13.6L11.5 12.28L12.76 13.6L13.6 12.76L12.28 11.5L13.6 10.24L12.76 9.4Z"/></svg>
			<svg x="625" y="126" width="18" height="18" viewBox="0 0 18 18" xmlns="http://www.w3.org/2000/svg" fill="var(--vscode-foreground)"><path d="M18 9C18 10.32 17.72 11.58 17.16 12.78C16.6 13.98 15.84 15 14.88 15.84L14.04 16.44C12.52 17.48 10.84 18 9 18C7.16 18 5.48 17.48 3.96 16.44L3.18 15.84C2.18 15 1.4 13.98 0.84 12.78C0.28 11.58 0 10.32 0 9C0 7.36 0.4 5.86 1.2 4.5C2 3.1 3.08 2 4.44 1.2C5.84 0.4 7.36 0 9 0C10.64 0 12.14 0.4 13.5 1.2C14.9 2 16 3.1 16.8 4.5C17.6 5.86 18 7.36 18 9ZM9 16.86C10.68 16.86 12.2 16.38 13.56 15.42C13.48 15.06 13.38 14.72 13.26 14.4C13.02 13.84 12.68 13.36 12.24 12.96C11.84 12.52 11.34 12.2 10.74 12C10.18 11.76 9.6 11.64 9 11.64C8.6 11.64 8.18 11.7 7.74 11.82C7.34 11.9 6.98 12.04 6.66 12.24C6.34 12.44 6.04 12.68 5.76 12.96C5.48 13.24 5.24 13.56 5.04 13.92C4.84 14.24 4.68 14.6 4.56 15L4.5 15.42C5.86 16.38 7.36 16.86 9 16.86ZM6.24 8.52C6.4 8.88 6.62 9.2 6.9 9.48C7.18 9.76 7.48 9.98 7.8 10.14C8.6 10.46 9.38 10.46 10.14 10.14C10.5 9.98 10.82 9.76 11.1 9.48C11.38 9.2 11.6 8.9 11.76 8.58C11.92 8.22 12 7.84 12 7.44C12 7 11.92 6.6 11.76 6.24C11.6 5.88 11.38 5.56 11.1 5.28C10.82 5 10.5 4.78 10.14 4.62C9.82 4.46 9.44 4.38 9 4.38C8.56 4.38 8.16 4.48 7.8 4.68C7.44 4.84 7.12 5.06 6.84 5.34C6.6 5.58 6.4 5.88 6.24 6.24C6.08 6.6 6 6.98 6 7.38C6 7.78 6.08 8.16 6.24 8.52ZM14.58 14.52C15.34 13.8 15.9 12.96 16.26 12C16.66 11.04 16.86 10.04 16.86 9C16.86 7.56 16.5 6.24 15.78 5.04C15.1 3.84 14.16 2.9 12.96 2.22C11.76 1.5 10.44 1.14 9 1.14C7.56 1.14 6.24 1.5 5.04 2.22C3.84 2.9 2.88 3.84 2.16 5.04C1.48 6.24 1.14 7.56 1.14 9C1.14 10.04 1.34 11.04 1.74 12C2.14 12.96 2.7 13.8 3.42 14.52V14.46C3.62 13.86 3.88 13.32 4.2 12.84C4.56 12.36 4.98 11.94 5.46 11.58C5.82 11.3 6.2 11.08 6.6 10.92C6.4 10.76 6.22 10.6 6.06 10.44C5.74 10.12 5.5 9.82 5.34 9.54C5.18 9.26 5.04 8.94 4.92 8.58C4.8 8.18 4.74 7.78 4.74 7.38C4.74 6.82 4.84 6.28 5.04 5.76C5.28 5.24 5.58 4.78 5.94 4.38C6.34 3.98 6.8 3.68 7.32 3.48C7.84 3.28 8.38 3.18 8.94 3.18C9.54 3.18 10.1 3.28 10.62 3.48C11.14 3.68 11.6 3.98 12 4.38C12.4 4.78 12.7 5.24 12.9 5.76C13.14 6.28 13.24 6.82 13.2 7.38C13.24 8.18 13.06 8.9 12.66 9.54C12.46 9.86 12.22 10.16 11.94 10.44C11.78 10.6 11.6 10.74 11.4 10.86C11.84 11.06 12.24 11.3 12.6 11.58C13.08 11.94 13.48 12.36 13.8 12.84C14.16 13.32 14.42 13.84 14.58 14.4V14.46C14.58 14.5 14.58 14.52 14.58 14.52Z"/></svg>
			<svg x="824" y="128" width="16" height="16" viewBox="0 0 16 16" xmlns="http://www.w3.org/2000/svg" fill="var(--vscode-foreground)"><path d="M5.5 3.90753C3.53768 4.07098 2 5.59302 2 7.44649C2 9.40902 3.72397 11 5.8506 11C5.90063 11 5.95043 10.9991 6 10.9973V11H12.4429L10.4428 13L11.1499 13.7071L14.0035 10.8536V10.1465L11.15 7.2929L10.4429 8.00001L12.4429 10H6V9.99663C5.95063 9.99885 5.90082 9.99997 5.8506 9.99997C4.19913 9.99997 3 8.78265 3 7.44649C3 6.20686 4.03212 5.06953 5.5 4.91165V3.90753Z"/></svg>
		</g>
		<g class="row">
			<rect x="0" y="154" width="100%" height="34" class="row-box" />
			<text x="88" y="177" fill="var(--vscode-foreground)" font-size="18">
				<tspan fill="var(--vscode-problemsErrorIcon-foreground)">2mo</tspan>
				<tspan dx="29">adds focus view</tspan>
				<tspan text-decoration="underline" fill=" var(--vscode-textLink-foreground)">#2516</tspan>
			</text>
			<svg x="13" y="162" width="16" height="18" viewBox="0 0 16 18" xmlns="http://www.w3.org/2000/svg" fill="var(--vscode-foreground)"><path d="M5.3 4.52C4.98 5 4.56 5.36 4.04 5.6L3.56 5.72V11.36C4.32 11.52 4.9 11.92 5.3 12.56C5.62 13.04 5.78 13.56 5.78 14.12C5.78 14.52 5.72 14.9 5.6 15.26C5.36 15.78 5 16.2 4.52 16.52C4.04 16.84 3.5 17 2.9 17C2.34 17 1.82 16.84 1.34 16.52C0.9 16.2 0.56 15.78 0.32 15.26C0.12 14.74 0.06 14.2 0.14 13.64C0.26 13.08 0.52 12.6 0.92 12.2C1.32 11.8 1.8 11.54 2.36 11.42V5.72C1.8 5.6 1.32 5.34 0.92 4.94C0.52 4.54 0.26 4.06 0.14 3.5C0.06 2.94 0.12 2.4 0.32 1.88C0.56 1.36 0.9 0.94 1.34 0.62C1.82 0.3 2.36 0.14 2.96 0.14C3.72 0.1 4.38 0.36 4.94 0.919999C5.54 1.48 5.82 2.16 5.78 2.96C5.78 3.56 5.62 4.08 5.3 4.52ZM4.46 13.4C4.3 13.12 4.08 12.9 3.8 12.74C3.56 12.58 3.28 12.5 2.96 12.5C2.44 12.5 2 12.72 1.64 13.16C1.32 13.56 1.22 14.02 1.34 14.54C1.38 14.86 1.52 15.14 1.76 15.38C2.04 15.62 2.34 15.78 2.66 15.86C2.98 15.9 3.3 15.86 3.62 15.74C3.94 15.62 4.18 15.42 4.34 15.14C4.54 14.86 4.64 14.58 4.64 14.3C4.68 13.98 4.62 13.68 4.46 13.4ZM2.06 4.34C2.34 4.54 2.64 4.64 2.96 4.64C3.28 4.64 3.56 4.56 3.8 4.4C4.08 4.24 4.3 4.02 4.46 3.74C4.62 3.46 4.68 3.16 4.64 2.84C4.64 2.52 4.54 2.24 4.34 2C4.18 1.72 3.94 1.52 3.62 1.4C3.3 1.24 2.96 1.2 2.6 1.28C2.28 1.36 2 1.52 1.76 1.76C1.52 2 1.36 2.28 1.28 2.6C1.24 2.92 1.28 3.24 1.4 3.56C1.56 3.88 1.78 4.14 2.06 4.34ZM13.64 11.42C14.2 11.54 14.68 11.8 15.08 12.2C15.64 12.76 15.92 13.42 15.92 14.18C15.92 14.74 15.76 15.26 15.44 15.74C15.12 16.22 14.7 16.58 14.18 16.82C13.66 17.02 13.12 17.06 12.56 16.94C12 16.82 11.52 16.56 11.12 16.16C10.72 15.76 10.46 15.28 10.34 14.72C10.22 14.16 10.26 13.62 10.46 13.1C10.7 12.58 11.06 12.16 11.54 11.84C11.86 11.64 12.2 11.5 12.56 11.42V5.18C12.56 4.7 12.38 4.3 12.02 3.98C11.7 3.66 11.32 3.5 10.88 3.5H8.78L10.22 4.94L9.38 5.72L6.98 3.32V2.54L9.38 0.14L10.22 0.919999L8.78 2.36H10.88C11.44 2.36 11.96 2.52 12.44 2.84C12.92 3.16 13.26 3.58 13.46 4.1C13.62 4.46 13.68 4.82 13.64 5.18V11.42ZM14.3 15.38C14.58 15.1 14.74 14.76 14.78 14.36C14.82 13.96 14.74 13.6 14.54 13.28C14.34 12.96 14.08 12.74 13.76 12.62C13.44 12.5 13.1 12.48 12.74 12.56C12.42 12.6 12.14 12.74 11.9 12.98C11.66 13.22 11.5 13.52 11.42 13.88C11.38 14.2 11.42 14.5 11.54 14.78C11.66 15.06 11.82 15.3 12.02 15.5C12.26 15.66 12.5 15.78 12.74 15.86C13.02 15.9 13.3 15.88 13.58 15.8C13.86 15.72 14.1 15.58 14.3 15.38Z"/></svg>
			<svg x="625" y="160" width="18" height="18" viewBox="0 0 18 18" xmlns="http://www.w3.org/2000/svg" fill="var(--vscode-foreground)"><path d="M18 9C18 10.32 17.72 11.58 17.16 12.78C16.6 13.98 15.84 15 14.88 15.84L14.04 16.44C12.52 17.48 10.84 18 9 18C7.16 18 5.48 17.48 3.96 16.44L3.18 15.84C2.18 15 1.4 13.98 0.84 12.78C0.28 11.58 0 10.32 0 9C0 7.36 0.4 5.86 1.2 4.5C2 3.1 3.08 2 4.44 1.2C5.84 0.4 7.36 0 9 0C10.64 0 12.14 0.4 13.5 1.2C14.9 2 16 3.1 16.8 4.5C17.6 5.86 18 7.36 18 9ZM9 16.86C10.68 16.86 12.2 16.38 13.56 15.42C13.48 15.06 13.38 14.72 13.26 14.4C13.02 13.84 12.68 13.36 12.24 12.96C11.84 12.52 11.34 12.2 10.74 12C10.18 11.76 9.6 11.64 9 11.64C8.6 11.64 8.18 11.7 7.74 11.82C7.34 11.9 6.98 12.04 6.66 12.24C6.34 12.44 6.04 12.68 5.76 12.96C5.48 13.24 5.24 13.56 5.04 13.92C4.84 14.24 4.68 14.6 4.56 15L4.5 15.42C5.86 16.38 7.36 16.86 9 16.86ZM6.24 8.52C6.4 8.88 6.62 9.2 6.9 9.48C7.18 9.76 7.48 9.98 7.8 10.14C8.6 10.46 9.38 10.46 10.14 10.14C10.5 9.98 10.82 9.76 11.1 9.48C11.38 9.2 11.6 8.9 11.76 8.58C11.92 8.22 12 7.84 12 7.44C12 7 11.92 6.6 11.76 6.24C11.6 5.88 11.38 5.56 11.1 5.28C10.82 5 10.5 4.78 10.14 4.62C9.82 4.46 9.44 4.38 9 4.38C8.56 4.38 8.16 4.48 7.8 4.68C7.44 4.84 7.12 5.06 6.84 5.34C6.6 5.58 6.4 5.88 6.24 6.24C6.08 6.6 6 6.98 6 7.38C6 7.78 6.08 8.16 6.24 8.52ZM14.58 14.52C15.34 13.8 15.9 12.96 16.26 12C16.66 11.04 16.86 10.04 16.86 9C16.86 7.56 16.5 6.24 15.78 5.04C15.1 3.84 14.16 2.9 12.96 2.22C11.76 1.5 10.44 1.14 9 1.14C7.56 1.14 6.24 1.5 5.04 2.22C3.84 2.9 2.88 3.84 2.16 5.04C1.48 6.24 1.14 7.56 1.14 9C1.14 10.04 1.34 11.04 1.74 12C2.14 12.96 2.7 13.8 3.42 14.52V14.46C3.62 13.86 3.88 13.32 4.2 12.84C4.56 12.36 4.98 11.94 5.46 11.58C5.82 11.3 6.2 11.08 6.6 10.92C6.4 10.76 6.22 10.6 6.06 10.44C5.74 10.12 5.5 9.82 5.34 9.54C5.18 9.26 5.04 8.94 4.92 8.58C4.8 8.18 4.74 7.78 4.74 7.38C4.74 6.82 4.84 6.28 5.04 5.76C5.28 5.24 5.58 4.78 5.94 4.38C6.34 3.98 6.8 3.68 7.32 3.48C7.84 3.28 8.38 3.18 8.94 3.18C9.54 3.18 10.1 3.28 10.62 3.48C11.14 3.68 11.6 3.98 12 4.38C12.4 4.78 12.7 5.24 12.9 5.76C13.14 6.28 13.24 6.82 13.2 7.38C13.24 8.18 13.06 8.9 12.66 9.54C12.46 9.86 12.22 10.16 11.94 10.44C11.78 10.6 11.6 10.74 11.4 10.86C11.84 11.06 12.24 11.3 12.6 11.58C13.08 11.94 13.48 12.36 13.8 12.84C14.16 13.32 14.42 13.84 14.58 14.4V14.46C14.58 14.5 14.58 14.52 14.58 14.52Z"/></svg>
			<svg x="824" y="162" width="16" height="16" viewBox="0 0 16 16" xmlns="http://www.w3.org/2000/svg" fill="var(--vscode-foreground)"><path d="M5.5 3.90753C3.53768 4.07098 2 5.59302 2 7.44649C2 9.40902 3.72397 11 5.8506 11C5.90063 11 5.95043 10.9991 6 10.9973V11H12.4429L10.4428 13L11.1499 13.7071L14.0035 10.8536V10.1465L11.15 7.2929L10.4429 8.00001L12.4429 10H6V9.99663C5.95063 9.99885 5.90082 9.99997 5.8506 9.99997C4.19913 9.99997 3 8.78265 3 7.44649C3 6.20686 4.03212 5.06953 5.5 4.91165V3.90753Z"/></svg>
		</g>
		<text y="75" font-size="18">
			<tspan x="688" fill="var(--vscode-gitDecoration-addedResourceForeground)">+1735</tspan>
			<tspan dx="2" fill="var(--vscode-gitDecoration-deletedResourceForeground)">-748</tspan>
			<tspan x="688" dy="34" fill="var(--vscode-gitDecoration-addedResourceForeground)">+3,556</tspan>
			<tspan dx="2" fill="var(--vscode-gitDecoration-deletedResourceForeground)">-136</tspan>
			<tspan x="688" dy="34" fill="var(--vscode-gitDecoration-addedResourceForeground)">+79</tspan>
			<tspan dx="2" fill="var(--vscode-gitDecoration-deletedResourceForeground)">-12</tspan>
			<tspan x="688" dy="34" fill="var(--vscode-gitDecoration-addedResourceForeground)">+3,327</tspan>
			<tspan dx="2" fill="var(--vscode-gitDecoration-deletedResourceForeground)">-28</tspan>
		</text>
		<g>
			<text x="10" y="232" class="heading" fill="var(--vscode-foreground)" font-weight="600" font-size="20">
				<tspan>My Issues</tspan>
			</text>
			<text x="100%" y="232.5" class="tabs" text-anchor="end" fill="var(--vscode-foreground)" font-size="16" opacity="0.8">
				<tspan text-decoration="underline" dx="-10">All</tspan>
				<tspan text-decoration="underline" dx="6">Opened by me</tspan>
				<tspan text-decoration="underline" dx="6">Assigned to me</tspan>
				<tspan text-decoration="underline" dx="6">Mentions me</tspan>
			</text>
		</g>
		<g class="row">
			<rect x="0" y="255" width="100%" height="30" class="row-box" />
			<text x="88" y="278" fill="var(--vscode-foreground)" font-size="18">
				<tspan fill="var(--vscode-problemsErrorIcon-foreground)">2mo</tspan>
				<tspan dx="30">Labs: add AI explain panel to Commit Details</tspan>
				<tspan text-decoration="underline" fill=" var(--vscode-textLink-foreground)">#2628</tspan>
			</text>
			<svg x="13" y="263" width="16" height="16" viewBox="0 0 16 16" xmlns="http://www.w3.org/2000/svg" fill="var(--vscode-foreground)"><path d="M8.46 0.14C9.42 0.14 10.34 0.32 11.22 0.679999C12.14 1.04 12.94 1.58 13.62 2.3C14.3 2.98 14.82 3.76 15.18 4.64C15.58 5.52 15.76 6.46 15.72 7.46C15.76 8.94 15.36 10.3 14.52 11.54C13.68 12.74 12.58 13.62 11.22 14.18C9.86 14.74 8.46 14.88 7.02 14.6C5.58 14.32 4.32 13.66 3.24 12.62C2.2 11.58 1.54 10.34 1.26 8.9C0.98 7.42 1.12 6 1.68 4.64C2.24 3.28 3.14 2.2 4.38 1.4C5.62 0.56 6.98 0.14 8.46 0.14ZM8.46 13.64C9.26 13.64 10.04 13.48 10.8 13.16C11.56 12.84 12.22 12.4 12.78 11.84C13.38 11.24 13.84 10.56 14.16 9.8C14.48 9.04 14.64 8.26 14.64 7.46C14.64 6.18 14.28 5.02 13.56 3.98C12.88 2.94 11.96 2.18 10.8 1.7C9.64 1.22 8.44 1.12 7.2 1.4C6 1.64 4.96 2.2 4.08 3.08C3.2 3.96 2.62 5.02 2.34 6.26C2.1 7.46 2.22 8.64 2.7 9.8C3.18 10.96 3.94 11.9 4.98 12.62C6.02 13.3 7.18 13.64 8.46 13.64ZM7.32 7.46C7.32 7.14 7.42 6.88 7.62 6.68C7.86 6.44 8.12 6.32 8.4 6.32C8.72 6.32 8.98 6.44 9.18 6.68C9.42 6.88 9.54 7.14 9.54 7.46C9.54 7.74 9.42 8 9.18 8.24C8.98 8.44 8.72 8.54 8.4 8.54C8.12 8.54 7.86 8.44 7.62 8.24C7.42 8 7.32 7.74 7.32 7.46Z"/></svg>
			<svg x="790" y="263" width="18" height="18" viewBox="0 0 18 18" xmlns="http://www.w3.org/2000/svg" fill="var(--vscode-foreground)"><path d="M18 9C18 10.32 17.72 11.58 17.16 12.78C16.6 13.98 15.84 15 14.88 15.84L14.04 16.44C12.52 17.48 10.84 18 9 18C7.16 18 5.48 17.48 3.96 16.44L3.18 15.84C2.18 15 1.4 13.98 0.84 12.78C0.28 11.58 0 10.32 0 9C0 7.36 0.4 5.86 1.2 4.5C2 3.1 3.08 2 4.44 1.2C5.84 0.4 7.36 0 9 0C10.64 0 12.14 0.4 13.5 1.2C14.9 2 16 3.1 16.8 4.5C17.6 5.86 18 7.36 18 9ZM9 16.86C10.68 16.86 12.2 16.38 13.56 15.42C13.48 15.06 13.38 14.72 13.26 14.4C13.02 13.84 12.68 13.36 12.24 12.96C11.84 12.52 11.34 12.2 10.74 12C10.18 11.76 9.6 11.64 9 11.64C8.6 11.64 8.18 11.7 7.74 11.82C7.34 11.9 6.98 12.04 6.66 12.24C6.34 12.44 6.04 12.68 5.76 12.96C5.48 13.24 5.24 13.56 5.04 13.92C4.84 14.24 4.68 14.6 4.56 15L4.5 15.42C5.86 16.38 7.36 16.86 9 16.86ZM6.24 8.52C6.4 8.88 6.62 9.2 6.9 9.48C7.18 9.76 7.48 9.98 7.8 10.14C8.6 10.46 9.38 10.46 10.14 10.14C10.5 9.98 10.82 9.76 11.1 9.48C11.38 9.2 11.6 8.9 11.76 8.58C11.92 8.22 12 7.84 12 7.44C12 7 11.92 6.6 11.76 6.24C11.6 5.88 11.38 5.56 11.1 5.28C10.82 5 10.5 4.78 10.14 4.62C9.82 4.46 9.44 4.38 9 4.38C8.56 4.38 8.16 4.48 7.8 4.68C7.44 4.84 7.12 5.06 6.84 5.34C6.6 5.58 6.4 5.88 6.24 6.24C6.08 6.6 6 6.98 6 7.38C6 7.78 6.08 8.16 6.24 8.52ZM14.58 14.52C15.34 13.8 15.9 12.96 16.26 12C16.66 11.04 16.86 10.04 16.86 9C16.86 7.56 16.5 6.24 15.78 5.04C15.1 3.84 14.16 2.9 12.96 2.22C11.76 1.5 10.44 1.14 9 1.14C7.56 1.14 6.24 1.5 5.04 2.22C3.84 2.9 2.88 3.84 2.16 5.04C1.48 6.24 1.14 7.56 1.14 9C1.14 10.04 1.34 11.04 1.74 12C2.14 12.96 2.7 13.8 3.42 14.52V14.46C3.62 13.86 3.88 13.32 4.2 12.84C4.56 12.36 4.98 11.94 5.46 11.58C5.82 11.3 6.2 11.08 6.6 10.92C6.4 10.76 6.22 10.6 6.06 10.44C5.74 10.12 5.5 9.82 5.34 9.54C5.18 9.26 5.04 8.94 4.92 8.58C4.8 8.18 4.74 7.78 4.74 7.38C4.74 6.82 4.84 6.28 5.04 5.76C5.28 5.24 5.58 4.78 5.94 4.38C6.34 3.98 6.8 3.68 7.32 3.48C7.84 3.28 8.38 3.18 8.94 3.18C9.54 3.18 10.1 3.28 10.62 3.48C11.14 3.68 11.6 3.98 12 4.38C12.4 4.78 12.7 5.24 12.9 5.76C13.14 6.28 13.24 6.82 13.2 7.38C13.24 8.18 13.06 8.9 12.66 9.54C12.46 9.86 12.22 10.16 11.94 10.44C11.78 10.6 11.6 10.74 11.4 10.86C11.84 11.06 12.24 11.3 12.6 11.58C13.08 11.94 13.48 12.36 13.8 12.84C14.16 13.32 14.42 13.84 14.58 14.4V14.46C14.58 14.5 14.58 14.52 14.58 14.52Z"/></svg>
			<svg x="824" y="265" width="15" height="15" viewBox="0 0 15 15" xmlns="http://www.w3.org/2000/svg" fill="var(--vscode-foreground)"><path d="M7.54 0.14C8.86 0.14 10.08 0.48 11.2 1.16C12.32 1.8 13.2 2.68 13.84 3.8C14.52 4.92 14.86 6.14 14.86 7.46C14.86 8.78 14.52 10 13.84 11.12C13.2 12.24 12.32 13.12 11.2 13.76C10.08 14.4 8.86 14.72 7.54 14.72C6.22 14.72 5 14.4 3.88 13.76C2.76 13.12 1.86 12.24 1.18 11.12C0.54 10 0.22 8.78 0.22 7.46C0.22 6.14 0.54 4.92 1.18 3.8C1.86 2.68 2.76 1.8 3.88 1.16C5 0.48 6.22 0.14 7.54 0.14ZM13.06 4.64C12.7 3.92 12.22 3.3 11.62 2.78C11.02 2.26 10.36 1.88 9.64 1.64C10.12 2.56 10.48 3.56 10.72 4.64H13.06ZM13.72 8C13.76 7.8 13.78 7.62 13.78 7.46C13.74 6.86 13.66 6.3 13.54 5.78H10.9C10.94 6.18 10.96 6.54 10.96 6.86C10.96 7.62 10.88 8.38 10.72 9.14H13.54C13.62 8.78 13.68 8.4 13.72 8ZM9.76 8V7.94C9.8 7.58 9.82 7.22 9.82 6.86C9.82 6.5 9.78 6.14 9.7 5.78H5.38C5.34 6.14 5.32 6.5 5.32 6.86C5.32 7.62 5.4 8.38 5.56 9.14H9.58C9.66 8.74 9.72 8.36 9.76 8ZM9.52 4.64C9.24 3.44 8.78 2.32 8.14 1.28H7.54H7C6.32 2.32 5.86 3.44 5.62 4.64H9.52ZM4.42 4.64C4.62 3.56 4.98 2.54 5.5 1.58C4.74 1.86 4.06 2.26 3.46 2.78C2.9 3.3 2.44 3.92 2.08 4.64H4.42ZM1.6 5.72C1.44 6.28 1.36 6.86 1.36 7.46C1.36 8.02 1.44 8.58 1.6 9.14H4.42C4.26 8.38 4.18 7.62 4.18 6.86C4.18 6.54 4.2 6.18 4.24 5.78H1.6V5.72ZM4.72 10.22H2.08C2.48 11.1 3.06 11.82 3.82 12.38C4.58 12.94 5.42 13.32 6.34 13.52C5.62 12.52 5.08 11.44 4.72 10.28V10.22ZM7.54 13.22C8.26 12.34 8.82 11.36 9.22 10.28H5.92C6.28 11.36 6.82 12.34 7.54 13.22ZM10.42 10.22C10.06 11.42 9.52 12.52 8.8 13.52C9.72 13.32 10.54 12.94 11.26 12.38C12.02 11.82 12.62 11.1 13.06 10.22H10.42Z"/></svg>
		</g>
	</svg>
	<svg x="0" y="310" width="850" height="290" viewBox="0 0 850 290" fill="none" xmlns="http://www.w3.org/2000/svg" class="svg">
		<rect x="0" y="0" width="100%" height="290" stroke-width="1" stroke="var(--vscode-editorWidget-border)" fill="var(--vscode-sideBarSectionHeader-background)" />
		<g>
			<rect x="0" y="0" width="100%" height="44" class="header-box" style="fill: var(--vscode-sideBarSectionHeader-background);" />
			<text x="38" y="28" class="header" fill="var(--vscode-foreground)" font-size="18" font-weight="700">
				<tspan>GITKRAKEN WORKSPACES</tspan>
			</text>
			<svg x="13" y="21" width="12" height="7" viewBox="0 0 12 7" xmlns="http://www.w3.org/2000/svg" fill="var(--vscode-foreground)"><path d="M6 5.34L10.86 0.419999L11.58 1.14L6.3 6.36H5.64L0.36 1.14L1.08 0.419999L6 5.34Z"/></svg>

		</g>
		<g class="row">
			<rect x="0" y="45" width="100%" height="44" class="row-box-selected" fill="var(--vscode-list-activeSelectionBackground)" stroke="var(--vscode-list-focusOutline)" stroke-width="1" />
			<text x="111" y="71" font-size="18" fill="var(--vscode-list-activeSelectionForeground)">
				<tspan>Client apps</tspan>
			</text>
			<svg x="822" y="59" width="17" height="16" viewBox="0 0 17 16" xmlns="http://www.w3.org/2000/svg" fill="var(--vscode-list-activeSelectionForeground)"><path d="M4.5 3.5H7.86V4.64H4.5V8H3.36V4.64H0V3.5H3.36V0.14H4.5V3.5ZM1.14 15.32V9.14H2.28V14.72H15.78V6.86H9V5.72H15.78V3.5H9V2.36H16.32L16.86 2.96V15.32L16.32 15.86H1.68L1.14 15.32Z"/></svg>
			<svg x="791" y="59" width="10" height="15" viewBox="0 0 10 15"xmlns="http://www.w3.org/2000/svg" fill="var(--vscode-list-activeSelectionForeground)"><path d="M8.18 2C8.62 2.44 8.94 2.94 9.14 3.5C9.38 4.02 9.5 4.58 9.5 5.18C9.54 6.06 9.32 6.86 8.84 7.58L5.3 14.72H4.7L1.16 7.58C0.68 6.86 0.44 6.08 0.44 5.24C0.48 4.4 0.7 3.64 1.1 2.96C1.5 2.28 2.04 1.74 2.72 1.34C3.4 0.9 4.16 0.679999 5 0.679999C5.6 0.679999 6.18 0.799999 6.74 1.04C7.3 1.28 7.78 1.6 8.18 2ZM4.94 1.82C4.02 1.86 3.24 2.22 2.6 2.9C1.96 3.54 1.62 4.32 1.58 5.24C1.58 5.88 1.76 6.46 2.12 6.98L5 12.8L7.88 6.98C8.24 6.46 8.42 5.88 8.42 5.24C8.38 4.32 8.04 3.54 7.4 2.9C6.76 2.22 6 1.86 5.12 1.82H5H4.94ZM5.6 4.28C5.88 4.44 6.04 4.68 6.08 5C6.16 5.28 6.1 5.56 5.9 5.84C5.74 6.08 5.5 6.24 5.18 6.32C4.9 6.36 4.62 6.3 4.34 6.14C4.1 5.94 3.94 5.7 3.86 5.42C3.82 5.1 3.88 4.82 4.04 4.58C4.2 4.3 4.44 4.14 4.76 4.1C5.08 4.02 5.36 4.08 5.6 4.28ZM3.74 3.32C3.22 3.68 2.9 4.16 2.78 4.76C2.7 5.36 2.82 5.92 3.14 6.44C3.5 6.92 3.98 7.22 4.58 7.34C5.18 7.46 5.72 7.36 6.2 7.04C6.56 6.84 6.82 6.56 6.98 6.2C7.18 5.84 7.26 5.46 7.22 5.06C7.22 4.62 7.1 4.24 6.86 3.92C6.66 3.56 6.38 3.3 6.02 3.14C5.66 2.94 5.26 2.86 4.82 2.9C4.42 2.94 4.06 3.08 3.74 3.32Z"/></svg>
			<svg x="754" y="59" width="15" height="15" viewBox="0 0 15 15" xmlns="http://www.w3.org/2000/svg" fill="var(--vscode-list-activeSelectionForeground)"><path d="M14.78 6.86V8H8V14.72H6.86V8H0.14V6.86H6.86V0.14H8V6.86H14.78Z"/></svg>
			<svg x="33" y="63" width="12" height="7" viewBox="0 0 12 7" xmlns="http://www.w3.org/2000/svg" fill="var(--vscode-list-activeSelectionForeground)"><path d="M6 5.34L10.86 0.419999L11.58 1.14L6.3 6.36H5.64L0.36 1.14L1.08 0.419999L6 5.34Z"/></svg>
			<svg x="79" y="60" width="16" height="11" viewBox="0 0 16 11" xmlns="http://www.w3.org/2000/svg" fill="var(--vscode-list-activeSelectionForeground)"><path d="M12.44 3.72H12.5C13.42 3.76 14.2 4.1 14.84 4.74C15.52 5.38 15.86 6.18 15.86 7.14C15.86 8.06 15.52 8.86 14.84 9.54C14.2 10.18 13.42 10.5 12.5 10.5H4.1C3.54 10.5 3 10.4 2.48 10.2C1.96 9.96 1.52 9.62 1.16 9.18C0.68 8.66 0.36 8.06 0.2 7.38C0.08 6.66 0.12 5.96 0.32 5.28C0.56 4.6 0.94 4.04 1.46 3.6C2.02 3.12 2.64 2.82 3.32 2.7C3.88 2.58 4.44 2.6 5 2.76C5.36 1.96 5.92 1.34 6.68 0.899999C7.44 0.46 8.24 0.3 9.08 0.42C9.96 0.54 10.7 0.92 11.3 1.56C11.94 2.16 12.32 2.88 12.44 3.72ZM4.64 9.36H12.5C13.14 9.36 13.68 9.14 14.12 8.7C14.56 8.26 14.78 7.74 14.78 7.14C14.78 6.5 14.56 5.96 14.12 5.52C13.68 5.08 13.14 4.86 12.5 4.86H11.48L11.36 3.9C11.28 3.3 11 2.78 10.52 2.34C10.08 1.9 9.54 1.64 8.9 1.56C8.3 1.44 7.72 1.54 7.16 1.86C6.64 2.18 6.26 2.62 6.02 3.18L5.66 4.02L4.7 3.84C4.5 3.8 4.3 3.76 4.1 3.72C3.3 3.72 2.64 4 2.12 4.56C1.72 4.96 1.46 5.44 1.34 6C1.22 6.56 1.26 7.1 1.46 7.62C1.7 8.14 2.06 8.56 2.54 8.88C3.02 9.2 3.54 9.36 4.1 9.36H4.64Z"/></svg>
		</g>
		<g class="row">
			<rect x="0" y="90" width="100%" height="44" class="row-box"/>
			<text x="131" y="116" fill="var(--vscode-foreground)" font-size="18">
				<tspan>vscode-gitlens</tspan>
				<tspan dx="-3" font-size="0.9em" opacity="0.6">•</tspan>
				<tspan dx="1" dy="0" font-size="0.9em" opacity="0.6">main</tspan>
				<tspan dx="1" dy="0" font-size="0.9em" opacity="0.6">•</tspan>
				<tspan dx="1" dy="0" font-size="0.9em" opacity="0.6">Last fetched 6/9/23</tspan>
			</text>
			<svg x="57" y="105" width="7" height="12" viewBox="0 0 7 12" xmlns="http://www.w3.org/2000/svg" fill="var(--vscode-foreground)"><path d="M5.34 6L0.42 1.14L1.14 0.42L6.36 5.7V6.36L1.14 11.64L0.42 10.92L5.34 6Z"/></svg>
			<svg x="100" y="103" width="16" height="14" viewBox="0 0 16 14" xmlns="http://www.w3.org/2000/svg" fill="var(--vscode-foreground)"><path d="M15.32 1.36L15.86 1.96V13.18L15.32 13.72H0.68L0.14 13.18V0.819999L0.68 0.22H6.32L6.74 0.4L7.7 1.36H15.32ZM14.72 10.9L14.78 4.72H7.64L6.68 5.68L6.32 5.86H1.22V12.64H14.72V10.9ZM14.72 3.64L14.78 2.5H7.46L7.04 2.32L6.08 1.36H1.28V4.78H6.08L7.04 3.82L7.4 3.64H14.72Z"/></svg>
			<svg width="15" height="15" viewBox="0 0 15 15" fill="none" xmlns="http://www.w3.org/2000/svg" fill="var(--vscode-foreground)"><path d="M14.78 6.86V8H8V14.72H6.86V8H0.14V6.86H6.86V0.14H8V6.86H14.78Z"/></svg>

		</g>
		<g class="row">
			<rect x="0" y="135" width="100%" height="44" class="row-box" fill="var(--vscode-list-hoverBackground)" />
			<text x="131" y="162" fill="var(--vscode-foreground)" font-size="18">
				<tspan>GitKraken</tspan>
				<tspan dx="-3" font-size="0.9em" opacity="0.6">•</tspan>
				<tspan dx="1" dy="0" font-size="0.9em" opacity="0.6">development</tspan>
				<tspan dx="1" dy="0" font-size="0.9em" opacity="0.6">•</tspan>
				<tspan dx="1" dy="0" font-size="0.9em" opacity="0.6">Last fetched 6/7/23</tspan>
			</text>
			<svg x="789" y="149" width="14" height="14" viewBox="0 0 14 14" xmlns="http://www.w3.org/2000/svg" fill="var(--vscode-foreground)"><path d="M3.28 1.36H0.28V0.22H4.18L4.78 0.819999V4.72H3.64V2.5C2.6 3.26 1.9 4.28 1.54 5.56C1.22 6.8 1.32 8.02 1.84 9.22C2.36 10.42 3.18 11.34 4.3 11.98C5.46 12.58 6.68 12.78 7.96 12.58C9.24 12.34 10.3 11.74 11.14 10.78C12.02 9.82 12.5 8.7 12.58 7.42C12.7 6.1 12.4 4.92 11.68 3.88C10.96 2.8 9.98 2.06 8.74 1.66L9.04 0.58C10.04 0.899999 10.9 1.42 11.62 2.14C12.38 2.82 12.94 3.64 13.3 4.6C13.66 5.56 13.8 6.56 13.72 7.6C13.64 8.6 13.34 9.54 12.82 10.42C12.3 11.3 11.6 12.04 10.72 12.64C9.88 13.2 8.94 13.56 7.9 13.72C6.9 13.84 5.9 13.74 4.9 13.42C3.94 13.1 3.08 12.6 2.32 11.92C1.6 11.2 1.06 10.36 0.7 9.4C0.34 8.44 0.2 7.46 0.28 6.46C0.36 5.42 0.66 4.46 1.18 3.58C1.7 2.7 2.4 1.96 3.28 1.36Z"/></svg>
			<svg x="756" y="149" width="13" height="14" viewBox="0 0 13 14" xmlns="http://www.w3.org/2000/svg" fill="var(--vscode-foreground)"><path d="M0.54 8.14L1.32 7.3L6 11.98V0.22H7.14V11.98L11.82 7.3L12.6 8.14L6.96 13.72H6.18L0.54 8.14Z" /></svg>
			<svg x="721" y="150" width="13" height="14" viewBox="0 0 13 14" xmlns="http://www.w3.org/2000/svg" fill="var(--vscode-foreground)"><path d="M12.6 5.86L11.76 6.7L7.14 2.02V13.72H6V2.02L1.32 6.7L0.54 5.86L6.18 0.22H6.96L12.6 5.86Z" /></svg>
			<svg x="822" y="148" width="17" height="16" viewBox="0 0 17 16" xmlns="http://www.w3.org/2000/svg" fill="var(--vscode-foreground)"><path d="M4.5 3.5H7.86V4.64H4.5V8H3.36V4.64H0V3.5H3.36V0.14H4.5V3.5ZM1.14 15.32V9.14H2.28V14.72H15.78V6.86H9V5.72H15.78V3.5H9V2.36H16.32L16.86 2.96V15.32L16.32 15.86H1.68L1.14 15.32Z"/></svg>
			<svg x="57" y="151" width="7" height="12" viewBox="0 0 7 12" xmlns="http://www.w3.org/2000/svg" fill="var(--vscode-foreground)"><path d="M5.34 6L0.42 1.14L1.14 0.42L6.36 5.7V6.36L1.14 11.64L0.42 10.92L5.34 6Z"/></svg>
			<svg x="100" y="148" width="16" height="14" viewBox="0 0 16 14" xmlns="http://www.w3.org/2000/svg" fill="var(--vscode-foreground)"><path d="M15.32 1.36L15.86 1.96V13.18L15.32 13.72H0.68L0.14 13.18V0.819999L0.68 0.22H6.32L6.74 0.4L7.7 1.36H15.32ZM14.72 10.9L14.78 4.72H7.64L6.68 5.68L6.32 5.86H1.22V12.64H14.72V10.9ZM14.72 3.64L14.78 2.5H7.46L7.04 2.32L6.08 1.36H1.28V4.78H6.08L7.04 3.82L7.4 3.64H14.72Z"/></svg>
		</g>
		<g class="row">
			<rect x="0" y="179" width="100%" height="44" class="row-box" />
			<text x="111" y="209" fill="var(--vscode-foreground)" font-size="18">
				<tspan>Backend services</tspan>
			</text>
			<svg x="36" y="198" width="7" height="12" viewBox="0 0 7 12" xmlns="http://www.w3.org/2000/svg" fill="var(--vscode-foreground)"><path d="M5.34 6L0.42 1.14L1.14 0.42L6.36 5.7V6.36L1.14 11.64L0.42 10.92L5.34 6Z"/></svg>
			<svg x="79" y="198" width="16" height="11" viewBox="0 0 16 11" xmlns="http://www.w3.org/2000/svg" fill="var(--vscode-foreground)"><path d="M12.44 3.72H12.5C13.42 3.76 14.2 4.1 14.84 4.74C15.52 5.38 15.86 6.18 15.86 7.14C15.86 8.06 15.52 8.86 14.84 9.54C14.2 10.18 13.42 10.5 12.5 10.5H4.1C3.54 10.5 3 10.4 2.48 10.2C1.96 9.96 1.52 9.62 1.16 9.18C0.68 8.66 0.36 8.06 0.2 7.38C0.08 6.66 0.12 5.96 0.32 5.28C0.56 4.6 0.94 4.04 1.46 3.6C2.02 3.12 2.64 2.82 3.32 2.7C3.88 2.58 4.44 2.6 5 2.76C5.36 1.96 5.92 1.34 6.68 0.899999C7.44 0.46 8.24 0.3 9.08 0.42C9.96 0.54 10.7 0.92 11.3 1.56C11.94 2.16 12.32 2.88 12.44 3.72ZM4.64 9.36H12.5C13.14 9.36 13.68 9.14 14.12 8.7C14.56 8.26 14.78 7.74 14.78 7.14C14.78 6.5 14.56 5.96 14.12 5.52C13.68 5.08 13.14 4.86 12.5 4.86H11.48L11.36 3.9C11.28 3.3 11 2.78 10.52 2.34C10.08 1.9 9.54 1.64 8.9 1.56C8.3 1.44 7.72 1.54 7.16 1.86C6.64 2.18 6.26 2.62 6.02 3.18L5.66 4.02L4.7 3.84C4.5 3.8 4.3 3.76 4.1 3.72C3.3 3.72 2.64 4 2.12 4.56C1.72 4.96 1.46 5.44 1.34 6C1.22 6.56 1.26 7.1 1.46 7.62C1.7 8.14 2.06 8.56 2.54 8.88C3.02 9.2 3.54 9.36 4.1 9.36H4.64Z"/></svg>
		</g>
		<g class="row">
			<rect x="0" y="223" width="100%" height="44" class="row-box" />
			<text x="111" y="253" fill="var(--vscode-foreground)" font-size="18">
				<tspan>Open source projects</tspan>
			</text>
			<svg x="36" y="241" width="7" height="12" viewBox="0 0 7 12" xmlns="http://www.w3.org/2000/svg" fill="var(--vscode-foreground)"><path d="M5.34 6L0.42 1.14L1.14 0.42L6.36 5.7V6.36L1.14 11.64L0.42 10.92L5.34 6Z"/></svg>
			<svg x="79" y="241" width="16" height="11" viewBox="0 0 16 11" xmlns="http://www.w3.org/2000/svg" fill="var(--vscode-foreground)"><path d="M12.44 3.72H12.5C13.42 3.76 14.2 4.1 14.84 4.74C15.52 5.38 15.86 6.18 15.86 7.14C15.86 8.06 15.52 8.86 14.84 9.54C14.2 10.18 13.42 10.5 12.5 10.5H4.1C3.54 10.5 3 10.4 2.48 10.2C1.96 9.96 1.52 9.62 1.16 9.18C0.68 8.66 0.36 8.06 0.2 7.38C0.08 6.66 0.12 5.96 0.32 5.28C0.56 4.6 0.94 4.04 1.46 3.6C2.02 3.12 2.64 2.82 3.32 2.7C3.88 2.58 4.44 2.6 5 2.76C5.36 1.96 5.92 1.34 6.68 0.899999C7.44 0.46 8.24 0.3 9.08 0.42C9.96 0.54 10.7 0.92 11.3 1.56C11.94 2.16 12.32 2.88 12.44 3.72ZM4.64 9.36H12.5C13.14 9.36 13.68 9.14 14.12 8.7C14.56 8.26 14.78 7.74 14.78 7.14C14.78 6.5 14.56 5.96 14.12 5.52C13.68 5.08 13.14 4.86 12.5 4.86H11.48L11.36 3.9C11.28 3.3 11 2.78 10.52 2.34C10.08 1.9 9.54 1.64 8.9 1.56C8.3 1.44 7.72 1.54 7.16 1.86C6.64 2.18 6.26 2.62 6.02 3.18L5.66 4.02L4.7 3.84C4.5 3.8 4.3 3.76 4.1 3.72C3.3 3.72 2.64 4 2.12 4.56C1.72 4.96 1.46 5.44 1.34 6C1.22 6.56 1.26 7.1 1.46 7.62C1.7 8.14 2.06 8.56 2.54 8.88C3.02 9.2 3.54 9.36 4.1 9.36H4.64Z"/></svg>
		</g>
	</svg>
</svg>
