<svg xmlns="http://www.w3.org/2000/svg" width="16" height="16" viewBox="0 0 16 16" fill="currentColor"><path d="M5.5 2C6.33 2 7 2.67 7 3.5v4.84a5.5 5.5 0 0 0-.56 5.32q-.4.33-.94.34h-3A1.5 1.5 0 0 1 1 12.5v-9C1 2.67 1.67 2 2.5 2zM13.5 2c.83 0 1.5.67 1.5 1.5v3.76a6 6 0 0 0-1-.66V3.5a.5.5 0 0 0-.5-.5h-3a.5.5 0 0 0-.5.5v2.7q-.52.15-1 .4V3.5c0-.83.67-1.5 1.5-1.5z"/><path d="M11.5 7a4.5 4.5 0 0 1 0 9C9.02 16 7 13.33 7 11.5A4.5 4.5 0 0 1 11.5 7m2.35 3.15a.5.5 0 0 0-.7 0L11 12.29l-1.15-1.14a.5.5 0 1 0-.7.7l1.5 1.5c.2.2.5.2.7 0l2.5-2.5a.5.5 0 0 0 0-.7"/></svg>
