<svg xmlns="http://www.w3.org/2000/svg" width="16" height="16" viewBox="0 0 16 16" fill="currentColor"><path d="M13.5 2c.83 0 1.5.67 1.5 1.5v9c0 .83-.67 1.5-1.5 1.5h-3a1.5 1.5 0 0 1-.94-.34A5.5 5.5 0 0 0 9 8.34V3.5c0-.83.67-1.5 1.5-1.5z"/><path fill-rule="evenodd" d="M5.5 2C6.33 2 7 2.67 7 3.5v3.1q-.48-.24-1-.4V6H2v.6q-.54.27-1 .66V3.5C1 2.67 1.67 2 2.5 2zm-3 1a.5.5 0 0 0-.5.5V5h4V3.5a.5.5 0 0 0-.5-.5z" clip-rule="evenodd"/><path d="M4.5 7a4.5 4.5 0 0 1 0 9C2.02 16 0 13.33 0 11.5A4.5 4.5 0 0 1 4.5 7m2.35 3.15a.5.5 0 0 0-.7 0L4 12.29l-1.15-1.14a.5.5 0 1 0-.7.7l1.5 1.5c.2.2.5.2.7 0l2.5-2.5a.5.5 0 0 0 0-.7"/></svg>
