<svg width="24" height="24" viewBox="0 0 24 24" xmlns="http://www.w3.org/2000/svg" fill="currentColor"><path d="M6.75 0.75C4.26472 0.75 2.25 2.76472 2.25 5.25C2.25 7.47975 3.87172 9.33072 6 9.68778L6 14.3122C3.87171 14.6693 2.25 16.5203 2.25 18.75C2.25 21.2353 4.26472 23.25 6.75 23.25C9.23528 23.25 11.25 21.2353 11.25 18.75C11.25 16.6745 9.84487 14.9272 7.934 14.4074C8.10838 14.1498 8.30355 13.9631 8.505 13.8264C8.95998 13.5179 9.54885 13.3957 10.2477 13.4288L10.256 13.4291L10.2643 13.4294C10.8315 13.4436 11.3798 13.5003 11.9131 13.5562L11.9518 13.5603C12.4565 13.6132 12.9715 13.6672 13.4261 13.6641C13.8821 13.6609 14.4008 13.6029 14.8374 13.3311C15.2519 13.073 15.5038 12.6813 15.6172 12.2059C15.824 12.235 16.0352 12.25 16.25 12.25C18.7353 12.25 20.75 10.2353 20.75 7.75C20.75 5.26472 18.7353 3.25 16.25 3.25C13.7647 3.25 11.75 5.26472 11.75 7.75C11.75 9.48808 12.7354 10.996 14.178 11.7456L14.1765 11.7565C14.145 11.9954 14.0753 12.0387 14.046 12.0568L14.0446 12.0577C13.9669 12.1061 13.791 12.1615 13.4159 12.1641C13.0509 12.1666 12.613 12.1213 12.0694 12.0644C11.5445 12.0094 10.9424 11.9463 10.3101 11.93C9.41592 11.8889 8.47248 12.036 7.66304 12.585C7.60761 12.6226 7.55326 12.6618 7.5 12.7025V9.68778C9.62828 9.33072 11.25 7.47975 11.25 5.25C11.25 2.76472 9.23528 0.75 6.75 0.75ZM3.75 5.25C3.75 3.59315 5.09315 2.25 6.75 2.25C8.40685 2.25 9.75 3.59315 9.75 5.25C9.75 6.90685 8.40685 8.25 6.75 8.25C5.09315 8.25 3.75 6.90685 3.75 5.25ZM13.25 7.75C13.25 6.09315 14.5931 4.75 16.25 4.75C17.9069 4.75 19.25 6.09315 19.25 7.75C19.25 9.40685 17.9069 10.75 16.25 10.75C14.5931 10.75 13.25 9.40685 13.25 7.75ZM6.75 15.75C8.40685 15.75 9.75 17.0931 9.75 18.75C9.75 20.4069 8.40685 21.75 6.75 21.75C5.09315 21.75 3.75 20.4069 3.75 18.75C3.75 17.0931 5.09315 15.75 6.75 15.75Z"/></svg>
