<svg width="16" height="16" viewBox="0 0 16 16" xmlns="http://www.w3.org/2000/svg" fill="currentColor"><path fill-rule="evenodd" clip-rule="evenodd" d="M7.75492 2C5.80802 2 4.11749 3.09297 3.26146 4.69709C1.42064 4.94046 0 6.51549 0 8.42267C0 10.4983 1.6826 12.1809 3.7582 12.1809H7.39039C7.38057 12.1561 7.37174 12.1306 7.36398 12.1044C7.28662 11.843 7.3342 11.5719 7.47717 11.3257H3.7582C2.15493 11.3257 0.855223 10.0259 0.855223 8.42267C0.855223 6.88429 2.05242 5.62503 3.56561 5.52599C3.72057 5.51585 3.85785 5.42249 3.92424 5.28211C4.60311 3.8467 6.06353 2.85522 7.75492 2.85522C9.88834 2.85522 11.6542 4.43306 11.9476 6.48525C11.9781 6.69869 12.1628 6.85602 12.3783 6.85228C12.3917 6.85205 12.4046 6.85193 12.4177 6.85193C12.922 6.85193 13.3874 7.01882 13.7615 7.30037C13.8039 7.32572 13.8456 7.3539 13.8864 7.38499L15.47 8.59104C15.2483 7.22118 14.1266 6.1529 12.7312 6.01241C12.2364 3.71867 10.1966 2 7.75492 2Z"/><path fill-rule="evenodd" clip-rule="evenodd" d="M12.4947 8.31126C12.4947 7.95785 12.8995 7.75688 13.1814 7.97151L15.8315 9.98982C16.0478 10.1546 16.0575 10.4767 15.8514 10.6541L13.2013 12.9356C12.9236 13.1747 12.4947 12.9774 12.4947 12.6122V11.3346L12.0986 11.3053C11.1039 11.2316 9.88136 11.3343 8.71507 11.8632C8.48097 11.9694 8.22257 11.9362 8.08036 11.8501C8.01364 11.8097 7.99939 11.7753 7.99717 11.7678C7.99605 11.764 7.99448 11.757 7.99681 11.7428C7.99932 11.7276 8.00752 11.6979 8.03431 11.6538C8.87633 10.2672 10.6397 9.58135 12.1373 9.33197L12.4947 9.27246V8.31126Z"/></svg>
