<svg width="16" height="16" viewBox="0 0 16 16" xmlns="http://www.w3.org/2000/svg" fill="currentColor"><path fill-rule="evenodd" clip-rule="evenodd" d="M11.3218 8.17781C11.5187 8.37469 11.5187 8.6939 11.3218 8.89078L9.44807 10.7645L11.3218 12.6383C11.5187 12.8352 11.5187 13.1544 11.3218 13.3513C11.125 13.5482 10.8057 13.5482 10.6089 13.3513L8.37862 11.121C8.28407 11.0265 8.23096 10.8983 8.23096 10.7645C8.23096 10.6308 8.28407 10.5026 8.37862 10.4081L10.6089 8.17781C10.8057 7.98093 11.125 7.98093 11.3218 8.17781ZM12.9091 8.17781C13.106 7.98093 13.4252 7.98093 13.6221 8.17781L15.8524 10.4081C16.0492 10.6049 16.0492 10.9241 15.8524 11.121L13.6221 13.3513C13.4252 13.5482 13.106 13.5482 12.9091 13.3513C12.7123 13.1544 12.7123 12.8352 12.9091 12.6383L14.7829 10.7645L12.9091 8.89078C12.7123 8.6939 12.7123 8.37469 12.9091 8.17781Z"/><path fill-rule="evenodd" clip-rule="evenodd" d="M7.92072 2C5.9322 2 4.20552 3.11634 3.33119 4.75476C1.45101 5.00333 0 6.61203 0 8.55999C0 10.68 1.71858 12.3986 3.83856 12.3986H8.42068L7.76083 11.7387C7.69514 11.673 7.63677 11.6014 7.58624 11.525H3.83856C2.20101 11.525 0.873508 10.1975 0.873508 8.55999C0.873508 6.98872 2.09631 5.70254 3.64185 5.60138C3.80012 5.59102 3.94033 5.49567 4.00814 5.35228C4.70153 3.88618 6.19317 2.87351 7.92072 2.87351C10.0998 2.87351 11.9034 4.48508 12.203 6.58114C12.2342 6.79915 12.4228 6.95985 12.643 6.95603C12.6566 6.95579 12.6698 6.95567 12.6832 6.95567C13.1501 6.95567 13.5842 7.09569 13.946 7.33603C14.0511 7.3958 14.15 7.47051 14.2396 7.56016L15.8405 9.16097C15.801 7.56087 14.5714 6.25606 13.0034 6.0982C12.4981 3.75542 10.4146 2 7.92072 2ZM8.7825 11.525L9.64463 12.3872C9.83792 12.3422 9.98192 12.1688 9.98192 11.9618C9.98192 11.7206 9.78638 11.525 9.54517 11.525H8.7825Z"/></svg>
