<svg width="16" height="16" viewBox="0 0 16 16" xmlns="http://www.w3.org/2000/svg" fill="currentColor"><path fill-rule="evenodd" clip-rule="evenodd" d="M13.4678 1.55566L13.9471 2.08822V5.59417L12.9885 4.64142V2.56752H1.006V10.5559H3.45576L3.98832 11.0884V12.8459L6.11855 10.7157L6.49134 10.5559H7.03296L8.0354 11.5677H6.70436L3.82855 14.4436L2.97646 14.0708V11.5677H0.473442L-0.00585938 11.0884V2.08822L0.473442 1.55566H13.4678ZM10.0787 5.54982L10.7971 6.32351L8.08919 9.03144L10.7971 11.7946L10.0787 12.5131L6.98391 9.41829V8.69986L10.0787 5.54982ZM16.0057 8.69986L12.911 5.54982L12.1373 6.32351L14.9005 9.03144L12.1373 11.7946L12.911 12.5131L16.0057 9.41829V8.69986Z"/></svg>
