<svg width="24" height="24" viewBox="0 0 24 24" xmlns="http://www.w3.org/2000/svg" fill="currentColor"><path d="M12 6.29642V0.5H13.5V6.29642C16.4597 6.66549 18.75 9.19029 18.75 12.25C18.75 15.3097 16.4597 17.8345 13.5 18.2036V23.75H12V18.2036C9.04027 17.8345 6.75 15.3097 6.75 12.25C6.75 9.19029 9.04027 6.66549 12 6.29642ZM12.75 16.75C15.2353 16.75 17.25 14.7353 17.25 12.25C17.25 9.76472 15.2353 7.75 12.75 7.75C10.2647 7.75 8.25 9.76472 8.25 12.25C8.25 14.7353 10.2647 16.75 12.75 16.75Z"/></svg>
