<svg width="16" height="16" viewBox="0 0 16 16" xmlns="http://www.w3.org/2000/svg" fill="currentColor"><path d="M8 2.75C6.74022 2.75 5.53204 3.25044 4.64124 4.14124C3.89907 4.88342 3.42785 5.84591 3.29128 6.875H0V8.125H3.29128C3.42785 9.15409 3.89907 10.1166 4.64124 10.8588C5.53204 11.7496 6.74022 12.25 8 12.25C9.25978 12.25 10.468 11.7496 11.3588 10.8588C12.1009 10.1166 12.5721 9.15409 12.7087 8.125H16V6.875H12.7087C12.5721 5.84591 12.1009 4.88342 11.3588 4.14124C10.468 3.25044 9.25978 2.75 8 2.75ZM5.7019 5.2019C6.3114 4.59241 7.13805 4.25 8 4.25C8.86195 4.25 9.6886 4.59241 10.2981 5.2019C10.9076 5.8114 11.25 6.63805 11.25 7.5C11.25 8.36195 10.9076 9.1886 10.2981 9.7981C9.6886 10.4076 8.86195 10.75 8 10.75C7.13805 10.75 6.3114 10.4076 5.7019 9.7981C5.09241 9.1886 4.75 8.36195 4.75 7.5C4.75 6.63805 5.09241 5.8114 5.7019 5.2019Z"/></svg>
