<svg width="24" height="24" viewBox="0 0 24 24" xmlns="http://www.w3.org/2000/svg" fill="currentColor"><path d="M15.0669 2.06742L12.7607 4.34434H17.5536C17.907 4.34434 18.257 4.41344 18.5838 4.54782C18.9105 4.68221 19.2078 4.87933 19.4584 5.1282C19.709 5.37708 19.908 5.67285 20.0438 5.99874C20.1796 6.32464 20.2494 6.6741 20.2491 7.02711V16.6116C21.8148 16.9632 22.9897 18.3533 22.9897 20.0232C22.9897 21.9603 21.4088 23.5208 19.4708 23.5208C17.5329 23.5208 15.952 21.9603 15.952 20.0232C15.952 18.3332 17.1552 16.9299 18.7491 16.5994V7.02646C18.7492 6.87216 18.7187 6.71857 18.6591 6.57566C18.5996 6.43274 18.5121 6.30248 18.4013 6.19249C18.2906 6.08249 18.1588 5.99492 18.0132 5.93508C17.8677 5.87522 17.7115 5.84434 17.5536 5.84434H12.7085L14.9889 8.18303L13.9149 9.23021L10.3946 5.61985L10.4047 4.56255L14.0131 1L15.0669 2.06742ZM17.452 20.0232C17.452 21.121 18.3504 22.0208 19.4708 22.0208C20.5913 22.0208 21.4897 21.121 21.4897 20.0232C21.4897 18.9254 20.5913 18.0256 19.4708 18.0256C18.3504 18.0256 17.452 18.9254 17.452 20.0232Z"/><path d="M4.51888 1.50946C2.58092 1.50946 1 3.06995 1 5.00707C1 6.68706 2.18907 8.08376 3.76888 8.42496V17.9647C3.76888 18.6775 4.05427 19.3599 4.56039 19.8621C5.06632 20.3642 5.75128 20.6452 6.46429 20.6452H11.2635L8.95611 22.9222L10.0097 23.9899L13.6181 20.429L13.6284 19.3717L10.1081 15.7597L9.03386 16.8066L11.3131 19.1452H6.46429C6.14539 19.1452 5.8407 19.0194 5.61696 18.7974C5.3934 18.5755 5.26888 18.2759 5.26888 17.9647V8.42496C6.84868 8.08377 8.03776 6.68706 8.03776 5.00707C8.03776 3.06995 6.45684 1.50946 4.51888 1.50946ZM2.5 5.00707C2.5 3.90927 3.39842 3.00946 4.51888 3.00946C5.63934 3.00946 6.53776 3.90927 6.53776 5.00707C6.53776 6.10488 5.63934 7.00468 4.51888 7.00468C3.39842 7.00468 2.5 6.10488 2.5 5.00707Z"/></svg>
