<svg width="16" height="16" viewBox="0 0 16 16" xmlns="http://www.w3.org/2000/svg" fill="currentColor"><path d="M7.38898 12.99L6.11898 11.72L6.78898 11.02L8.91898 13.15V13.85L6.78898 15.98L6.07898 15.27L7.34898 14H5.49898C5.1703 14.0013 4.84462 13.9376 4.54071 13.8124C4.2368 13.6872 3.96067 13.5031 3.72826 13.2707C3.49585 13.0383 3.31175 12.7622 3.18659 12.4583C3.06142 12.1544 2.99766 11.8287 2.99898 11.5V5.95002C2.51986 5.84801 2.07949 5.61222 1.72898 5.27002C1.38085 4.91827 1.14399 4.47181 1.04796 3.98632C0.951929 3.50083 1.00097 2.99781 1.18898 2.54002C1.37872 2.08377 1.69942 1.69398 2.11056 1.41989C2.5217 1.1458 3.00485 0.999687 3.49898 1.00002C3.84194 0.992644 4.18262 1.05737 4.49898 1.19002C4.80203 1.31469 5.07738 1.49819 5.30909 1.7299C5.54081 1.96162 5.72431 2.23696 5.84898 2.54002C5.98198 2.85702 6.04598 3.19802 6.03898 3.54002C6.0391 4.11634 5.84009 4.67501 5.47563 5.12147C5.11118 5.56793 4.60366 5.87475 4.03898 5.99002V11.49C4.03898 11.8878 4.19701 12.2694 4.47832 12.5507C4.75962 12.832 5.14115 12.99 5.53898 12.99H7.38898ZM13.039 11.04C13.519 11.138 13.961 11.375 14.309 11.72C14.7167 12.1302 14.9702 12.6687 15.0267 13.2443C15.0832 13.8199 14.9392 14.3974 14.619 14.879C14.4133 15.1857 14.1423 15.4429 13.8253 15.6324C13.5084 15.8218 13.1534 15.9387 12.786 15.9746C12.4185 16.0105 12.0476 15.9646 11.7 15.8401C11.3524 15.7157 11.0366 15.5157 10.7755 15.2547C10.5143 14.9937 10.3142 14.6781 10.1896 14.3306C10.0649 13.983 10.0188 13.6122 10.0545 13.2447C10.0902 12.8772 10.2068 12.5221 10.3961 12.2051C10.5853 11.8881 10.8425 11.6169 11.149 11.411C11.418 11.229 11.72 11.103 12.039 11.041V5.49002C12.039 5.09219 11.8809 4.71066 11.5996 4.42936C11.3183 4.14805 10.9368 3.99002 10.539 3.99002H8.68898L9.95898 5.26002L9.24898 5.97002L7.11898 3.84002V3.14002L9.24898 1.01002L9.95898 1.72002L8.68898 2.99002H10.539C10.8677 2.98869 11.1933 3.05246 11.4972 3.17762C11.8012 3.30279 12.0773 3.48689 12.3097 3.7193C12.5421 3.95171 12.7262 4.22783 12.8514 4.53175C12.9765 4.83566 13.0403 5.16134 13.039 5.49002V11.04ZM12.688 14.983C12.9452 14.9572 13.1914 14.8653 13.4027 14.7164C13.6139 14.5674 13.7831 14.3663 13.8938 14.1327C14.0045 13.8991 14.0529 13.6408 14.0343 13.3829C14.0158 13.1251 13.9309 12.8764 13.788 12.661C13.6202 12.4125 13.384 12.218 13.108 12.101C12.8358 11.9902 12.5369 11.9624 12.249 12.021C11.957 12.0775 11.6886 12.22 11.4783 12.4303C11.268 12.6406 11.1254 12.909 11.069 13.201C11.0102 13.4893 11.038 13.7885 11.149 14.061C11.2719 14.36 11.4881 14.6113 11.7654 14.7775C12.0428 14.9436 12.3664 15.0157 12.688 14.983Z"/></svg>
