<svg width="24" height="24" viewBox="0 0 24 24" xmlns="http://www.w3.org/2000/svg" fill="currentColor"><path d="M18 8.25C19.2426 8.25 20.25 7.24264 20.25 6C20.25 4.75736 19.2426 3.75 18 3.75C16.7574 3.75 15.75 4.75736 15.75 6C15.75 7.24264 16.7574 8.25 18 8.25Z"/><path d="M21 10.5H18L16.5 9H21L22.5 10.5V13.5L21 15V19.5L19.5 21H16.5V19.5H19.5V15L21 13.5V10.5Z"/><path d="M6 8.25C7.24264 8.25 8.25 7.24264 8.25 6C8.25 4.75736 7.24264 3.75 6 3.75C4.75736 3.75 3.75 4.75736 3.75 6C3.75 7.24264 4.75736 8.25 6 8.25Z"/><path d="M3 10.5H6L7.5 9H3L1.5 10.5V13.5L3 15V19.5L4.5 21H7.5V19.5H4.5V15L3 13.5V10.5Z"/><path d="M15 4.5C15 6.15685 13.6569 7.5 12 7.5C10.3431 7.5 9 6.15685 9 4.5C9 2.84315 10.3431 1.5 12 1.5C13.6569 1.5 15 2.84315 15 4.5ZM14 4.5C14 3.39543 13.1046 2.5 12 2.5C10.8954 2.5 10 3.39543 10 4.5C10 5.60457 10.8954 6.5 12 6.5C13.1046 6.5 14 5.60457 14 4.5Z"/><path d="M15 16.5V21L13.5 22.5H10.5L9 21V16.5L7.5 15V10.5L9 9H15L16.5 10.5V15L15 16.5ZM9 15L10.5 16.5V21H13.5V16.5L15 15V10.5H9V15Z"/></svg>
