<svg width="16" height="16" viewBox="0 0 16 16" xmlns="http://www.w3.org/2000/svg" fill="currentColor"><path d="M2.91406 1C1.85806 1 1 1.85806 1 2.91406C1.00002 3.41684 1.20383 3.91065 1.56055 4.2666L5.56055 8.2666C5.84355 8.5506 6 8.92713 6 9.32812V13.499C6.00001 13.775 6.22401 13.999 6.5 13.999L9.5 14C9.776 14 10 13.776 10 13.5V9.3291C10 8.9281 10.1565 8.55158 10.4395 8.26758L14.4395 4.26758C14.7952 3.91063 15 3.41783 15 2.91406C15 1.85806 14.1419 1 13.0859 1H2.91406ZM13.0859 2.00098C13.5899 2.00098 14 2.41104 14 2.91504C14 3.15481 13.9021 3.39057 13.7324 3.56152L9.73242 7.56152C9.25942 8.03352 9 8.66208 9 9.33008V13H8V2.00098H13.0859Z"/></svg>
