<svg width="24" height="24" viewBox="0 0 24 24" xmlns="http://www.w3.org/2000/svg" fill="currentColor"><path d="M14.2278 11.2885L11.2098 8.27051L12.2705 7.20985L15.2885 10.2278L14.2278 11.2885Z"/><path d="M9.5 15.6406V8.35938H11V15.6406H9.5Z"/><path d="M10.25 20C11.4926 20 12.5 18.9926 12.5 17.75C12.5 16.5074 11.4926 15.5 10.25 15.5C9.00736 15.5 8 16.5074 8 17.75C8 18.9926 9.00736 20 10.25 20Z"/><path d="M16.25 14.5C17.4926 14.5 18.5 13.4926 18.5 12.25C18.5 11.0074 17.4926 10 16.25 10C15.0074 10 14 11.0074 14 12.25C14 13.4926 15.0074 14.5 16.25 14.5Z"/><path d="M10.25 8.5C11.4926 8.5 12.5 7.49264 12.5 6.25C12.5 5.00736 11.4926 4 10.25 4C9.00736 4 8 5.00736 8 6.25C8 7.49264 9.00736 8.5 10.25 8.5Z"/><path d="M12 1.25C6.06294 1.25 1.25 6.06294 1.25 12C1.25 17.937 6.06294 22.75 12 22.75C17.937 22.75 22.75 17.937 22.75 12C22.75 6.06294 17.937 1.25 12 1.25ZM0 12C0 5.37258 5.37258 0 12 0C18.6274 0 24 5.37258 24 12C24 18.6274 18.6274 24 12 24C5.37258 24 0 18.6274 0 12Z"/></svg>
