<svg width="24" height="24" viewBox="0 0 24 24" xmlns="http://www.w3.org/2000/svg" fill="currentColor"><path d="M1.25 12C1.25 6.063 6.063 1.25 12 1.25S22.75 6.063 22.75 12c0 .279-.01.556-.032.83.415.378.784.806 1.098 1.274.121-.683.184-1.386.184-2.104 0-6.627-5.373-12-12-12S0 5.373 0 12s5.373 12 12 12c.718 0 1.42-.063 2.104-.184a7.035 7.035 0 0 1-1.275-1.098c-.273.021-.55.032-.829.032-5.937 0-10.75-4.813-10.75-10.75Z"/><path d="M11.356 15.79A6.992 6.992 0 0 0 11 18c0 .614.08 1.21.228 1.777a2.25 2.25 0 1 1-1.728-4.15V8.373a2.25 2.25 0 1 1 2.78-1.151l3 2.998a2.248 2.248 0 0 1 2.842.781H18a6.968 6.968 0 0 0-4 1.255v-.005c0-.347.079-.676.219-.97l-3-2.999a2.234 2.234 0 0 1-.219.091v7.256c.124.044.243.098.356.162ZM17.788 15.425a2.363 2.363 0 1 0 1.355 4.3l.407-.37.297-.406a2.363 2.363 0 0 0-2.059-3.524Z"/><path d="M18 24a6 6 0 1 0 0-12 6 6 0 0 0 0 12Zm-.212-10.025a3.813 3.813 0 0 1 3.388 5.565l.095.06c.164.108.379.258.572.425.132.115.26.244.356.38.092.13.175.297.159.48-.027.311-.18.612-.396.834-.216.222-.514.386-.843.386a.786.786 0 0 1-.433-.154 2.073 2.073 0 0 1-.348-.311 4.865 4.865 0 0 1-.49-.643 3.823 3.823 0 0 1-.735.368 3.813 3.813 0 1 1-1.325-7.39Z"/></svg>
