<svg width="16" height="16" viewBox="0 0 16 16" xmlns="http://www.w3.org/2000/svg" fill="currentColor"><path d="M3 10.5V5.5H4V10.5H3ZM3 15.5V14.5H4V15.5H3Z"/><path d="M11 11V9.5H12V11C12 11.663 11.7366 12.2989 11.2678 12.7678C10.7989 13.2366 10.163 13.5 9.5 13.5H8V15.5H7V13.5H5.5V12.5H7V1H8V12.5H9.5C9.89782 12.5 10.2794 12.342 10.5607 12.0607C10.842 11.7794 11 11.3978 11 11Z"/><path d="M3.5 5C2.67157 5 2 4.32843 2 3.5C2 2.67157 2.67157 2 3.5 2C4.32843 2 5 2.67157 5 3.5C5 4.32843 4.32843 5 3.5 5ZM3.5 6C4.88071 6 6 4.88071 6 3.5C6 2.11929 4.88071 1 3.5 1C2.11929 1 1 2.11929 1 3.5C1 4.88071 2.11929 6 3.5 6Z"/><path d="M11.5 9C10.6716 9 10 8.32843 10 7.5C10 6.67157 10.6716 6 11.5 6C12.3284 6 13 6.67157 13 7.5C13 8.32843 12.3284 9 11.5 9ZM11.5 10C12.8807 10 14 8.88071 14 7.5C14 6.11929 12.8807 5 11.5 5C10.1193 5 9 6.11929 9 7.5C9 8.88071 10.1193 10 11.5 10Z"/><path d="M3.5 14C2.67157 14 2 13.3284 2 12.5C2 11.6716 2.67157 11 3.5 11C4.32843 11 5 11.6716 5 12.5C5 13.3284 4.32843 14 3.5 14ZM3.5 15C4.88071 15 6 13.8807 6 12.5C6 11.1193 4.88071 10 3.5 10C2.11929 10 1 11.1193 1 12.5C1 13.8807 2.11929 15 3.5 15Z"/></svg>
