<svg width="16" height="16" viewBox="0 0 16 16" xmlns="http://www.w3.org/2000/svg" fill="currentColor"><path d="M2.23223 1.23223C2.70107 0.763392 3.33696 0.5 4 0.5C4.66304 0.5 5.29893 0.763392 5.76777 1.23223C6.23661 1.70107 6.5 2.33696 6.5 3C6.5 3.66304 6.23661 4.29893 5.76777 4.76777C5.29893 5.23661 4.66304 5.5 4 5.5C3.33696 5.5 2.70107 5.23661 2.23223 4.76777C1.76339 4.29893 1.5 3.66304 1.5 3C1.5 2.33696 1.76339 1.70107 2.23223 1.23223ZM4 1.5C3.60218 1.5 3.22064 1.65804 2.93934 1.93934C2.65804 2.22064 2.5 2.60218 2.5 3C2.5 3.39782 2.65804 3.77936 2.93934 4.06066C3.22064 4.34196 3.60218 4.5 4 4.5C4.39782 4.5 4.77936 4.34196 5.06066 4.06066C5.34196 3.77936 5.5 3.39782 5.5 3C5.5 2.60218 5.34196 2.22064 5.06066 1.93934C4.77936 1.65804 4.39782 1.5 4 1.5ZM2.23223 11.2322C2.70107 10.7634 3.33696 10.5 4 10.5C4.66304 10.5 5.29893 10.7634 5.76777 11.2322C6.23661 11.7011 6.5 12.337 6.5 13C6.5 13.663 6.23661 14.2989 5.76777 14.7678C5.29893 15.2366 4.66304 15.5 4 15.5C3.33696 15.5 2.70107 15.2366 2.23223 14.7678C1.76339 14.2989 1.5 13.663 1.5 13C1.5 12.337 1.76339 11.7011 2.23223 11.2322ZM4 11.5C3.60218 11.5 3.22064 11.658 2.93934 11.9393C2.65804 12.2206 2.5 12.6022 2.5 13C2.5 13.3978 2.65804 13.7794 2.93934 14.0607C3.22064 14.342 3.60218 14.5 4 14.5C4.39782 14.5 4.77936 14.342 5.06066 14.0607C5.34196 13.7794 5.5 13.3978 5.5 13C5.5 12.6022 5.34196 12.2206 5.06066 11.9393C4.77936 11.658 4.39782 11.5 4 11.5Z"/><path d="M3.5 11.5V4.5H4.5V11.5H3.5ZM3.5 16V14.5H4.5V16H3.5Z"/><path d="M10.2322 3.23223C10.7011 2.76339 11.337 2.5 12 2.5C12.663 2.5 13.2989 2.76339 13.7678 3.23223C14.2366 3.70107 14.5 4.33696 14.5 5C14.5 5.66304 14.2366 6.29893 13.7678 6.76777C13.2989 7.23661 12.663 7.5 12 7.5C11.337 7.5 10.7011 7.23661 10.2322 6.76777C9.76339 6.29893 9.5 5.66304 9.5 5C9.5 4.33696 9.76339 3.70107 10.2322 3.23223ZM12 3.5C11.6022 3.5 11.2206 3.65804 10.9393 3.93934C10.658 4.22064 10.5 4.60218 10.5 5C10.5 5.39782 10.658 5.77936 10.9393 6.06066C11.2206 6.34196 11.6022 6.5 12 6.5C12.3978 6.5 12.7794 6.34196 13.0607 6.06066C13.342 5.77936 13.5 5.39782 13.5 5C13.5 4.60218 13.342 4.22064 13.0607 3.93934C12.7794 3.65804 12.3978 3.5 12 3.5ZM6.23223 7.23223C6.70107 6.76339 7.33696 6.5 8 6.5C8.66304 6.5 9.29893 6.76339 9.76777 7.23223C10.2366 7.70107 10.5 8.33696 10.5 9C10.5 9.66304 10.2366 10.2989 9.76777 10.7678C9.29893 11.2366 8.66304 11.5 8 11.5C7.33696 11.5 6.70107 11.2366 6.23223 10.7678C5.76339 10.2989 5.5 9.66304 5.5 9C5.5 8.33696 5.76339 7.70107 6.23223 7.23223ZM8 7.5C7.60218 7.5 7.22064 7.65804 6.93934 7.93934C6.65804 8.22064 6.5 8.60218 6.5 9C6.5 9.39782 6.65804 9.77935 6.93934 10.0607C7.22064 10.342 7.60218 10.5 8 10.5C8.39782 10.5 8.77936 10.342 9.06066 10.0607C9.34196 9.77935 9.5 9.39782 9.5 9C9.5 8.60218 9.34196 8.22064 9.06066 7.93934C8.77936 7.65804 8.39782 7.5 8 7.5Z"/><path d="M11.5 11V7H12.5V11C12.5 11.663 12.2366 12.2989 11.7678 12.7678C11.2989 13.2366 10.663 13.5 10 13.5H8.5V16H7.5V13.5H5.5V12.5H7.5V10.5H8.5V12.5H10C10.3978 12.5 10.7794 12.342 11.0607 12.0607C11.342 11.7794 11.5 11.3978 11.5 11Z"/></svg>