<svg width="24" height="24" viewBox="0 0 24 24" xmlns="http://www.w3.org/2000/svg" fill="currentColor"><path d="M1.94564 7.53131C3.65857 3.68305 7.51598 1 12 1C18.0751 1 23 5.92486 23 12C23 18.0751 18.0751 23 12 23C7.09624 23 2.94191 19.7911 1.52223 15.3586L3.27031 14.8044C4.45505 18.4953 7.91557 21.1667 12 21.1667C17.0626 21.1667 21.1667 17.0626 21.1667 12C21.1667 6.9374 17.0626 2.83333 12 2.83333C8.90363 2.83333 6.16579 4.3686 4.50622 6.71943L1.94564 7.53131Z"/><path d="M2.83333 6.5V1H1V7.41667L1.91667 8.33333H8.33333V6.5H2.83333Z"/><path d="M12 12H17.5V10.1667H11.0833L10.1667 11.0833V17.5H12V12Z"/></svg>
