<svg width="24" height="24" viewBox="0 0 24 24" xmlns="http://www.w3.org/2000/svg" fill="currentColor"><path d="M11.61 7.28a4.332 4.332 0 1 0 2.485 7.882l.746-.678.544-.744a4.331 4.331 0 0 0-3.774-6.46Z"/><path d="M12 23a11 11 0 1 0 0-22 11 11 0 0 0 0 22Zm-.389-18.38a6.99 6.99 0 0 1 6.212 10.203l.174.11c.3.198.695.473 1.049.78.242.21.476.447.652.696.169.239.321.545.292.88-.05.57-.33 1.122-.726 1.53-.396.406-.943.707-1.546.707a1.44 1.44 0 0 1-.794-.282 3.803 3.803 0 0 1-.638-.57 8.916 8.916 0 0 1-.898-1.18 7.006 7.006 0 0 1-1.348.675 6.99 6.99 0 1 1-2.429-13.548Z"/></svg>
