<svg xmlns="http://www.w3.org/2000/svg" width="24" height="24" fill="currentColor"><path d="M21.74.5c-5.4 0-9.98 2.97-13.26 6H2.25l-.75.75v4.5l.22.53 1.49 1.49v.01l6 6h.01l1.5 1.5.53.22h4.5l.75-.75v-6.23c3.03-3.27 6-7.85 5.99-13.27L21.74.5ZM3 8h3.96a35.75 35.75 0 0 0-3.33 4.06L3 11.45V8Zm8.55 12-.63-.63c1.44-1.01 2.8-2.12 4.07-3.33V20h-3.44Zm-1.71-1.72L4.7 13.16C6.2 11 12.57 2.53 20.97 2.02c-.5 8.42-8.98 14.78-11.13 16.26ZM6 21.5V20H3v-3H1.5v4.5H6ZM16.12 10a2.25 2.25 0 1 0-3.74-2.5 2.25 2.25 0 0 0 3.74 2.5Z"/></svg>
