<svg width="16" height="16" viewBox="0 0 16 16" xmlns="http://www.w3.org/2000/svg" fill="currentColor"><path d="M8.80501 12L9.16901 10.8H10.996L11.36 12H12.095L10.537 7.177H9.66301L8.10901 12H8.80501ZM10.086 7.737L10.835 10.243H9.33001L10.086 7.737Z"/><path d="M10 5C8.87418 5 7.83526 5.37209 6.99951 6H2V7H5.99963C5.37194 7.83566 5 8.87439 5 10C5 9.658 5.034 9.323 5.1 9H2V10H5C5 11.0106 5.29982 11.9512 5.81536 12.7376C5.66236 12.5045 5.52873 12.258 5.416 12H2V13H5.99963C6.91184 14.2144 8.36418 15 10 15C12.7614 15 15 12.7614 15 10C15 8.87418 14.6279 7.83526 14 6.99951V6H13.0005C12.1647 5.37209 11.1258 5 10 5ZM10 6C12.2091 6 14 7.79086 14 10C14 12.2091 12.2091 14 10 14C7.79086 14 6 12.2091 6 10C6 7.79086 7.79086 6 10 6Z"/><path d="M14 4H2V3H14V4Z"/></svg>
