<svg width="16" height="16" viewBox="0 0 16 16" xmlns="http://www.w3.org/2000/svg" fill="currentColor"><path d="M0 8.125V6.875H2.5V8.125H0Z"/><path d="M13.5 10.35L12.78 9.65002L14.305 8.12106H10L10 6.87894H14.305L12.79 5.35002L13.5 4.65002L16 7.15002V7.85002L13.5 10.35Z"/><path d="M6.5 4.25C4.70507 4.25 3.25 5.70507 3.25 7.5C3.25 9.29493 4.70507 10.75 6.5 10.75C8.29493 10.75 9.75 9.29493 9.75 7.5C9.75 5.70507 8.29493 4.25 6.5 4.25ZM1.75 7.5C1.75 4.87665 3.87665 2.75 6.5 2.75C9.12335 2.75 11.25 4.87665 11.25 7.5C11.25 10.1234 9.12335 12.25 6.5 12.25C3.87665 12.25 1.75 10.1234 1.75 7.5Z"/></svg>
