<svg width="16" height="16" viewBox="0 0 16 16" xmlns="http://www.w3.org/2000/svg" fill="currentColor"><path d="M10.7253 6.99998C10.4744 4.47333 8.34267 2.5 5.75 2.5C3.15733 2.5 1.02555 4.47334 0.774688 7H0V8H0.774688C1.02555 10.5267 3.15733 12.5 5.75 12.5C8.34268 12.5 10.4745 10.5267 10.7253 7.99998H14.4358L12 10.4358L12.7071 11.1429L16 7.84999V7.14288L12.7071 3.84998L12 4.55708L14.4393 6.99644V6.99998H10.7253ZM5.75 3.5C7.95914 3.5 9.75 5.29086 9.75 7.5C9.75 9.70914 7.95914 11.5 5.75 11.5C3.54086 11.5 1.75 9.70914 1.75 7.5C1.75 5.29086 3.54086 3.5 5.75 3.5Z"/></svg>
