<svg width="16" height="16" viewBox="0 0 16 16" xmlns="http://www.w3.org/2000/svg" fill="currentColor"><path d="M10.1465 13L8.00002 10.8536V10.1465L10.1465 8L10.8536 8.70711L9.56068 10H12.5607C13.2237 10 13.8596 10.2634 14.3284 10.7322C14.7973 11.2011 15.0607 11.837 15.0607 12.5C15.0607 13.163 14.7973 13.7989 14.3284 14.2678C13.8596 14.7366 13.2237 15 12.5607 15H12.0607V14H12.5607C12.9585 14 13.34 13.842 13.6213 13.5607C13.9026 13.2794 14.0607 12.8978 14.0607 12.5C14.0607 12.1022 13.9026 11.7206 13.6213 11.4393C13.34 11.158 12.9585 11 12.5607 11H9.56068L10.8536 12.2929L10.1465 13Z"/><path d="M7 1L7.71 1.29L10.71 4.29L11 5V6L10 7V6H6V2H1V14H9L10 15H1L0 14V2L1 1H7ZM10 5L7 2V5H10Z"/></svg>
