<svg width="16" height="16" viewBox="0 0 16 16" xmlns="http://www.w3.org/2000/svg" fill="currentColor"><path d="M4 2H11V2.278C11 2.684 10.914 3.056 10.742 3.395C10.57 3.734 10.322 4.025 10 4.27V7.13C10.307 7.275 10.583 7.458 10.828 7.676C11.073 7.895 11.284 8.14 11.461 8.411C11.638 8.681 11.771 8.976 11.859 9.293C11.948 9.611 11.995 9.939 12 10.278V10.778H8V14L7.5 15L7 14V10.778H3V10.278C3 9.939 3.047 9.614 3.14 9.301C3.234 8.989 3.367 8.694 3.54 8.418C3.89089 7.85568 4.39831 7.40803 5 7.13V4.27C4.69259 4.0373 4.44168 3.7382 4.266 3.395C4.09204 3.04828 4.00099 2.66591 4 2.278V2Z"/></svg>
