<svg width="28" height="28" viewBox="0 0 28 28" xmlns="http://www.w3.org/2000/svg" fill="currentColor"><path fill-rule="evenodd" clip-rule="evenodd" d="M15.4386 0.0298987C18.6803 0.229224 21.7193 1.82382 23.9479 4.0164C26.5818 6.80695 28 10.1955 28 14.182C28 17.3712 26.7844 20.361 24.7584 22.9523C22.7323 25.3442 19.8959 27.1381 16.6542 27.7361C13.4126 28.334 10.1709 27.9354 7.33451 26.3408C4.49807 24.7462 2.26943 22.3543 1.05382 19.3644C-0.161801 16.3745 -0.364403 12.986 0.648611 9.99615C1.66163 6.80695 3.48505 4.21572 6.32149 2.4218C8.95533 0.627874 12.197 -0.169426 15.4386 0.0298987ZM16.4516 25.7428C19.0855 25.1448 21.5167 23.7496 23.3401 21.557C24.961 19.3644 25.974 16.7732 25.7714 13.9826C25.7714 10.7934 24.5558 7.60425 22.3271 5.41167C20.3011 3.41842 17.8699 2.22247 15.0334 2.02315C12.3996 1.82382 9.56314 2.4218 7.33451 4.0164C5.10587 5.611 3.48505 7.80357 2.67464 10.5941C1.86423 13.1853 1.86423 15.9759 3.07985 18.5671C4.29546 21.1583 6.11889 23.1516 8.55012 24.5469C10.9814 25.9421 13.8178 26.3408 16.4516 25.7428Z"/><path fill-rule="evenodd" clip-rule="evenodd" d="M10 7.85246L11.6197 7L21 13.1475V14.8525L11.6197 21L10 20.1475V7.85246ZM12.0845 9.76639V18.2336L18.5444 14L12.0845 9.76639Z"/></svg>
