<svg width="16" height="16" viewBox="0 0 16 16" xmlns="http://www.w3.org/2000/svg" fill="currentColor"><path d="M6 14.5C6 14.6978 5.94135 14.8911 5.83147 15.0556C5.72159 15.22 5.56541 15.3482 5.38268 15.4239C5.19996 15.4996 4.99889 15.5194 4.80491 15.4808C4.61093 15.4422 4.43275 15.347 4.29289 15.2071C4.15304 15.0673 4.0578 14.8891 4.01922 14.6951C3.98063 14.5011 4.00043 14.3 4.07612 14.1173C4.15181 13.9346 4.27998 13.7784 4.44443 13.6685C4.60888 13.5586 4.80222 13.5 5 13.5C5.26522 13.5 5.51957 13.6054 5.70711 13.7929C5.89464 13.9804 6 14.2348 6 14.5Z"/><path d="M9.83147 15.0556C9.94135 14.8911 10 14.6978 10 14.5C10 14.2348 9.89464 13.9804 9.70711 13.7929C9.51957 13.6054 9.26522 13.5 9 13.5C8.80222 13.5 8.60888 13.5586 8.44443 13.6685C8.27998 13.7784 8.15181 13.9346 8.07612 14.1173C8.00043 14.3 7.98063 14.5011 8.01922 14.6951C8.0578 14.8891 8.15304 15.0673 8.29289 15.2071C8.43275 15.347 8.61093 15.4422 8.80491 15.4808C8.99889 15.5194 9.19996 15.4996 9.38268 15.4239C9.56541 15.3482 9.72159 15.22 9.83147 15.0556Z"/><path d="M13.8315 15.0556C13.9414 14.8911 14 14.6978 14 14.5C14 14.2348 13.8946 13.9804 13.7071 13.7929C13.5196 13.6054 13.2652 13.5 13 13.5C12.8022 13.5 12.6089 13.5586 12.4444 13.6685C12.28 13.7784 12.1518 13.9346 12.0761 14.1173C12.0004 14.3 11.9806 14.5011 12.0192 14.6951C12.0578 14.8891 12.153 15.0673 12.2929 15.2071C12.4327 15.347 12.6109 15.4422 12.8049 15.4808C12.9989 15.5194 13.2 15.4996 13.3827 15.4239C13.5654 15.3482 13.7216 15.22 13.8315 15.0556Z"/><path d="M10.25 2.5C7.65733 2.5 5.52556 4.47333 5.27469 6.99998H1.56066V6.99644L4 4.55708L3.29289 3.84998L0 7.14288V7.84999L3.29289 11.1429L4 10.4358L1.5642 7.99998H5.27469C5.52554 10.5267 7.65732 12.5 10.25 12.5C12.8427 12.5 14.9745 10.5267 15.2253 8H16V7H15.2253C14.9745 4.47334 12.8427 2.5 10.25 2.5ZM6.25 7.5C6.25 5.29086 8.04086 3.5 10.25 3.5C12.4591 3.5 14.25 5.29086 14.25 7.5C14.25 9.70914 12.4591 11.5 10.25 11.5C8.04086 11.5 6.25 9.70914 6.25 7.5Z"/></svg>
