<svg width="16" height="16" viewBox="0 0 16 16" xmlns="http://www.w3.org/2000/svg" fill="currentColor"><path d="M14 14.5C14 14.6978 13.9414 14.8911 13.8315 15.0556C13.7216 15.22 13.5654 15.3482 13.3827 15.4239C13.2 15.4996 12.9989 15.5194 12.8049 15.4808C12.6109 15.4422 12.4327 15.347 12.2929 15.2071C12.153 15.0673 12.0578 14.8891 12.0192 14.6951C11.9806 14.5011 12.0004 14.3 12.0761 14.1173C12.1518 13.9346 12.28 13.7784 12.4444 13.6685C12.6089 13.5586 12.8022 13.5 13 13.5C13.2652 13.5 13.5196 13.6054 13.7071 13.7929C13.8946 13.9804 14 14.2348 14 14.5Z"/><path d="M10 14.5C10 14.6978 9.94135 14.8911 9.83147 15.0556C9.72159 15.22 9.56541 15.3482 9.38268 15.4239C9.19996 15.4996 8.99889 15.5194 8.80491 15.4808C8.61093 15.4422 8.43275 15.347 8.29289 15.2071C8.15304 15.0673 8.0578 14.8891 8.01922 14.6951C7.98063 14.5011 8.00043 14.3 8.07612 14.1173C8.15181 13.9346 8.27998 13.7784 8.44443 13.6685C8.60888 13.5586 8.80222 13.5 9 13.5C9.26522 13.5 9.51957 13.6054 9.70711 13.7929C9.89464 13.9804 10 14.2348 10 14.5Z"/><path d="M6 14.5C6 14.6978 5.94135 14.8911 5.83147 15.0556C5.72159 15.22 5.56541 15.3482 5.38268 15.4239C5.19996 15.4996 4.99889 15.5194 4.80491 15.4808C4.61093 15.4422 4.43275 15.347 4.29289 15.2071C4.15304 15.0673 4.0578 14.8891 4.01922 14.6951C3.98063 14.5011 4.00043 14.3 4.07612 14.1173C4.15181 13.9346 4.27998 13.7784 4.44443 13.6685C4.60888 13.5586 4.80222 13.5 5 13.5C5.26522 13.5 5.51957 13.6054 5.70711 13.7929C5.89464 13.9804 6 14.2348 6 14.5Z"/><path d="M16 8.125H13.5V6.875H16V8.125Z"/><path d="M2.5 10.35L0 7.85002V7.15002L2.5 4.65002L3.21 5.35002L1.695 6.87902H6V8.12002H1.695L3.22 9.65002L2.5 10.35Z"/><path d="M9.5 4.25C7.70507 4.25 6.25 5.70507 6.25 7.5C6.25 9.29493 7.70507 10.75 9.5 10.75C11.2949 10.75 12.75 9.29493 12.75 7.5C12.75 5.70507 11.2949 4.25 9.5 4.25ZM4.75 7.5C4.75 4.87665 6.87665 2.75 9.5 2.75C12.1234 2.75 14.25 4.87665 14.25 7.5C14.25 10.1234 12.1234 12.25 9.5 12.25C6.87665 12.25 4.75 10.1234 4.75 7.5Z"/></svg>
