<svg width="16" height="16" viewBox="0 0 16 16" xmlns="http://www.w3.org/2000/svg" fill="currentColor"><path d="M16 8.125H13.5V6.875H16V8.125Z"/><path d="M2.5 10.35L0 7.85002V7.15002L2.5 4.65002L3.21 5.35002L1.695 6.87902H6V8.12002H1.695L3.22 9.65002L2.5 10.35Z"/><path d="M9.5 4.25C7.70507 4.25 6.25 5.70507 6.25 7.5C6.25 9.29493 7.70507 10.75 9.5 10.75C11.2949 10.75 12.75 9.29493 12.75 7.5C12.75 5.70507 11.2949 4.25 9.5 4.25ZM4.75 7.5C4.75 4.87665 6.87665 2.75 9.5 2.75C12.1234 2.75 14.25 4.87665 14.25 7.5C14.25 10.1234 12.1234 12.25 9.5 12.25C6.87665 12.25 4.75 10.1234 4.75 7.5Z"/></svg>