<svg width="16" height="16" viewBox="0 0 16 16" xmlns="http://www.w3.org/2000/svg" fill="currentColor"><path d="M5.27469 6.99998C5.52556 4.47333 7.65733 2.5 10.25 2.5C12.8427 2.5 14.9745 4.47334 15.2253 7H16V8H15.2253C14.9745 10.5267 12.8427 12.5 10.25 12.5C7.65732 12.5 5.52554 10.5267 5.27469 7.99998H1.5642L4 10.4358L3.29289 11.1429L0 7.84999V7.14288L3.29289 3.84998L4 4.55708L1.56066 6.99644V6.99998H5.27469ZM10.25 3.5C8.04086 3.5 6.25 5.29086 6.25 7.5C6.25 9.70914 8.04086 11.5 10.25 11.5C12.4591 11.5 14.25 9.70914 14.25 7.5C14.25 5.29086 12.4591 3.5 10.25 3.5Z"/></svg>
