<svg width="16" height="16" viewBox="0 0 16 16" xmlns="http://www.w3.org/2000/svg" fill="currentColor"><path d="M8.152 8.963a.402.402 0 0 0-.36.565c.037.08.099.146.177.188a.4.4 0 0 0 .506-.12.402.402 0 0 0-.04-.514l.534-1.094c.046.004.093 0 .138-.011.092-.02.158-.08.158-.08.203.087.401.187.593.298.07.039.127.096.167.165.042.122-.043.332-.043.332-.05.169-.41.904-.41.904a.404.404 0 0 0-.394.278.398.398 0 1 0 .675-.147c.043-.082.083-.164.125-.251.11-.232.3-.677.3-.677.02-.038.128-.23.06-.475a.595.595 0 0 0-.28-.372 5.228 5.228 0 0 0-.65-.338s0-.091-.025-.158a.401.401 0 0 0-.086-.14c.104-.217.209-.43.314-.646l-.272-.136-.323.657a.4.4 0 0 0-.316.65l-.548 1.122Zm6.59-5.128c-.092-.092-.214-.09-.214-.09s-2.61.147-3.962.179c-.296.006-.59.013-.882.015v2.61l-.37-.176-.002-2.432a49.858 49.858 0 0 1-1.986-.049s-3.15-.158-3.492-.189c-.22-.013-.502-.047-.87.034-.193.04-.745.164-1.197.599-1.002.893-.746 2.314-.715 2.527.038.26.154.985.706 1.615 1.02 1.25 3.216 1.22 3.216 1.22s.27.644.68 1.236c.558.738 1.13 1.312 1.687 1.381l4.207-.002s.267.002.63-.23c.312-.189.59-.52.59-.52s.288-.308.689-1.01c.122-.215.225-.425.314-.623 0 0 1.229-2.608 1.229-5.147-.024-.768-.214-.904-.258-.948ZM3.67 8.38c-.577-.19-.822-.416-.822-.416s-.425-.299-.64-.887c-.366-.984-.03-1.586-.03-1.586s.187-.5.857-.668c.308-.082.69-.069.69-.069s.159 1.323.35 2.098c.16.65.553 1.73.553 1.73s-.582-.068-.958-.202Zm6.688 2.396s-.136.323-.437.343c-.13.01-.23-.026-.23-.026l-.117-.047L7.06 9.82s-.243-.127-.286-.348c-.05-.18.06-.403.06-.403l1.21-2.492s.107-.216.272-.29a.497.497 0 0 1 .1-.033c.18-.046.4.063.4.063l2.466 1.196s.28.127.34.36a.612.612 0 0 1-.04.384c-.14.342-1.224 2.518-1.224 2.518v.001Z"/></svg>
