<svg width="16" height="16" viewBox="0 0 16 16" xmlns="http://www.w3.org/2000/svg" fill="currentColor"><path d="M3 4.23C3 3.552 3.551 3 4.23 3h9.847c.68 0 1.23.551 1.23 1.23v9.847c0 .68-.55 1.23-1.23 1.23H4.23A1.23 1.23 0 0 1 3 14.078V4.23Zm5.54 1.847H4.848v1.23H8.54v-1.23Zm1.23 0v1.23h3.692v-1.23H9.77Zm-3.692 4.308h-1.23v1.23h1.23v1.231H7.31v-1.23H8.54v-1.231H7.31V9.154H6.077v1.23Zm3.692 0v1.23H11v1.231h1.231v-1.23h1.23v-1.231h-1.23V9.154h-1.23v1.23H9.77Z"/><path fill-opacity=".5" d="M12.307 1.23c0-.679-.55-1.23-1.23-1.23H1.23C.551 0 0 .55 0 1.23v9.847a1.23 1.23 0 0 0 1.23 1.231h2.463V4.923c0-.68.55-1.231 1.23-1.231h7.384V1.23Z"/></svg>
