<svg width="16" height="16" viewBox="0 0 16 16" xmlns="http://www.w3.org/2000/svg" fill="currentColor"><path d="m4.953 13.57 1.638 1.242.997.756a.675.675 0 0 0 .813 0l.997-.755 1.641-1.243-3.046-2.301-3.04 2.301Z"/><path fill-opacity=".75" d="m15.708 6.332.023.057a4.044 4.044 0 0 1-1.335 4.676l-.01.007-3.336 2.498-3.046-2.301 4.777-3.62a7.374 7.374 0 0 1 2.927-1.317ZM3.218 7.652l4.786 3.617-3.052 2.301-3.318-2.483-.02-.015-.007-.006a4.046 4.046 0 0 1-1.34-4.673l.023-.057c1.06.218 2.06.667 2.928 1.316Z"/><path fill-opacity=".55" d="M15.709 6.332a7.375 7.375 0 0 0-2.928 1.317l-4.777 3.62-4.786-3.617A7.356 7.356 0 0 0 .29 6.336L2.467.656a.577.577 0 0 1 1.088.059l1.47 4.501h5.95l1.47-4.5a.57.57 0 0 1 .524-.418.568.568 0 0 1 .565.359l2.175 5.675ZM8.004 11.269a6275.87 6275.87 0 0 0 3.041 2.298l-.005.003L8 11.273l.004-.004ZM4.952 13.57l.58-.438-.578.438 1.612 1.223-1.614-1.223Z"/></svg>
