<svg width="24" height="24" viewBox="0 0 24 24" xmlns="http://www.w3.org/2000/svg" fill="currentColor"><path d="M14.5 4.5h-3C11.167 4 10.3 3 9.5 3H2L1 4v5l1-1h.5V4.5h7c.333.5 1 1.5 2 1.5h3V4.5ZM19.5 6V4.5H22l1 1v2l-1-1h-.5V6h-2ZM14.5 7.5H11c-.46.102-.698.216-1 .5L9 9H2l-1 1v10l1 1h12.397A7.002 7.002 0 0 1 14.5 7.96V7.5ZM19.603 21H22l1-1v-1.892A7.025 7.025 0 0 1 19.603 21ZM23 10.892a7.024 7.024 0 0 0-3.5-2.932V7.5H22l1 1v2.392ZM16.25 1h1.5v9h-1.5zM16.25 19h1.5v4h-1.5z"/><path fill-rule="evenodd" clip-rule="evenodd" d="M17 10.75a3.75 3.75 0 1 0 0 7.5 3.75 3.75 0 0 0 0-7.5Zm-5.25 3.75a5.25 5.25 0 1 1 10.5 0 5.25 5.25 0 0 1-10.5 0Z"/></svg>
