<svg xmlns="http://www.w3.org/2000/svg" width="24" height="24" viewBox="0 0 24 24" fill="currentColor"><path d="M17.25 9.25a4.25 4.25 0 1 0 0 8.5 4.25 4.25 0 0 0 0-8.5ZM17 18.26l-.43-.06a4.75 4.75 0 0 1-4.07-4.7v-.21a4.75 4.75 0 0 1 4.07-4.5l.43-.05V.5h.5v8.24l.43.06A4.75 4.75 0 0 1 22 13.5v.21a4.75 4.75 0 0 1-4.07 4.5l-.43.05V22H17v-3.74Z"/><path d="M12 5c.66 0 1.24.06 1.75.17v.54c-.5-.13-1.09-.21-1.75-.21-1.4 0-2.65.68-3.54 1.63A5.1 5.1 0 0 0 7 10.5v1H6c-1.46 0-2.35.83-2.85 1.64A4.88 4.88 0 0 0 2.5 15a4.63 4.63 0 0 0 .67 1.93c.51.8 1.4 1.57 2.83 1.57h5l.44.5H6c-1.37 0-2.35-.5-3-1.22-.66-.74-1-1.74-1-2.78 0-2 1.36-4 4-4h.5v-.5C6.5 7.63 8.67 5 12 5Z"/></svg>
