<svg xmlns="http://www.w3.org/2000/svg" width="24" height="24" fill="currentColor"><path d="M24 24H0v-1h24v1ZM19.5 12.5a2.5 2.5 0 1 1-5 0 2.5 2.5 0 0 1 5 0Z"/><path d="M20.71 8.79a5.25 5.25 0 0 0-2.96-1.49V0h-1.5v7.3a5.25 5.25 0 0 0 0 10.4V22h1.5v-4.3a5.25 5.25 0 0 0 2.96-8.91ZM17 8.75a3.75 3.75 0 1 1 0 7.5 3.75 3.75 0 0 1 0-7.5Z"/><path fill-rule="evenodd" d="M10.47 15A6.95 6.95 0 0 0 15 19.15v1.41a26.4 26.4 0 0 1-5 .44 24.6 24.6 0 0 1-5.66-.59C2.84 20.04 2 19.53 2 19v-2c0-.53.84-1.04 2.34-1.41a24.6 24.6 0 0 1 6.13-.59Zm1.15-6.96A6.93 6.93 0 0 0 10.17 14H10a24.6 24.6 0 0 1-5.66-.59C2.84 13.04 2 12.53 2 12v-2c0-.53.84-1.04 2.34-1.41A24.6 24.6 0 0 1 10 8c.55 0 1.09.01 1.62.04ZM15 1.44V5.7c-.88.2-1.54.6-2.2 1.17-.9.09-1.84.13-2.8.13a24.6 24.6 0 0 1-5.66-.59C2.84 6.04 2 5.53 2 5V3c0-.53.84-1.04 2.34-1.41A24.6 24.6 0 0 1 10 1c1.83 0 3.59.16 5 .44Z" clip-rule="evenodd"/></svg>
