<svg xmlns="http://www.w3.org/2000/svg" width="24" height="24" viewBox="0 0 24 24" fill="currentColor"><path d="M20.71 9.79a5.25 5.25 0 0 0-2.96-1.49V1h-1.5v7.3a5.25 5.25 0 0 0 0 10.4V23h1.5v-4.3a5.25 5.25 0 0 0 2.96-8.91ZM17 9.75a3.75 3.75 0 1 1 0 7.5 3.75 3.75 0 0 1 0-7.5Z"/><path d="M10.47 16A6.95 6.95 0 0 0 15 20.15v1.41c-1.65.3-3.32.45-5 .44-1.9.02-3.8-.18-5.66-.59C2.84 21.04 2 20.53 2 20v-2c0-.53.84-1.04 2.34-1.41a24.6 24.6 0 0 1 6.13-.59Zm1.15-6.96A6.93 6.93 0 0 0 10.17 15H10c-1.9.02-3.8-.18-5.66-.59C2.84 14.04 2 13.53 2 13v-2c0-.53.84-1.04 2.34-1.41a28.72 28.72 0 0 1 7.28-.55ZM15 2.44V6.7c-.88.2-1.54.6-2.2 1.17a28.27 28.27 0 0 1-8.46-.46C2.84 7.04 2 6.53 2 6V4c0-.53.84-1.04 2.34-1.41A24.6 24.6 0 0 1 10 2c1.83 0 3.59.16 5 .44Z"/></svg>
