<svg xmlns="http://www.w3.org/2000/svg" width="24" height="24" fill="currentColor"><path d="M20.71 8.79a5.25 5.25 0 0 0-2.96-1.49V0h-1.5v7.3a5.25 5.25 0 0 0 0 10.4V22h1.5v-4.3a5.25 5.25 0 0 0 2.96-8.91ZM17 8.75a3.75 3.75 0 1 1 0 7.5 3.75 3.75 0 0 1 0-7.5Z"/><path fill-rule="evenodd" d="M10.47 15a32.43 32.43 0 0 0-4.4.26c-.62.09-1.2.2-1.73.33C2.84 15.96 2 16.47 2 17v2c0 .53.84 1.04 2.34 1.41 1.5.38 3.54.59 5.66.59 1.83 0 3.59-.16 5-.44v-1.4a7.18 7.18 0 0 1-.24-.08c-1.3.26-2.97.42-4.76.42-2.04 0-3.95-.2-5.3-.54-.57-.15-.96-.3-1.2-.41v-1.1c.24-.12.63-.26 1.2-.4 1.35-.35 3.26-.55 5.3-.55.44 0 .88.01 1.3.03a6.94 6.94 0 0 1-.83-1.53Zm1.15-6.96a31.44 31.44 0 0 0-5.54.22c-.63.09-1.22.2-1.74.33C2.84 8.96 2 9.47 2 10v2c0 .53.84 1.04 2.34 1.41.52.13 1.1.24 1.74.33a28.67 28.67 0 0 0 4.09.26c-.11-.49-.17-1-.17-1.5-2.04 0-3.95-.2-5.3-.54-.57-.15-.96-.3-1.2-.41v-1.1c.24-.12.63-.26 1.2-.4a23.15 23.15 0 0 1 5.97-.54c.25-.53.57-1.02.95-1.47ZM15 1.44A26.4 26.4 0 0 0 10 1c-2.12 0-4.16.21-5.66.59C2.84 1.96 2 2.47 2 3v2c0 .53.84 1.04 2.34 1.41.52.13 1.1.24 1.74.33a28.67 28.67 0 0 0 6.71.13A5.07 5.07 0 0 1 15 5.7v-.67c-1.32.3-3.1.47-5 .47-2.04 0-3.95-.2-5.3-.54-.57-.15-.96-.3-1.2-.41v-1.1c.24-.12.63-.26 1.2-.4C6.06 2.7 7.97 2.5 10 2.5c1.9 0 3.68.18 5 .47V1.44Z" clip-rule="evenodd"/></svg>
