<svg width="16" height="16" viewBox="0 0 16 16" xmlns="http://www.w3.org/2000/svg" fill="currentColor"><rect x="8" y="4" width="1" height="1" rx="0.5"/><rect x="8" y="6" width="1" height="1" rx="0.5"/><rect x="8" y="2" width="1" height="1" rx="0.5"/><rect x="8" width="1" height="1" rx="0.5"/><path fill-rule="evenodd" clip-rule="evenodd" d="M8.00016 6.43935L9.00016 6.43935L12.6466 2.79291L13.3537 3.50001L8.85371 8.00001H8.14661L3.64661 3.50001L4.35371 2.79291L8.00016 6.43935Z"/><path fill-rule="evenodd" clip-rule="evenodd" d="M5.03544 12H2V13H5.03544C5.27806 14.6961 6.73676 16 8.5 16C10.2632 16 11.7219 14.6961 11.9646 13H15.0001V12H11.9646C11.7219 10.3039 10.2632 9 8.5 9C6.73676 9 5.27806 10.3039 5.03544 12ZM11 12.5C11 13.8807 9.88071 15 8.5 15C7.11929 15 6 13.8807 6 12.5C6 11.1193 7.11929 10 8.5 10C9.88071 10 11 11.1193 11 12.5Z"/></svg>
