<svg width="24" height="24" viewBox="0 0 24 24" xmlns="http://www.w3.org/2000/svg" fill="currentColor"><path d="M20.8653 9.00466C20.5127 8.79155 20.1397 8.60868 19.75 8.45963V7.50467H21.0017V5.99887H19.75V4.49887H21.7517L22.5017 5.24887V10.3717C22.0613 9.87235 21.5507 9.43626 20.9854 9.0789V9.00466H20.8653ZM13.6347 9.00466C13.9873 8.79155 14.3603 8.60868 14.75 8.45963V7.50467H11.2508L10.7204 7.72434L9.43373 9.01103H3.01631V4.5H9.45004L10.7292 5.7792L11.2596 5.99887H14.75V4.49887H11.5702L10.291 3.21967L9.7607 3H2.26631L1.51631 3.75V9.74472L1.5 9.76103V20.2531L2.25 21.0031H13.6476C12.9818 20.6027 12.3881 20.0947 11.8905 19.5031H3L2.99944 11.2438H3.01631V10.511H9.74439L10.2747 10.2914L11.5614 9.00466H13.6347ZM20.8524 21.0031H21.7354L22.4854 20.2531V19.6467C22.0143 20.1771 21.4637 20.6355 20.8524 21.0031Z"/><path d="M17.25 18.75C15.1789 18.75 13.5 17.0711 13.5 15C13.5 12.9289 15.1789 11.25 17.25 11.25C19.3211 11.25 21 12.9289 21 15C21 17.0711 19.3211 18.75 17.25 18.75ZM12 15C12 17.8995 14.3505 20.25 17.25 20.25C20.1495 20.25 22.5 17.8995 22.5 15C22.5 12.1005 20.1495 9.75 17.25 9.75C14.3505 9.75 12 12.1005 12 15Z"/><path d="M16.5 24V19.5H18V24H16.5Z"/><path d="M16.5 11V1H18V11H16.5Z"/></svg>
