<svg xmlns="http://www.w3.org/2000/svg" width="24" height="24" viewBox="0 0 24 24" fill="currentColor"><path d="M20.71 9.79a5.25 5.25 0 0 0-2.96-1.49V1h-1.5v7.3a5.25 5.25 0 0 0 0 10.4V23h1.5v-4.3a5.25 5.25 0 0 0 2.96-8.91ZM17 9.75a3.75 3.75 0 1 1 0 7.5 3.75 3.75 0 0 1 0-7.5Z"/><path d="M10.47 16c-1.47-.01-2.94.07-4.4.26-.62.09-1.2.2-1.73.33C2.84 16.96 2 17.47 2 18v2c0 .53.84 1.04 2.34 1.41 1.5.38 3.54.59 5.66.59 1.83 0 3.59-.16 5-.44v-1.4a7.18 7.18 0 0 1-.24-.08c-1.3.26-2.97.42-4.76.42-2.04 0-3.95-.2-5.3-.54-.57-.15-.96-.3-1.2-.41v-1.1c.24-.12.63-.26 1.2-.4 1.35-.35 3.26-.55 5.3-.55.44 0 .88.01 1.3.03a6.94 6.94 0 0 1-.83-1.53Zm1.15-6.96c-1.85-.09-3.7-.02-5.54.22-.63.09-1.22.2-1.74.33C2.84 9.96 2 10.47 2 11v2c0 .53.84 1.04 2.34 1.41.52.13 1.1.24 1.74.33 1.36.18 2.72.27 4.09.26a6.9 6.9 0 0 1-.17-1.5c-2.04 0-3.95-.2-5.3-.54-.57-.15-.96-.3-1.2-.41v-1.1c.24-.12.63-.26 1.2-.4 1.96-.44 3.97-.62 5.97-.54.25-.53.57-1.02.95-1.47ZM15 2.44A26.4 26.4 0 0 0 10 2c-2.12 0-4.16.21-5.66.59C2.84 2.96 2 3.47 2 4v2c0 .53.84 1.04 2.34 1.41.52.13 1.1.24 1.74.33 2.22.3 4.48.35 6.71.13A5.07 5.07 0 0 1 15 6.7v-.67c-1.32.3-3.1.47-5 .47-2.04 0-3.95-.2-5.3-.54-.57-.15-.96-.3-1.2-.41v-1.1c.24-.12.63-.26 1.2-.4C6.06 3.7 7.97 3.5 10 3.5c1.9 0 3.68.18 5 .47V2.44Z"/></svg>
