<svg width="32" height="32" viewBox="0 0 32 32" xmlns="http://www.w3.org/2000/svg" fill="currentColor"><path d="M2.22998 22.0041C0.614257 23.62 -0.184326 27.6621 0.0361325 31.9631C4.35498 32.1855 8.38549 31.3786 9.99486 29.769C12.5127 27.2516 12.6743 23.8949 10.3892 21.6097C8.10424 19.3248 4.74755 19.4866 2.22998 22.0041ZM8.16478 27.07C7.49413 27.7408 5.81445 28.077 4.01464 27.9842C3.92309 26.1921 4.25585 24.5078 4.92919 23.8345C5.97802 22.7854 7.37694 22.718 8.32909 23.6702C9.281 24.6224 9.21386 26.0211 8.16478 27.07ZM3.24633 9.65527L0.158202 15.831C0.0619581 16.0414 0.00819641 16.2688 0 16.5C0.000102558 16.8978 0.158171 17.2793 0.439453 17.5605C0.720735 17.8418 1.10221 17.9999 1.5 18H7.3413C8.80639 15.0367 11.1545 10.2892 12.2095 8.16699C12.2419 8.10986 12.272 8.05652 12.3047 8H5.92626C4.90478 8.00098 3.70556 8.74219 3.24633 9.65527ZM23.8335 19.7858C21.7109 20.8487 16.9546 23.2032 14 24.6654V30.513C14.0054 30.9075 14.1653 31.2842 14.4453 31.5622C14.7252 31.8402 15.103 31.9973 15.4975 32C15.7271 31.9913 15.9528 31.9375 16.1616 31.8418L22.332 28.7549C23.2461 28.2978 23.9883 27.0986 23.9883 26.0762V19.7314C23.9924 19.7289 23.9961 19.7259 24 19.7234V19.6904C23.9433 19.7229 23.8908 19.753 23.8335 19.7858Z" fill-opacity="0.74902"/><path d="M31.5725 1.21973C31.5287 1.02849 31.432 0.853417 31.2935 0.714497C31.155 0.575578 30.9802 0.478408 30.7891 0.434081C28.7642 0 27.1484 0 25.5928 0C20.021 0 15.8006 2.53845 12.3111 7.98864C12.2761 8.0498 12.2442 8.10595 12.2095 8.16698C11.1546 10.2892 8.80642 15.0367 7.34134 18H8.00003C8.78796 18 9.56817 18.1552 10.2961 18.4567C11.0241 18.7582 11.6855 19.2002 12.2427 19.7573C12.7998 20.3145 13.2418 20.9759 13.5433 21.7039C13.8448 22.4318 14 23.212 14 24V24.6654C16.9546 23.2032 21.7109 20.8487 23.8335 19.7857C23.8936 19.7514 23.948 19.7202 24.0078 19.6859C29.46 16.1821 31.999 11.9664 31.999 6.41857C32.0039 4.85046 32.0081 3.25549 31.5725 1.21973ZM23 12C22.4067 12 21.8267 11.824 21.3333 11.4944C20.84 11.1648 20.4555 10.6962 20.2284 10.1481C20.0013 9.5999 19.9419 8.99671 20.0576 8.41477C20.1734 7.83283 20.4591 7.29828 20.8787 6.87872C21.2982 6.45915 21.8327 6.17342 22.4147 6.05765C22.9966 5.94188 23.5998 6.00128 24.148 6.22832C24.6962 6.45536 25.1647 6.83986 25.4944 7.33319C25.824 7.82652 26 8.40653 26 8.99987C25.9997 9.79543 25.6835 10.5583 25.121 11.1209C24.5584 11.6834 23.7956 11.9996 23 12ZM4.92923 23.8344C4.25589 24.5078 3.92313 26.1921 4.01468 27.9842C5.81448 28.077 7.49417 27.7408 8.16482 27.07C9.21389 26.0211 9.28103 24.6224 8.32913 23.6701C7.37698 22.718 5.97805 22.7854 4.92923 23.8344Z"/></svg>
