<svg xmlns="http://www.w3.org/2000/svg" width="24" height="24" fill="currentColor"><path d="M24 24H0v-1h24v1ZM20.02 8.57a6.7 6.7 0 0 0-.27-1.04V4.5a8.21 8.21 0 0 1 1.87 5.02 7 7 0 0 0-1.6-.96ZM10.29 15.76A7 7 0 0 1 15 8.37V1.65a8.3 8.3 0 0 0-1.55-.15h-.08A8.25 8.25 0 0 0 7.2 15.22l-5.7 5.54 1.13.99 5.66-5.5a8.23 8.23 0 0 0 2.45 1.32 6.95 6.95 0 0 1-.45-1.81Z"/><path d="M18 9.8a5.25 5.25 0 0 1 0 10.4V22h-1.5v-1.8a5.25 5.25 0 0 1 0-10.4V0H18v9.8Zm-.75 8.95a3.75 3.75 0 1 0 0-7.5 3.75 3.75 0 0 0 0 7.5Z"/><path d="M19.75 15a2.5 2.5 0 1 1-5 0 2.5 2.5 0 0 1 5 0Z"/></svg>
