<svg xmlns="http://www.w3.org/2000/svg" width="16" height="16" viewBox="0 0 16 16" fill="currentColor"><path fill-rule="evenodd" d="M14 8c0 .542-.294 1.043-.767 1.309l-3.252 1.829a5.5 5.5 0 0 0-.172-1.05l2.935-1.651a.502.502 0 0 0 .001-.873L4.744 3.063A.501.501 0 0 0 4 3.5v2.525a5.4 5.4 0 0 0-1 .188V3.5a1.502 1.502 0 0 1 2.233-1.309l8 4.5c.473.266.767.767.767 1.309m-6.318 6.682a4.5 4.5 0 1 1-6.364-6.365 4.5 4.5 0 0 1 6.364 6.365m-2.681-2.681h1.83a.5.5 0 0 0 0-1H5V9.17a.5.5 0 0 0-1 0V11l-1.786-.044a.5.5 0 0 0 0 1L4.001 12v1.83a.5.5 0 0 0 1 0z" clip-rule="evenodd"/></svg>
