<svg width="16" height="16" viewBox="0 0 16 16" xmlns="http://www.w3.org/2000/svg" fill="currentColor"><path d="M12 12V9H13V12H16V13H13V16H12V13H9V12H12Z"/><path d="M1 2V5.5L1.5 6H5V5H2.479L3.42 4.059C3.74853 3.72338 4.14035 3.45624 4.57279 3.27305C5.00524 3.08985 5.46972 2.99423 5.93936 2.99172C6.409 2.98921 6.87447 3.07987 7.30885 3.25843C7.74323 3.437 8.13788 3.69994 8.46997 4.03203C8.80206 4.36412 9.065 4.75877 9.24357 5.19315C9.42213 5.62753 9.51279 6.093 9.51028 6.56264C9.50777 7.03228 9.41215 7.49677 9.22895 7.92921C9.04576 8.36165 8.77862 8.75347 8.443 9.082L3.246 14.28L3.966 15L9.164 9.802C10.021 8.94482 10.5025 7.78229 10.5024 6.57015C10.5023 5.35801 10.0207 4.19555 9.1635 3.3385C8.30632 2.48145 7.14379 2.00002 5.93165 2.00012C4.7195 2.00021 3.55705 2.48182 2.7 3.339L2 4.039V2H1Z"/></svg>
