<svg width="16" height="16" viewBox="0 0 16 16" xmlns="http://www.w3.org/2000/svg" fill="currentColor"><path d="M4.5 7L4.08397 7.22265L2.08397 10.2226L2 10.5V14.5L2.5 15H12.5L13 14.5V10.5L12.916 10.2226L10.916 7.22265L10.5 7H10V8H10.2324L11.5657 10H10.5L10.1464 10.1464L9.29289 11H5.70711L4.85355 10.1464L4.5 10H3.43426L4.76759 8H5V7H4.5ZM10.7071 11H12V14H3V11H4.29289L5.14645 11.8536L5.5 12H9.5L9.85355 11.8536L10.7071 11Z"/><path d="M7.91501 1.00001H7.08418L7.08582 1L3.04291 5.04291L3.75001 5.75001L7.00001 2.50002V9.50001H8.00001V2.50001L11.2427 5.74266L11.9498 5.03555L7.91016 1.00001L7.91501 1.00001Z"/></svg>
