<svg width="24" height="24" viewBox="0 0 24 24" xmlns="http://www.w3.org/2000/svg" fill="currentColor"><path d="M1.69885 12.9913L10.6988 3.24129L11.2499 3L18.7499 3L19.4999 3.75V11.25L19.301 11.7587L10.301 21.5087L9.21953 21.5303L1.71962 14.0303L1.69885 12.9913ZM3.28982 13.4792L9.72823 19.9177L17.9999 10.9568V4.5L11.5783 4.5L3.28982 13.4792Z"/><path d="M22.5 12C22.5 14.4853 20.4853 16.5 18 16.5C16.6797 16.5 15.4923 15.9314 14.6691 15.0258L13.5159 15.9867C14.6149 17.2219 16.2166 18 18 18C21.3137 18 24 15.3137 24 12C24 8.68631 21.3137 6.00002 18 6.00002C16.5236 6.00002 15.1717 6.53328 14.1265 7.4177L15.4439 8.29596C16.1699 7.79402 17.0506 7.50002 18 7.50002C20.4853 7.50002 22.5 9.51474 22.5 12Z"/></svg>
