<svg width="16" height="16" viewBox="0 0 16 16" xmlns="http://www.w3.org/2000/svg" fill="currentColor"><path d="M13.617 3.844C13.5174 3.53099 13.3649 3.23739 13.166 2.976L14.52 1.616L13.904 1L12.544 2.354C12.2826 2.15487 11.989 2.00199 11.676 1.902C10.9767 1.66962 10.2173 1.69624 9.536 1.977C9.16493 2.13048 8.82807 2.35619 8.545 2.641L7 4.192L11.327 8.52L12.879 6.975C13.166 6.688 13.387 6.357 13.542 5.983C13.8227 5.30171 13.8493 4.54227 13.617 3.843V3.844ZM12.728 5.648C12.6194 5.91193 12.4592 6.15159 12.257 6.353L11.327 7.283L8.237 4.193L9.167 3.263C9.36802 3.06051 9.60734 2.90006 9.871 2.791C10.1382 2.67717 10.4258 2.61908 10.7162 2.62029C11.0066 2.62149 11.2938 2.68196 11.56 2.798C11.824 2.912 12.054 3.069 12.25 3.27C12.45 3.465 12.608 3.696 12.722 3.96C12.8379 4.2261 12.8983 4.51304 12.8995 4.80328C12.9007 5.09352 12.8427 5.38095 12.729 5.648H12.728ZM7.904 10.642L9.388 9.097L8.772 8.475L7.282 10.026L5.422 8.167L6.913 6.615L6.291 6L4.808 7.545L4.192 6.93L2.641 8.475C2.35514 8.7597 2.12964 9.09914 1.978 9.473C1.82352 9.84334 1.74431 10.2407 1.745 10.642C1.745 10.974 1.795 11.298 1.895 11.612C2 11.922 2.153 12.209 2.354 12.474L1 13.834L1.615 14.449L2.975 13.096C3.24 13.296 3.527 13.449 3.837 13.554C4.151 13.654 4.475 13.704 4.807 13.704C5.213 13.704 5.603 13.627 5.977 13.472C6.355 13.317 6.687 13.096 6.975 12.809L8.52 11.257L7.904 10.642V10.642ZM5.642 12.665C5.37761 12.7744 5.09412 12.8301 4.808 12.829C4.507 12.829 4.222 12.772 3.953 12.659C3.69384 12.5481 3.4575 12.3901 3.256 12.193C3.05927 11.9914 2.90161 11.7551 2.791 11.496C2.67713 11.2258 2.6193 10.9352 2.621 10.642C2.61989 10.3547 2.6761 10.0701 2.78634 9.80482C2.89657 9.53953 3.05862 9.29889 3.263 9.097L4.193 8.167L7.283 11.257L6.353 12.187C6.14928 12.391 5.90779 12.5533 5.642 12.665V12.665Z"/></svg>
