<svg xmlns="http://www.w3.org/2000/svg" width="24" height="24" viewBox="0 0 24 24" fill="currentColor"><path d="M14.5 4.5h-3C11.17 4 10.3 3 9.5 3H2L1 4v5l1-1h.5V4.5h7c.33.5 1 1.5 2 1.5h3V4.5Zm5 1.5V4.5H22l1 1v2l-1-1h-.5V6h-2Zm-5 1.5H11c-.46.1-.7.22-1 .5L9 9H2l-1 1v10l1 1h12.4a7 7 0 0 1 .1-13.04V7.5ZM19.6 21H22l1-1v-1.9a7.02 7.02 0 0 1-3.4 2.9ZM23 10.9a7.02 7.02 0 0 0-3.5-2.94V7.5H22l1 1v2.4ZM16.25 1h1.5v9h-1.5V1Zm0 18h1.5v4h-1.5v-4Z"/><path d="M17 10.75a3.75 3.75 0 1 0 0 7.5 3.75 3.75 0 0 0 0-7.5Zm-5.25 3.75a5.25 5.25 0 1 1 10.5 0 5.25 5.25 0 0 1-10.5 0Z"/></svg>
