<svg xmlns="http://www.w3.org/2000/svg" width="24" height="24" fill="currentColor"><path d="M17.75 8.3a5.25 5.25 0 0 1 0 10.4v3.8h-1.5v-3.8a5.25 5.25 0 0 1 0-10.4V0h1.5v8.3ZM17 17.25a3.75 3.75 0 1 0 0-7.5 3.75 3.75 0 0 0 0 7.5Z"/><path d="M9.5 2c.8 0 1.67 1 2 1.5h3V5h-3c-1 0-1.67-1-2-1.5h-7V8H9l1-1c.3-.28.54-.4 1-.5h3.5v.46A7 7 0 0 0 12.67 8H11l-1 1-.25.3-.5.2H2.5v9h9.6a7 7 0 0 0 2.3 1.5H2l-1-1V3l1-1h7.5ZM23 4.5l-1-1h-2.5V5h2v1.5h-2v.46c1.46.56 2.7 1.6 3.5 2.93V4.5ZM23 17.1a7.02 7.02 0 0 1-3.4 2.9H22l1-1v-1.9Z"/></svg>
