<svg xmlns="http://www.w3.org/2000/svg" width="24" height="24" fill="currentColor"><path d="M24 24H0v-1h24v1ZM14.5 3.5h-3C11.17 3 10.3 2 9.5 2H2L1 3v6l1-1h.5V3.5h7c.33.5 1 1.5 2 1.5h3V3.5Zm5 1.5V3.5H22l1 1v3l-1.5-1V5h-2Zm-5 1.5H11c-.46.1-.7.22-1 .5L9 8H2L1 9v10l1 1h12.4a7 7 0 0 1 .1-13.04V6.5ZM19.6 20H22l1-1v-1.9a7.02 7.02 0 0 1-3.4 2.9ZM23 9.9a7.02 7.02 0 0 0-3.5-2.94V6.5h2l1.5 1v2.4ZM19.5 13.5a2.5 2.5 0 1 1-5 0 2.5 2.5 0 0 1 5 0Z"/><path d="M17.75 8.3a5.25 5.25 0 0 1 0 10.4V22h-1.5v-3.3a5.25 5.25 0 0 1 0-10.4V0h1.5v8.3ZM17 17.25a3.75 3.75 0 1 0 0-7.5 3.75 3.75 0 0 0 0 7.5Z"/></svg>
