<svg width="24" height="24" fill="none" xmlns="http://www.w3.org/2000/svg">
    <path fill="#fff" fill-rule="evenodd"
        d="M3.75 5.25a3 3 0 116 0 3 3 0 01-6 0zm3-4.5A4.5 4.5 0 006 9.688v4.624a4.501 4.501 0 00.75 8.938 4.5 4.5 0 001.184-8.843c.174-.257.37-.444.571-.58.455-.31 1.044-.431 1.743-.398h.016c.568.015 1.116.071 1.65.127l.038.004c.505.053 1.02.107 1.474.104.456-.003.975-.061 1.411-.333.415-.258.667-.65.78-1.125a4.5 4.5 0 10-1.44-.46v.01c-.032.24-.102.283-.131.3l-.001.002c-.078.048-.254.104-.63.106-.364.003-.802-.043-1.346-.1-.525-.055-1.127-.118-1.759-.134-.894-.041-1.838.106-2.647.655-.055.038-.11.077-.163.117V9.689A4.501 4.501 0 006.75.75zm6.5 7a3 3 0 116 0 3 3 0 01-6 0zm-6.5 8a3 3 0 100 6 3 3 0 000-6z" />
</svg>