<svg width="24" height="24" fill="none" xmlns="http://www.w3.org/2000/svg">
    <path fill="#fff" fill-rule="evenodd" d="M15.067 2.067L12.76 4.344h4.793a2.709 2.709 0 011.904.784 2.68 2.68 0 01.791 1.9l-.75-.002h.75v9.586a3.503 3.503 0 012.74 3.411c0 1.937-1.58 3.498-3.518 3.498-1.938 0-3.519-1.56-3.519-3.498a3.503 3.503 0 012.797-3.424V7.026a1.167 1.167 0 00-.348-.834 1.195 1.195 0 00-.847-.348h-4.845l2.28 2.339-1.074 1.047-3.52-3.61.01-1.057L14.013 1l1.054 1.067zm2.385 17.956c0-1.098.898-1.997 2.019-1.997 1.12 0 2.019.9 2.019 1.997a2.008 2.008 0 01-2.02 1.998c-1.12 0-2.018-.9-2.018-1.998zM2.5 5.007c0-1.098.898-1.998 2.019-1.998 1.12 0 2.019.9 2.019 1.998a2.008 2.008 0 01-2.02 1.998c-1.12 0-2.018-.9-2.018-1.998zM4.519 1.51C2.58 1.51 1 3.07 1 5.007c0 1.68 1.19 3.077 2.769 3.418v9.54c0 .712.285 1.395.791 1.897s1.191.783 1.904.783h4.8l-2.308 2.277 1.054 1.068 3.608-3.561.01-1.057-3.52-3.612-1.074 1.047 2.28 2.338h-4.85c-.319 0-.623-.126-.847-.348a1.173 1.173 0 01-.348-.832v-9.54a3.503 3.503 0 002.769-3.418c0-1.937-1.581-3.498-3.52-3.498z"/>
</svg>
