<svg width="24" height="24" fill="none" xmlns="http://www.w3.org/2000/svg">
    <path fill="#fff" fill-rule="evenodd" d="M20.865 9.005a6.97 6.97 0 00-1.115-.545v-.955h1.252V5.999H19.75v-1.5h2.002l.75.75v5.123c-.44-.5-.951-.936-1.517-1.293v-.074h-.12zm-7.23 0a6.97 6.97 0 011.115-.545v-.955h-3.5l-.53.22L9.434 9.01H3.016V4.5H9.45l1.28 1.28.53.219h3.49v-1.5h-3.18l-1.279-1.28L9.761 3H2.266l-.75.75v5.995L1.5 9.76v10.492l.75.75h11.398a7.035 7.035 0 01-1.758-1.5H3v-8.26h.016v-.732h6.728l.53-.22 1.287-1.286h2.074zm7.217 11.998h.883l.75-.75v-.606a7.033 7.033 0 01-1.633 1.356z"/>
    <path stroke="#fff" stroke-width="1.5" stroke-linejoin="bevel" d="M17.25 10.5a4.5 4.5 0 110 9 4.5 4.5 0 010-9z"/>
    <path stroke="#fff" stroke-width="1.5" d="M17.25 19.5V24M17.25 1v10"/>
</svg>
