<svg width="24" height="24" fill="none" xmlns="http://www.w3.org/2000/svg">
    <path fill="#fff" fill-rule="evenodd" d="M19.75 7.526a6.7 6.7 0 01.272 1.044c.578.25 1.116.575 1.6.963a8.213 8.213 0 00-1.872-5.02v3.013zm-5-4.386V1.614A8.25 8.25 0 007.199 15.22L1.5 20.758l1.125.992 5.666-5.502a8.23 8.23 0 002.445 1.321 6.956 6.956 0 01-.446-1.813A6.75 6.75 0 0114.75 3.14z"/>
    <path stroke="#fff" stroke-width="1.5" stroke-linejoin="bevel" d="M17.25 10.5a4.5 4.5 0 110 9 4.5 4.5 0 010-9z"/>
    <path stroke="#fff" stroke-width="1.5" d="M17.25 19.5V24M17.25 0v11"/>
</svg>
