<svg xmlns="http://www.w3.org/2000/svg" width="16" height="17" fill="none" viewBox="0 0 16 17">
    <path fill="#000" fill-opacity=".1" stroke="#424242" stroke-width=".5" d="M.25 1.25h15.5v15.5H.25z"/>
    <path fill="#424242" fill-rule="evenodd" d="M1.133 9.66l6-6.5L7.5 3h5l.5.5v5l-.133.34-6 6.5-.72.014-5-5-.014-.693zm1.06.326l4.293 4.292L12 8.305V4H7.719L2.193 9.986z" clip-rule="evenodd"/>
    <path fill="#424242" fill-rule="evenodd" d="M15 9a3 3 0 0 1-5.22 2.017l-.77.64a4 4 0 1 0 .407-5.713l.879.587A3 3 0 0 1 15 9z" clip-rule="evenodd"/>
</svg>