<svg xmlns="http://www.w3.org/2000/svg" width="16" height="16" fill="none" viewBox="0 0 16 16">
    <path fill="#000" fill-opacity=".1" stroke="#424242" stroke-width=".5" d="M.25.25h15.5v15.5H.25z"/>
    <path stroke="#424242" d="M8 3.5a6.453 6.453 0 0 0-6.482 6h.001c.257-3.345 3.073-6 6.481-6zm0 0a6.453 6.453 0 0 1 6.482 6h-.001c-.258-3.345-3.073-6-6.481-6zm0 4c-1.424 0-2.5 1.076-2.5 2.5M8 7.5c1.424 0 2.5 1.076 2.5 2.5M8 7.5c1.376 0 2.5 1.124 2.5 2.5M8 7.5A2.506 2.506 0 0 0 5.5 10m0 0c0 1.424 1.076 2.5 2.5 2.5M5.5 10c0 1.376 1.124 2.5 2.5 2.5m2.5-2.5c0 1.424-1.076 2.5-2.5 2.5m2.5-2.5c0 1.376-1.124 2.5-2.5 2.5"/>
</svg>