<?xml version="1.0" encoding="utf-8"?>
<svg xmlns="http://www.w3.org/2000/svg" viewBox="0 0 16 22">
    <path fill="#A3A3A3" d="M15.12 11.98l-.8-2.57-1.59-5.1a.27.28 0 0 0-.52 0l-1.58 5.1H5.36l-1.59-5.1a.27.28 0 0 0-.51 0l-1.59 5.1-.8 2.57a.55.57 0 0 0 .2.64L8 17.87l6.93-5.25a.55.57 0 0 0 .2-.64"/>
    <path fill="#424242" d="M8 17.87l2.63-8.46H5.36L8 17.87z"/>
    <path fill="#696969" d="M8 17.87L5.35 9.41H1.67L8 17.87z"/>
    <path fill="#A3A3A3" d="M1.67 9.41l-.8 2.57a.54.57 0 0 0 .2.64L8 17.87 1.67 9.41z"/>
    <path fill="#424242" d="M1.67 9.41h3.7l-1.6-5.1a.27.28 0 0 0-.51 0l-1.59 5.1z"/>
    <path fill="#696969" d="M8 17.87l2.63-8.46h3.69l-6.33 8.46z"/>
    <path fill="#A3A3A3" d="M14.32 9.41l.8 2.57a.54.57 0 0 1-.2.64l-6.93 5.25 6.33-8.46z"/>
    <path fill="#424242" d="M14.32 9.41h-3.7l1.6-5.1a.27.28 0 0 1 .51 0l1.59 5.1z"/>
</svg>
