<svg width="16" height="16" viewBox="0 0 16 16" fill="none" xmlns="http://www.w3.org/2000/svg">
<mask id="mask0" mask-type="alpha" maskUnits="userSpaceOnUse" x="1" y="1" width="14" height="14">
<path fill-rule="evenodd" clip-rule="evenodd" d="M9.41155 1L9.89605 3.42252L11.9516 2.05214L13.9479 4.04837L12.5775 6.10396L15 6.58846V9.41156L12.5775 9.89606L13.9479 11.9516L11.9516 13.9479L9.89606 12.5775L9.41155 15H6.58845L6.10395 12.5775L4.04838 13.9479L2.05214 11.9516L3.42253 9.89606L1 9.41156V6.58846L3.42252 6.10396L2.05214 4.04839L4.04837 2.05215L6.10395 3.42254L6.58845 1.00002L9.41155 1ZM11.6369 6.94069L11.3207 6.17737L12.6547 4.17642L11.8236 3.3453L9.82263 4.67927L9.05931 4.36311L8.58769 2.00496L7.41231 2.00497L6.94069 4.36313L6.17737 4.67928L4.17642 3.34532L3.34531 4.17643L4.67928 6.17739L4.36309 6.94069L2.00495 7.41232V8.5877L4.36309 9.05932L4.67929 9.82263L3.34531 11.8236L4.17643 12.6547L6.17738 11.3207L6.94068 11.6369L7.41231 13.9951H8.58769L9.05931 11.6369L9.82263 11.3207L11.8236 12.6547L12.6547 11.8236L11.3207 9.82262L11.6369 9.05932L13.995 8.5877V7.41232L11.6369 6.94069ZM9 8C9 8.55228 8.55228 9 8 9C7.44772 9 7 8.55228 7 8C7 7.44772 7.44772 7 8 7C8.55228 7 9 7.44772 9 8ZM10 8C10 9.10457 9.10457 10 8 10C6.89543 10 6 9.10457 6 8C6 6.89543 6.89543 6 8 6C9.10457 6 10 6.89543 10 8Z" fill="white"/>
</mask>
<g mask="url(#mask0)">
<path d="M9.89605 3.42253L8.91547 3.61865L9.20831 5.08287L10.4507 4.25458L9.89605 3.42253ZM9.41155 1.00001L10.3921 0.803893L10.2314 0L9.41154 6.23587e-06L9.41155 1.00001ZM11.9516 2.05215L12.6587 1.34504L12.079 0.76535L11.3969 1.2201L11.9516 2.05215ZM13.9479 4.04838L14.7799 4.60308L15.2347 3.92096L14.655 3.34127L13.9479 4.04838ZM12.5775 6.10397L11.7454 5.54926L10.9171 6.7917L12.3814 7.08455L12.5775 6.10397ZM15 6.58847H16V5.76867L15.1961 5.60789L15 6.58847ZM15 9.41157L15.1961 10.3921L16 10.2314V9.41157H15ZM12.5775 9.89607L12.3814 8.91549L10.9172 9.20833L11.7454 10.4508L12.5775 9.89607ZM13.9479 11.9516L14.655 12.6587L15.2347 12.079L14.7799 11.3969L13.9479 11.9516ZM11.9516 13.9479L11.3969 14.7799L12.0791 15.2346L12.6587 14.655L11.9516 13.9479ZM9.89606 12.5775L10.4508 11.7454L9.20832 10.9171L8.91548 12.3814L9.89606 12.5775ZM9.41155 15V16H10.2314L10.3921 15.1961L9.41155 15ZM6.58845 15L5.60787 15.1961L5.76865 16H6.58845V15ZM6.10395 12.5775L7.08453 12.3814L6.79168 10.9172L5.54925 11.7454L6.10395 12.5775ZM4.04838 13.9479L3.34127 14.655L3.92096 15.2347L4.60308 14.7799L4.04838 13.9479ZM2.05214 11.9516L1.22009 11.3969L0.765349 12.0791L1.34504 12.6587L2.05214 11.9516ZM3.42253 9.89607L4.25458 10.4508L5.08287 9.20834L3.61865 8.91549L3.42253 9.89607ZM1 9.41157H0V10.2314L0.803884 10.3921L1 9.41157ZM1 6.58847L0.803884 5.60789L0 5.76867V6.58847H1ZM3.42252 6.10397L3.61864 7.08455L5.08286 6.7917L4.25457 5.54927L3.42252 6.10397ZM2.05214 4.0484L1.34503 3.34129L0.765344 3.92098L1.22009 4.6031L2.05214 4.0484ZM4.04837 2.05216L4.60307 1.22011L3.92096 0.765365L3.34127 1.34506L4.04837 2.05216ZM6.10395 3.42255L5.54925 4.2546L6.79169 5.08289L7.08453 3.61866L6.10395 3.42255ZM6.58845 1.00003L6.58844 2.77098e-05L5.76864 3.39456e-05L5.60787 0.803914L6.58845 1.00003ZM11.3207 6.17738L10.4887 5.62268L10.1926 6.06686L10.3968 6.56006L11.3207 6.17738ZM11.6369 6.9407L10.713 7.32338L10.9173 7.81659L11.4408 7.92128L11.6369 6.9407ZM12.6547 4.17643L13.4867 4.73113L13.9415 4.04901L13.3618 3.46932L12.6547 4.17643ZM11.8236 3.34531L12.5307 2.63821L11.951 2.05852L11.2689 2.51326L11.8236 3.34531ZM9.82263 4.67928L9.43997 5.60317L9.93316 5.80744L10.3773 5.51133L9.82263 4.67928ZM9.05931 4.36312L8.07873 4.55924L8.18343 5.08273L8.67665 5.28701L9.05931 4.36312ZM8.58769 2.00497L9.56827 1.80885L9.40749 1.00496L8.58768 1.00497L8.58769 2.00497ZM7.41231 2.00498V1.00498H6.59251L6.43173 1.80886L7.41231 2.00498ZM6.94069 4.36314L7.32335 5.28703L7.81658 5.08274L7.92127 4.55925L6.94069 4.36314ZM6.17737 4.67929L5.62267 5.51134L6.06684 5.80746L6.56003 5.60318L6.17737 4.67929ZM4.17642 3.34533L4.73112 2.51328L4.049 2.05853L3.46932 2.63822L4.17642 3.34533ZM3.34531 4.17644L2.6382 3.46934L2.05851 4.04903L2.51326 4.73114L3.34531 4.17644ZM4.67928 6.1774L5.60315 6.5601L5.80746 6.06689L5.51133 5.6227L4.67928 6.1774ZM4.36309 6.9407L4.55921 7.92129L5.08267 7.81659L5.28697 7.3234L4.36309 6.9407ZM2.00495 7.41233L1.80884 6.43175L1.00495 6.59253V7.41233H2.00495ZM2.00495 8.58771H1.00495V9.40751L1.80884 9.56829L2.00495 8.58771ZM4.36309 9.05933L5.28696 8.67663L5.08266 8.18344L4.55921 8.07875L4.36309 9.05933ZM4.67929 9.82264L5.51134 10.3773L5.80747 9.93315L5.60316 9.43994L4.67929 9.82264ZM3.34531 11.8236L2.51326 11.2689L2.05852 11.951L2.63821 12.5307L3.34531 11.8236ZM4.17643 12.6547L3.46932 13.3618L4.04901 13.9415L4.73113 13.4868L4.17643 12.6547ZM6.17738 11.3207L6.56007 10.3969L6.06686 10.1926L5.62268 10.4887L6.17738 11.3207ZM6.94068 11.6369L7.92126 11.4408L7.81657 10.9173L7.32337 10.713L6.94068 11.6369ZM7.41231 13.9951L6.43173 14.1912L6.59251 14.9951H7.41231V13.9951ZM8.58769 13.9951V14.9951H9.40749L9.56827 14.1912L8.58769 13.9951ZM9.05931 11.6369L8.67661 10.713L8.18343 10.9173L8.07873 11.4408L9.05931 11.6369ZM9.82263 11.3207L10.3773 10.4887L9.93313 10.1925L9.43992 10.3968L9.82263 11.3207ZM11.8236 12.6547L11.2689 13.4867L11.951 13.9415L12.5307 13.3618L11.8236 12.6547ZM12.6547 11.8236L13.3618 12.5307L13.9415 11.951L13.4868 11.2689L12.6547 11.8236ZM11.3207 9.82263L10.3969 9.43995L10.1926 9.93316L10.4887 10.3773L11.3207 9.82263ZM11.6369 9.05933L11.4408 8.07875L10.9173 8.18345L10.713 8.67665L11.6369 9.05933ZM13.995 8.58771L14.1912 9.56829L14.995 9.40751V8.58771H13.995ZM13.995 7.41233H14.995V6.59253L14.1912 6.43175L13.995 7.41233ZM10.8766 3.22642L10.3921 0.803893L8.43097 1.19612L8.91547 3.61865L10.8766 3.22642ZM11.3969 1.2201L9.34135 2.59048L10.4507 4.25458L12.5063 2.8842L11.3969 1.2201ZM14.655 3.34127L12.6587 1.34504L11.2445 2.75926L13.2408 4.75549L14.655 3.34127ZM13.4095 6.65867L14.7799 4.60308L13.1158 3.49368L11.7454 5.54926L13.4095 6.65867ZM15.1961 5.60789L12.7736 5.12338L12.3814 7.08455L14.8039 7.56905L15.1961 5.60789ZM16 9.41157V6.58847H14V9.41157H16ZM12.7736 10.8766L15.1961 10.3921L14.8039 8.43099L12.3814 8.91549L12.7736 10.8766ZM14.7799 11.3969L13.4095 9.34137L11.7454 10.4508L13.1158 12.5063L14.7799 11.3969ZM12.6587 14.655L14.655 12.6587L13.2408 11.2445L11.2445 13.2407L12.6587 14.655ZM9.34136 13.4095L11.3969 14.7799L12.5063 13.1158L10.4508 11.7454L9.34136 13.4095ZM10.3921 15.1961L10.8766 12.7736L8.91548 12.3814L8.43097 14.8039L10.3921 15.1961ZM6.58845 16H9.41155V14H6.58845V16ZM5.12337 12.7736L5.60787 15.1961L7.56903 14.8039L7.08453 12.3814L5.12337 12.7736ZM4.60308 14.7799L6.65865 13.4095L5.54925 11.7454L3.49368 13.1158L4.60308 14.7799ZM1.34504 12.6587L3.34127 14.655L4.75549 13.2408L2.75925 11.2445L1.34504 12.6587ZM2.59048 9.34137L1.22009 11.3969L2.88419 12.5063L4.25458 10.4508L2.59048 9.34137ZM0.803884 10.3921L3.22641 10.8766L3.61865 8.91549L1.19612 8.43099L0.803884 10.3921ZM0 6.58847V9.41157H2V6.58847H0ZM3.22641 5.12339L0.803884 5.60789L1.19612 7.56905L3.61864 7.08455L3.22641 5.12339ZM1.22009 4.6031L2.59047 6.65867L4.25457 5.54927L2.88419 3.49369L1.22009 4.6031ZM3.34127 1.34506L1.34503 3.34129L2.75925 4.7555L4.75548 2.75927L3.34127 1.34506ZM6.65865 2.5905L4.60307 1.22011L3.49367 2.88421L5.54925 4.2546L6.65865 2.5905ZM5.60787 0.803914L5.12337 3.22643L7.08453 3.61866L7.56903 1.19614L5.60787 0.803914ZM9.41154 6.23587e-06L6.58844 2.77098e-05L6.58846 2.00003L9.41156 2.00001L9.41154 6.23587e-06ZM10.3968 6.56006L10.713 7.32338L12.5608 6.55802L12.2446 5.7947L10.3968 6.56006ZM11.8226 3.62173L10.4887 5.62268L12.1528 6.73208L13.4867 4.73113L11.8226 3.62173ZM11.1165 4.05242L11.9476 4.88354L13.3618 3.46932L12.5307 2.63821L11.1165 4.05242ZM10.3773 5.51133L12.3783 4.17736L11.2689 2.51326L9.26793 3.84723L10.3773 5.51133ZM8.67665 5.28701L9.43997 5.60317L10.2053 3.75539L9.44197 3.43923L8.67665 5.28701ZM7.60711 2.20108L8.07873 4.55924L10.0399 4.16701L9.56827 1.80885L7.60711 2.20108ZM7.41232 3.00498L8.5877 3.00497L8.58768 1.00497L7.41231 1.00498L7.41232 3.00498ZM7.92127 4.55925L8.3929 2.20109L6.43173 1.80886L5.96011 4.16703L7.92127 4.55925ZM6.56003 5.60318L7.32335 5.28703L6.55803 3.43925L5.79471 3.7554L6.56003 5.60318ZM3.62172 4.17738L5.62267 5.51134L6.73207 3.84724L4.73112 2.51328L3.62172 4.17738ZM4.05241 4.88355L4.88353 4.05244L3.46932 2.63822L2.6382 3.46934L4.05241 4.88355ZM5.51133 5.6227L4.17736 3.62174L2.51326 4.73114L3.84723 6.7321L5.51133 5.6227ZM5.28697 7.3234L5.60315 6.5601L3.75541 5.7947L3.43922 6.55801L5.28697 7.3234ZM2.20107 8.39291L4.55921 7.92129L4.16698 5.96012L1.80884 6.43175L2.20107 8.39291ZM3.00495 8.58771V7.41233H1.00495V8.58771H3.00495ZM4.55921 8.07875L2.20107 7.60713L1.80884 9.56829L4.16698 10.0399L4.55921 8.07875ZM5.60316 9.43994L5.28696 8.67663L3.43922 9.44204L3.75542 10.2053L5.60316 9.43994ZM4.17736 12.3783L5.51134 10.3773L3.84724 9.26794L2.51326 11.2689L4.17736 12.3783ZM4.88353 11.9476L4.05242 11.1165L2.63821 12.5307L3.46932 13.3618L4.88353 11.9476ZM5.62268 10.4887L3.62173 11.8227L4.73113 13.4868L6.73208 12.1528L5.62268 10.4887ZM7.32337 10.713L6.56007 10.3969L5.7947 12.2446L6.558 12.5608L7.32337 10.713ZM8.39289 13.7989L7.92126 11.4408L5.9601 11.833L6.43173 14.1912L8.39289 13.7989ZM8.58769 12.9951H7.41231V14.9951H8.58769V12.9951ZM8.07873 11.4408L7.60711 13.7989L9.56827 14.1912L10.0399 11.833L8.07873 11.4408ZM9.43992 10.3968L8.67661 10.713L9.44202 12.5608L10.2053 12.2446L9.43992 10.3968ZM12.3783 11.8226L10.3773 10.4887L9.26793 12.1528L11.2689 13.4867L12.3783 11.8226ZM11.9476 11.1165L11.1165 11.9476L12.5307 13.3618L13.3618 12.5307L11.9476 11.1165ZM10.4887 10.3773L11.8227 12.3783L13.4868 11.2689L12.1528 9.26793L10.4887 10.3773ZM10.713 8.67665L10.3969 9.43995L12.2446 10.2053L12.5608 9.44201L10.713 8.67665ZM13.7989 7.60713L11.4408 8.07875L11.833 10.0399L14.1912 9.56829L13.7989 7.60713ZM12.995 7.41233V8.58771H14.995V7.41233H12.995ZM11.4408 7.92128L13.7989 8.39291L14.1912 6.43175L11.833 5.96012L11.4408 7.92128ZM8 10C9.10457 10 10 9.10458 10 8.00001H8V10ZM6 8.00001C6 9.10458 6.89543 10 8 10V8.00001H6ZM8 6.00001C6.89543 6.00001 6 6.89544 6 8.00001H8V6.00001ZM10 8.00001C10 6.89544 9.10457 6.00001 8 6.00001V8.00001H10ZM8 11C9.65685 11 11 9.65686 11 8.00001H9C9 8.55229 8.55228 9.00001 8 9.00001V11ZM5 8.00001C5 9.65686 6.34315 11 8 11V9.00001C7.44772 9.00001 7 8.55229 7 8.00001H5ZM8 5.00001C6.34315 5.00001 5 6.34316 5 8.00001H7C7 7.44773 7.44772 7.00001 8 7.00001V5.00001ZM11 8.00001C11 6.34316 9.65685 5.00001 8 5.00001V7.00001C8.55228 7.00001 9 7.44773 9 8.00001H11Z" fill="#424242"/>
</g>
</svg>
