<?xml version="1.0" encoding="utf-8"?>
<svg xmlns="http://www.w3.org/2000/svg" viewBox="0 0 16 22">
    <path fill="#424242" d="M8.27 6.03a8.61 8.61 0 0 0-1.3 1.37c0 .48 2.68 2.57 3.36 2.57.86 0 1-.41.24-1.03-.89-.72-.58-1.03 1.03-1.03 1.13 0 1.55.14 1.55.52 0 .27.24.51.5.51.35 0 .52.35.52 1.03 0 .69-.17 1.03-.51 1.03a.53.53 0 0 0-.52.51c0 .72-2.91.72-3.22 0-.1-.27-.58-.51-1.06-.51-.55 0-.86-.2-.86-.51 0-.35-.34-.52-1.03-.52-.68 0-1.03-.17-1.03-.51 0-.38-.41-.52-1.54-.52-1.13 0-1.55.14-1.55.52 0 .27-.24.51-.5.51a.53.53 0 0 0-.52.52c0 .27-.24.51-.52.51-.34 0-.51.34-.51 1.03s.17 1.03.51 1.03c.28 0 .52.24.52.51 0 .28.24.52.51.52s.52.24.52.51c0 .38.4.52 1.54.52 1.61 0 1.92.3 1.03 1.03-.76.61-.62 1.02.27 1.02.65 0 3.33-2.09 3.33-2.57s-2.68-2.57-3.33-2.57c-.89 0-1.03.41-.27 1.03.89.72.58 1.03-1.03 1.03-1.13 0-1.55-.14-1.55-.52a.53.53 0 0 0-.5-.51c-.35 0-.52-.35-.52-1.03 0-.69.17-1.03.51-1.03.27 0 .52-.24.52-.51 0-.72 2.91-.72 3.22 0 .1.27.58.51 1.06.51.55 0 .86.2.86.51 0 .35.34.52 1.03.52s1.03.17 1.03.51c0 .38.41.52 1.54.52 1.13 0 1.55-.14 1.55-.52 0-.27.24-.51.5-.51.28 0 .52-.24.52-.52 0-.27.24-.51.52-.51.34 0 .51-.34.51-1.03s-.17-1.03-.51-1.03a.53.53 0 0 1-.52-.51.53.53 0 0 0-.51-.52.53.53 0 0 1-.52-.51c0-.38-.4-.52-1.54-.52-1.61 0-1.92-.3-1.03-1.02.76-.62.62-1.03-.24-1.03-.44 0-1.37.54-2.06 1.2z"/>
</svg>
