<svg xmlns="http://www.w3.org/2000/svg" width="16" height="16" fill="none" viewBox="0 0 16 16">
    <path fill="#424242" fill-rule="evenodd" d="M11 6.56l-.854.854L10 7.268V14H2V3h4v4h3.732l-1-1H7V2.732l.565-.565L7.5 2.1 7.2 2H1.5l-.5.5v12l.5.5h9l.5-.5V6.56zm-.274-1.14l-.58.58L8 3.854 10.146 6l.58-.58z" clip-rule="evenodd"/>
    <path fill="#424242" fill-rule="evenodd" d="M10.146 6L8 3.854v-.708L10.146 1l.708.707L9.56 3h3a2.5 2.5 0 0 1 0 5h-.5V7h.5a1.5 1.5 0 0 0 0-3h-3l1.293 1.293-.708.707z" clip-rule="evenodd"/>
</svg>
