<svg xmlns="http://www.w3.org/2000/svg" width="16" height="16" fill="none" viewBox="0 0 16 16">
    <path fill="#000" fill-opacity=".1" stroke="#424242" stroke-width=".5" d="M.25.25h15.5v15.5H.25z"/>
    <path fill="#424242" fill-rule="evenodd" d="M8 10.75c2.59 0 4.1-1.218 5.233-2.75C12.1 6.468 10.59 5.25 8 5.25S3.9 6.468 2.767 8C3.9 9.532 5.41 10.75 8 10.75zM14.75 8c-1.294 2-3.177 4-6.75 4s-5.456-2-6.75-4C2.544 6 4.427 4 8 4s5.456 2 6.75 4zM8 9.75a1.75 1.75 0 1 0 0-3.5 1.75 1.75 0 0 0 0 3.5z" clip-rule="evenodd"/>
</svg>
