<?xml version="1.0" encoding="utf-8"?>
<svg xmlns="http://www.w3.org/2000/svg" viewBox="0 0 16 22">
    <path fill="#424242" d="m12.901149,9.091851l-0.094,0.071c-0.269,0.333 -0.746,1.096 -0.91,2.375c0.057,0.277 0.092,0.495 0.092,0.545c0,2.206 -1.794,4 -4,4a3.986,3.986 0 0 1 -2.817,-1.164a3.987,3.987 0 0 1 -1.163,-2.815c0,-2.206 1.794,-4 4,-4l0.351,0.025l0,1.85s1.626,-1.342 1.631,-1.339l1.869,-1.577l-3.5,-2.917l0,2.218l-0.371,-0.03a5.75,5.75 0 0 0 -4.055,9.826a5.75,5.75 0 0 0 9.826,-4.056a5.725,5.725 0 0 0 -0.859,-3.012z"/>
</svg>
