<?xml version="1.0" encoding="utf-8"?>
<svg xmlns="http://www.w3.org/2000/svg" viewBox="0 0 16 22">
    <path fill="#424242" d="m13,8c0,-1.11 -0.89,-2 -2,-2c-1.11,0 -2,0.89 -2,2c0,0.73 0.41,1.38 1,1.72l0,0.3c-0.02,0.52 -0.23,0.98 -0.63,1.38c-0.4,0.4 -0.86,0.61 -1.38,0.63c-0.83,0.02 -1.48,0.16 -2,0.45l0,-4.76c0.59,-0.34 1,-0.98 1,-1.72c0,-1.11 -0.89,-2 -2,-2c-1.11,0 -1.99,0.89 -1.99,2c0,0.73 0.41,1.38 1,1.72l0,6.56c-0.59,0.35 -1,0.99 -1,1.72c0,1.11 0.89,2 2,2c1.11,0 2,-0.89 2,-2c0,-0.53 -0.2,-1 -0.53,-1.36c0.09,-0.06 0.48,-0.41 0.59,-0.47c0.25,-0.11 0.56,-0.17 0.94,-0.17c1.05,-0.05 1.95,-0.45 2.75,-1.25c0.8,-0.8 1.2,-1.98 1.25,-3.02l-0.02,0c0.61,-0.36 1.02,-1 1.02,-1.73l0,0zm-8,-3.2c0.66,0 1.2,0.55 1.2,1.2c0,0.65 -0.55,1.2 -1.2,1.2c-0.65,0 -1.2,-0.55 -1.2,-1.2c0,-0.65 0.55,-1.2 1.2,-1.2l0,0zm0,12.41c-0.66,0 -1.2,-0.55 -1.2,-1.2c0,-0.65 0.55,-1.2 1.2,-1.2c0.65,0 1.2,0.55 1.2,1.2c0,0.65 -0.55,1.2 -1.2,1.2l0,0zm6,-8c-0.66,0 -1.2,-0.55 -1.2,-1.2c0,-0.65 0.55,-1.2 1.2,-1.2c0.65,0 1.2,0.55 1.2,1.2c0,0.65 -0.55,1.2 -1.2,1.2l0,0z"/>
    <ellipse cx="13" cy="17" fill="#32cd32" stroke="#424242" stroke-width="0.5" rx="3" ry="3"/>
</svg>
