<svg xmlns="http://www.w3.org/2000/svg" width="16" height="16" fill="none" viewBox="0 0 16 16">
    <path fill="#6C6C6C" fill-rule="evenodd" d="M7.5 15a7.5 7.5 0 1 0 0-15 7.5 7.5 0 0 0 0 15zM9.19 2.822c-.439-.215-.97-.322-1.596-.322-1.25 0-2.282.478-3.094 1.435l1.05.798c.275-.331.579-.574.91-.728.331-.154.66-.231.987-.231.415 0 .76.093 1.036.28.275.182.413.448.413.798 0 .275-.082.509-.245.7-.159.187-.36.364-.602.532a9.506 9.506 0 0 0-.728.56 2.66 2.66 0 0 0-.602.763c-.159.299-.238.679-.238 1.141v.483h1.498v-.413c0-.364.086-.663.259-.896a2.76 2.76 0 0 1 .637-.616c.252-.177.504-.362.756-.553.257-.196.471-.436.644-.721.173-.285.259-.651.259-1.099 0-.387-.114-.749-.343-1.085-.229-.34-.562-.616-1.001-.826zm-1.169 7.917a1.024 1.024 0 0 0-.763-.315c-.294 0-.544.105-.749.315-.2.205-.301.453-.301.742 0 .294.1.546.301.756.205.205.455.308.749.308.303 0 .558-.103.763-.308.205-.21.308-.462.308-.756 0-.29-.103-.537-.308-.742z" clip-rule="evenodd"/>
</svg>
