<?xml version="1.0" encoding="utf-8"?>
<svg xmlns="http://www.w3.org/2000/svg" viewBox="0 0 16 22">
    <path fill="#424242" d="M13 9.126a4.995 4.995 0 0 1-1.746 3.797L5.67 17.874l-1.324-1.496 5.595-4.962a3.01 3.01 0 0 0 1.061-2.29c0-1.654-1.345-3-2.997-3-.71 0-1.399.253-1.938.713L4.546 8.126h2.448l-1.998 2H1v-4l1.998-2v2.692l1.775-1.504a4.987 4.987 0 0 1 3.232-1.188 5.003 5.003 0 0 1 4.995 5z"/>
    <path fill="#424242" stroke="#FFF" stroke-opacity=".6" stroke-width="2" d="M9.272 11h2.457v3.272H15v2.456h-3.271V20H9.272v-3.272H6v-2.456h3.272z" paint-order="stroke"/>
</svg>
