<svg xmlns="http://www.w3.org/2000/svg" width="16" height="16" fill="none" viewBox="0 0 16 16">
  <path fill="#424242" d="M13.725 7.025a3.5 3.5 0 0 0-1.975-.99V.5h-1v5.536a3.5 3.5 0 0 0 0 6.928V15.5h1v-2.536a3.5 3.5 0 0 0 1.975-5.939Zm-.707.707a2.5 2.5 0 1 1-3.536 3.536 2.5 2.5 0 0 1 3.536-3.536ZM7.123 4.67l.408-.18H8.8V2.501H7.707L6.85 1.65l-.344-.15H1.5l-.488.5v3.504H6.3l.822-.833ZM14.996 3 15 4.49h-1.2V2.501h.7l.496.499ZM6.434 6.493l.372-.165a5.5 5.5 0 0 0 .719 7.172H1.5L1 13V6.493h5.434Z"/>
  <circle cx="11.25" cy="9.5" r="3" fill="none"/>
</svg>
