<svg xmlns="http://www.w3.org/2000/svg" width="16" height="16" fill="none" viewBox="0 0 16 16">
    <path fill="#424242" fill-rule="evenodd" d="M8.8 3.182C9.31 2.496 10.03 2 11 2c1.658.103 2.953 1.548 3 3.545 0 .591-.09 1.785-.66 3.156C12.77 10.07 10.98 12.175 8 15c-2.99-2.825-4.75-4.94-5.33-6.3A8.16 8.16 0 0 1 2 5.546C2.046 3.575 3.368 2.102 5 2c1.03 0 1.68.496 2.2 1.182.52.685.78 1.087.8 1.182.02-.095.29-.497.8-1.182zm.2.985c.425-.572 1.192-1.084 2-1.084 1.382.086 1.96 1.044 2 2.709 0 .492-.025 1.566-.5 2.708-.475 1.142-2.017 3.063-4.5 5.417C5.508 11.563 3.983 9.633 3.5 8.5 3.017 7.367 3 6.304 3 5.792c.038-1.642.64-2.624 2-2.709.858 0 1.567.512 2 1.084.433.57.983 1.546 1 1.625.017-.08.575-1.054 1-1.625z" clip-rule="evenodd"/>
</svg>
