<?xml version="1.0" encoding="utf-8"?>
<svg xmlns="http://www.w3.org/2000/svg" viewBox="0 0 16 22">
    <path fill="#424242" d="M6.006 5.313h3.988-3.988zm3.988.945l-4.011.047 4.011-.047zm3.614-.124a.983.983 0 0 0-.955-.821L10 5.3v1l2.777-.042.955 6.688h-1.318a.991.991 0 0 0-.87.525l.01.01-.42.85a.97.97 0 0 1-.87.535H5.717a.962.962 0 0 1-.851-.525l-.42-.87a.974.974 0 0 0-.85-.525H2.268l.955-6.688L6 6.3v-1l-2.653.013a.983.983 0 0 0-.955.821l-1.08 6.821v4.777c0 .526.43.956.956.956h11.464c.526 0 .956-.43.956-.956v-4.777l-1.08-6.821z"/>
    <path fill="#424242" d="M6.698 7.8H4.032l4 4 4-4H9.366L9.392 3h-2.72l.026 4.8z"/>
</svg>
