<svg xmlns="http://www.w3.org/2000/svg" width="16" height="16" fill="none" viewBox="0 0 16 16">
	<path fill="#000" fill-opacity=".1" stroke="#424242" stroke-width=".5" d="M.25.25h15.5v15.5H.25z"/>
	<path fill="#424242" d="M11.82 6.07c1.29 0 1.94.69 1.94 2.05v3.58h-.88v-.86h-.03c-.38.66-.94 1-1.69 1-.55 0-.98-.15-1.29-.44-.3-.3-.46-.68-.46-1.16 0-1.03.6-1.62 1.82-1.8l1.64-.22c0-.94-.37-1.4-1.13-1.4a2.7 2.7 0 0 0-1.8.67v-.9a3.4 3.4 0 0 1 1.88-.52ZM8.85 11.7h-1l-.81-2.16H3.77L3 11.7H2L4.95 4h.94l2.96 7.7Zm2.7-2.6c-.4.06-.72.16-.93.3-.2.15-.3.4-.3.78 0 .27.09.49.28.66.2.17.45.25.77.25.43 0 .8-.15 1.08-.46.28-.3.43-.7.43-1.16v-.55l-1.33.18ZM5.39 4.93c-.03.22-.07.4-.12.52l-1.2 3.28h2.67l-1.2-3.28c-.05-.1-.08-.28-.12-.52h-.03Z"/>
</svg>
