<svg width="16" height="16" viewBox="0 0 16 16" fill="none" xmlns="http://www.w3.org/2000/svg">
<path d="M11.8337 6.20183C12.577 6.30915 13.2709 6.65475 13.8083 7.19206C14.4645 7.84842 14.8337 8.73849 14.8337 9.66667C14.8337 10.5949 14.4645 11.4849 13.8083 12.1413C13.271 12.6786 12.5769 13.0232 11.8337 13.1305V15.3337H10.8337V13.1305C10.0902 13.0233 9.3955 12.6787 8.85807 12.1413C8.2019 11.4849 7.83366 10.5948 7.83366 9.66667C7.83366 8.73857 8.2019 7.84841 8.85807 7.19206C9.39554 6.65459 10.0901 6.30905 10.8337 6.20183V0.666672H11.8337V6.20183ZM11.3337 7.16667C11.0054 7.16667 10.6799 7.23146 10.3766 7.3571C10.0733 7.48274 9.79724 7.66696 9.5651 7.89909C9.33322 8.13106 9.14966 8.40664 9.02409 8.70964C8.89845 9.01295 8.83366 9.33837 8.83366 9.66667C8.83366 9.99498 8.89845 10.3204 9.02409 10.6237C9.14966 10.9267 9.33322 11.2023 9.5651 11.4342C9.79724 11.6664 10.0733 11.8506 10.3766 11.9762C10.6799 12.1019 11.0054 12.1667 11.3337 12.1667C11.9966 12.1666 12.6325 11.903 13.1012 11.4342C13.57 10.9654 13.8337 10.3296 13.8337 9.66667C13.8337 9.00371 13.57 8.36792 13.1012 7.89909C12.6325 7.43033 11.9966 7.16676 11.3337 7.16667Z" fill="#424242"/>
<path d="M9.66666 5.30632C8.78978 5.64163 8.03399 6.23429 7.4987 7.00554C6.96366 7.7766 6.67317 8.69108 6.66569 9.62956C6.65827 10.5683 6.93467 11.4877 7.45768 12.2673C7.98073 13.0469 8.72682 13.6506 9.5983 13.9997H1.33366L0.666664 13.3337V6.66667L1.33366 5.99968H5.99967L6.66666 5.33366C6.868 5.14433 7.02699 5.06768 7.33366 4.99968H9.66666V5.30632Z" fill="#424242"/>
<path d="M15.3337 12.0719V13.3337L14.6667 13.9997H13.069C14.0132 13.6201 14.8084 12.9435 15.3337 12.0719Z" fill="#424242"/>
<path d="M15.3337 5.66667V7.2614C14.7953 6.36818 13.9734 5.67985 12.9997 5.30632V4.99968H14.6667L15.3337 5.66667Z" fill="#424242"/>
<path d="M6.33366 1.99968C6.86678 1.99995 7.4446 2.66634 7.66666 2.99968H9.66666V3.99968H7.66666C7.16658 3.99968 6.79163 3.62472 6.54166 3.29655L6.33366 2.99968H1.66666V5.33366H1.33366L0.666664 5.99968V2.66667L1.33366 1.99968H6.33366Z" fill="#424242"/>
<path d="M15.3337 3.66667V4.99968L14.6667 4.33366H14.3337V3.99968H12.9997V2.99968H14.6667L15.3337 3.66667Z" fill="#424242"/>
<path d="M11.3333 12.6667C12.9902 12.6667 14.3333 11.3235 14.3333 9.66666C14.3333 8.00981 12.9902 6.66666 11.3333 6.66666C9.67648 6.66666 8.33334 8.00981 8.33334 9.66666C8.33334 11.3235 9.67648 12.6667 11.3333 12.6667Z" fill="#FF0055"/>
</svg>
