<svg xmlns="http://www.w3.org/2000/svg" width="16" height="16" fill="none" viewBox="0 0 16 16">
	<path fill="#424242" d="M13.8 6.53a3.5 3.5 0 0 0-1.97-1V.67h-1v4.86a3.5 3.5 0 0 0 0 6.94v2.86h1v-2.86a3.5 3.5 0 0 0 1.98-5.94Zm-2.47-.03a2.5 2.5 0 1 1 0 5 2.5 2.5 0 0 1 0-5Z"/>
	<path fill="#1A79FF" d="M11.33 12a3 3 0 1 0 0-6 3 3 0 0 0 0 6Z"/>
	<path fill="#424242" d="M10 1.63c-.94-.19-2.11-.3-3.33-.3a16.4 16.4 0 0 0-3.78.4c-1 .24-1.56.58-1.56.94V4c0 .35.56.7 1.56.94a18.83 18.83 0 0 0 5.64.3c.44-.37.88-.64 1.47-.77V1.63Zm-2.25 4.4a18.57 18.57 0 0 0-4.86.36c-1 .25-1.56.59-1.56.94v1.34c0 .35.56.69 1.56.94 1.24.27 2.5.4 3.78.39h.11a4.62 4.62 0 0 1 .97-3.97Zm-.77 4.64a16.4 16.4 0 0 0-4.09.39c-1 .25-1.56.59-1.56.94v1.33c0 .36.56.7 1.56.94 1.24.28 2.5.41 3.78.4 1.12 0 2.23-.1 3.33-.3v-.94a4.63 4.63 0 0 1-3.02-2.76Z"/>
</svg>
