<?xml version="1.0" encoding="utf-8"?>
<svg xmlns="http://www.w3.org/2000/svg" viewBox="0 0 16 22">
    <path fill="#424242" d="M6.299 14.067v-5.6h4v1.6H7.901v3.85l-.15.15H6.299zm.801-9.6c2.787 0 5.133 2.053 5.507 4.76l-.386.366s-.561.627-.561.474a4.567 4.567 0 0 0-4.56-4.56 4.585 4.585 0 0 0-3.601 1.76l1.2 1.2H1.5V5.268l1.271 1.271A5.575 5.575 0 0 1 7.1 4.467zm-5.6 5.6c0-.273.024-.536.063-.801h1.05a4.364 4.364 0 0 0-.073.801 4.567 4.567 0 0 0 4.56 4.56l.091-.001-.971.972a5.61 5.61 0 0 1-4.72-5.531zM7.1 15.682v1.852h1.855l4.945-4.943-1.855-1.855L7.1 15.682zm1.855 1.236H7.719v-1.236h.617v.616h.619v.62zm6.366-5.751l-.805.805-1.854-1.855.803-.802a.616.616 0 0 1 .873 0l.983.983a.616.616 0 0 1 0 .869z"/>
</svg>
