<?xml version="1.0" encoding="utf-8"?>
<svg xmlns="http://www.w3.org/2000/svg" viewBox="0 0 16 22">
    <rect width="1.125" height="2" x="10.25" y="7.4375" fill="#424242"/>
    <path fill="#424242" d="m11.8752,9.10094l-5.94244,0c0,-0.01402 0,-0.01402 0,-0.02803l0,-1.77993c0,-0.61667 0.50455,-1.12121 1.12121,-1.12121l2.06023,0c0.61667,0 1.12121,0.50455 1.12121,1.12121s1.12122,0.42046 1.12122,0.11212c0,-1.34546 -1.00909,-2.35455 -2.24243,-2.35455l-2.06023,0c-1.23334,0 -2.24243,1.00909 -2.24243,2.24243l0,1.79394c0,0.01402 0,0.01402 0,0.02803l-0.68674,0c-0.56061,0 -1.02311,0.4625 -1.02311,1.02311l0,5.78827c0,0.56061 0.4625,1.02311 1.02311,1.02311l7.7504,0c0.56061,0 1.02311,-0.4625 1.02311,-1.02311l0,-5.78827c0,-0.57462 -0.4625,-1.03712 -1.02311,-1.03712zm-0.09811,6.72729l-7.55419,0l0,-5.60607l7.55419,0l0,5.60607z"/>
    <ellipse cx="8" cy="13" fill="#424242" rx="1" ry="1"/>
</svg>
