<svg xmlns="http://www.w3.org/2000/svg" width="16" height="16" fill="none" viewBox="0 0 16 16">
    <path fill="#FF5" stroke="#424242" stroke-linejoin="bevel" stroke-width=".5" d="M12 10.25a2.75 2.75 0 1 1 0 5.5 2.75 2.75 0 0 1 0-5.5z"/>
    <path fill="#424242" fill-rule="evenodd" d="M6 3.5a1.5 1.5 0 1 1-3 0 1.5 1.5 0 0 1 3 0zM5 5.95a2.5 2.5 0 1 0-1 0v4.1a2.5 2.5 0 1 0 1.165.04c.168-.38.383-.622.61-.78.327-.227.738-.32 1.214-.31H7c.387 0 .76.03 1.124.059l.026.002c.343.027.694.055 1.003.046.313-.01.661-.06.954-.248.29-.185.466-.466.544-.812a.756.756 0 0 1 .046-.055 2.5 2.5 0 1 0-1.03-.134c-.028.108-.07.14-.1.16-.063.04-.191.08-.446.089a8.783 8.783 0 0 1-.917-.045A14.886 14.886 0 0 0 7.005 8c-.61-.013-1.249.105-1.8.488-.07.05-.14.102-.205.159V5.95zm7-.45a1.5 1.5 0 1 1-3 0 1.5 1.5 0 0 1 3 0zm-9 7a1.5 1.5 0 1 1 3 0 1.5 1.5 0 0 1-3 0z" clip-rule="evenodd"/>
</svg>
