<svg xmlns="http://www.w3.org/2000/svg" width="16" height="16" fill="none" viewBox="0 0 16 16">
    <path fill="#424242" d="M5.811 4.914a1.748 1.748 0 0 0 .186.789c.065.128.148.26.248.395.1.131.22.27.36.418.227-.14.424-.27.59-.394.165-.124.302-.25.41-.377a1.248 1.248 0 0 0 .324-.855 1.01 1.01 0 0 0-.075-.395.909.909 0 0 0-.532-.52 1.143 1.143 0 0 0-.434-.078c-.332 0-.594.09-.787.27-.193.175-.29.424-.29.747zm.782 6.123c.223 0 .43-.022.619-.066a2.676 2.676 0 0 0 .978-.472c.139-.108.27-.223.393-.347l-2.24-2.434c-.2.132-.377.261-.532.389a2.244 2.244 0 0 0-.393.4 1.635 1.635 0 0 0-.237.473 1.912 1.912 0 0 0-.081.586c0 .215.032.415.098.598.07.18.168.335.295.467.127.127.284.227.469.299.185.071.395.107.63.107zM4 9.602c0-.311.039-.588.116-.831a2.27 2.27 0 0 1 .335-.664c.15-.2.332-.385.544-.556a7.35 7.35 0 0 1 .735-.508 13.39 13.39 0 0 1-.353-.443 3.563 3.563 0 0 1-.306-.49 3.282 3.282 0 0 1-.209-.557 2.438 2.438 0 0 1-.08-.64c0-.298.047-.565.144-.8.096-.24.235-.441.417-.605.18-.167.405-.293.67-.376.267-.088.57-.132.91-.132.32 0 .605.044.856.132a1.653 1.653 0 0 1 1.047.98c.093.236.14.503.14.802 0 .255-.049.492-.145.711a2.456 2.456 0 0 1-.388.604c-.162.184-.35.355-.561.515a9.266 9.266 0 0 1-.66.448l2.037 2.225a3.257 3.257 0 0 0 .503-.736c.066-.135.124-.281.174-.436.054-.156.1-.327.139-.515h1.065a5.77 5.77 0 0 1-.209.73 4.48 4.48 0 0 1-.272.622c-.1.195-.214.378-.341.55-.124.167-.26.333-.411.496L11.5 11.88h-1.302l-.972-1.028a7.43 7.43 0 0 1-.562.484c-.185.14-.382.26-.59.359A3.578 3.578 0 0 1 6.593 12a3.58 3.58 0 0 1-1.094-.155 2.271 2.271 0 0 1-.816-.467 2.11 2.11 0 0 1-.51-.753A2.817 2.817 0 0 1 4 9.602z"/>
</svg>
