<?xml version="1.0" encoding="utf-8"?>
<svg xmlns="http://www.w3.org/2000/svg" viewBox="0 0 16 22">
    <path fill="#424242" d="M11.365 7.389h-6.73L8 1.562l3.365 5.827z"/>
    <path fill="#424242" d="M8.974 5.945v7.79H7.026v-7.79h1.948z"/>
    <path fill="#424242" d="M13.608 6.134a.983.983 0 0 0-.955-.821L11.5 5.3l.5 1 .777-.042.955 6.688h-1.318a.991.991 0 0 0-.87.525l.01.01-.42.85a.971.971 0 0 1-.87.535H5.717a.963.963 0 0 1-.851-.525l-.42-.87a.972.972 0 0 0-.85-.525H2.268l.955-6.688L4 6.3l.5-1-1.153.013a.983.983 0 0 0-.955.821l-1.08 6.821v4.777c0 .526.43.956.956.956h11.464c.526 0 .956-.43.956-.956v-4.777l-1.08-6.821z"/>
</svg>
