<svg xmlns="http://www.w3.org/2000/svg" width="16" height="16" fill="none" viewBox="0 0 16 16">
    <path fill="#424242" fill-rule="evenodd" d="M9.885 1.694L8.572 3h2.774a1.677 1.677 0 011.544 1.027c.084.203.127.42.127.639h-.5.5v5.387a2.501 2.501 0 11-1-.006V4.665a.66.66 0 00-.413-.614.676.676 0 00-.258-.051H8.539l1.3 1.343-.72.696-2.118-2.19.006-.702L9.18.986l.706.708zM11 12.5a1.5 1.5 0 113 0 1.5 1.5 0 01-3 0zm-5-9a2.5 2.5 0 01-2 2.45v5.357a.671.671 0 00.671.671h2.81l-1.3-1.343.72-.696 2.118 2.191-.006.702-2.172 2.16-.706-.709 1.313-1.305H4.671A1.671 1.671 0 013 11.307V5.95A2.5 2.5 0 116 3.5z"/>
</svg>
