<?xml version="1.0" encoding="UTF-8" standalone="no"?>
<!DOCTYPE svg PUBLIC "-//W3C//DTD SVG 1.1//EN" "http://www.w3.org/Graphics/SVG/1.1/DTD/svg11.dtd">
<svg version="1.1" xmlns="http://www.w3.org/2000/svg" xmlns:xlink="http://www.w3.org/1999/xlink" preserveAspectRatio="xMidYMid meet" viewBox="0 0 16 22" width="16" height="22"><defs><path d="M7.45 5.49L4.88 6.49L2.3 7.48L1.64 8.3L0.99 9.11L1.01 11.07L1.04 13.01C1.53 13.13 1.8 13.2 1.86 13.21C2.3 13.31 2.7 13.39 2.76 13.4C2.8 13.4 2.83 12.38 2.83 11.13C2.83 10.98 2.83 10.22 2.83 8.86C3.15 8.79 3.33 8.75 3.37 8.74C5.43 8.3 10.93 7.21 11.1 7.21C11.3 7.21 11.31 7.34 11.31 10.9C11.31 14.47 11.3 14.6 11.1 14.6C10.99 14.6 9.09 14.36 6.9 14.06C4.7 13.76 2.89 13.54 2.87 13.55C2.86 13.57 3.58 14.48 4.5 15.58C4.61 15.71 5.16 16.38 6.15 17.58C6.18 17.13 6.2 16.88 6.2 16.83C6.24 16.4 6.31 16.08 6.37 16.08C6.43 16.09 7.64 16.47 9.05 16.93C9.22 16.98 10.09 17.26 11.64 17.76L13.32 16.39L15.01 15.02C15.01 12.48 15.01 11.07 15.01 10.79C15.01 6.8 15 6.55 14.82 6.6C14.71 6.62 13.89 6.75 12.97 6.88C12.86 6.9 12.31 6.98 11.32 7.12C10.26 6.29 9.67 5.83 9.55 5.74C8.57 4.97 7.72 4.31 7.65 4.25C7.55 4.18 7.51 4.32 7.49 4.82C7.48 4.91 7.47 5.13 7.45 5.49Z" id="b1aNgz0vUX"></path><path d="" id="c101pBjM3a"></path></defs><g><g><g><use xlink:href="#b1aNgz0vUX" opacity="1" fill="#424242" fill-opacity="1"></use><g><use xlink:href="#b1aNgz0vUX" opacity="1" fill-opacity="0" stroke="#000000" stroke-width="1" stroke-opacity="0"></use></g></g><g><use xlink:href="#c101pBjM3a" opacity="1" fill="#424242" fill-opacity="1"></use><g><use xlink:href="#c101pBjM3a" opacity="1" fill-opacity="0" stroke="#000000" stroke-width="1" stroke-opacity="1"></use></g></g></g></g></svg>