<svg xmlns="http://www.w3.org/2000/svg" width="16" height="16" fill="none" viewBox="0 0 16 16">
    <path fill="#424242" fill-rule="evenodd" d="M4.5 7l-.416.223-2 3L2 10.5v4l.5.5h10l.5-.5v-4l-.084-.277-2-3L10.5 7H10v1h.232l1.334 2H10.5l-.354.146-.853.854H5.707l-.853-.854L4.5 10H3.434l1.334-2H5V7h-.5zm6.207 4H12v3H3v-3h1.293l.853.854L5.5 12h4l.354-.146.853-.854z" clip-rule="evenodd"/>
    <path fill="#424242" d="M7.965 1h-1.06L3 4.905l1.061 1.06 2.637-2.61v6.177h1.5V3.355l2.723 2.723 1.061-1.061L7.965 1z"/>
</svg>
