<?xml version="1.0" encoding="utf-8"?>
<svg xmlns="http://www.w3.org/2000/svg" viewBox="0 0 16 22">
    <path fill="#424242" d="m9,15l2,0l-3,3l-3,-3l2,0l0,-5l2,0l0,5l0,0zm3,-8c0,-0.44 -0.91,-3 -4.5,-3c-2.42,0 -4.5,1.92 -4.5,4c-1.98,0 -3,1.52 -3,3c0,1.53 1,3 3,3l3,0l0,-1.3l-3,0c-1.62,0 -1.7,-1.42 -1.7,-1.7c0,-0.17 0.05,-1.7 1.7,-1.7l1.3,0l0,-1.3c0,-1.39 1.56,-2.7 3.2,-2.7c2.55,0 3.13,1.55 3.2,1.8l0,1.2l1.3,0c0.81,0 2.7,0.22 2.7,2.2c0,2.09 -2.25,2.2 -2.7,2.2l-2,0l0,1.3l2,0c2.08,0 4,-1.16 4,-3.5c0,-2.44 -1.92,-3.5 -4,-3.5l0,0z"/>
</svg>
