<?xml version="1.0" encoding="utf-8"?>
<svg xmlns="http://www.w3.org/2000/svg" viewBox="0 0 16 22">
    <path fill="#424242" d="M12.889 6.177L12.9 11.7c-.4-.5-.9-.8-1.4-1l.029-4.354a.17.17 0 0 0-.172-.169h-1.189v.453c0 .726-5.445.756-5.445 0v-.453H3.532a.17.17 0 0 0-.171.169v9.643c0 .094.076.17.171.17L6.1 16.2c.2.5.5.9.9 1.3l-3.639.019c-.751 0-1.36-.609-1.361-1.36V6.177c0-.752.61-1.362 1.361-1.362H5.63c.033-1.398 1.566-2.236 2.76-1.508.528.321.856.89.871 1.508h2.268c.751 0 1.36.61 1.36 1.362zM6.765 4.815a.68.68 0 1 0 1.36 0 .68.68 0 0 0-1.36 0z"/>
    <path fill="#424242" d="M12.836 14.031a2.759 2.759 0 0 0-2.661-2.067c-1.28 0-2.348.884-2.658 2.067H5.35v1.378h2.167c.31 1.185 1.378 2.069 2.658 2.069a2.758 2.758 0 0 0 2.661-2.069H15v-1.378h-2.164zm-2.661 2.206A1.511 1.511 0 0 1 8.66 14.72a1.51 1.51 0 0 1 1.515-1.516c.841 0 1.517.675 1.517 1.516s-.676 1.517-1.517 1.517z"/>
</svg>
