<svg xmlns="http://www.w3.org/2000/svg" width="16" height="16" fill="none" viewBox="0 0 16 16">
    <path fill="#424242" fill-rule="evenodd" d="M10.579 1.28c-.195-.145-.517-.034-.655.226-.049.09-.05.114-.05.472l.09.652.146.538s.215.372-.064.463c-.06.022-3.61 2.413-3.61 2.413l-.242.148c-.16.11-.672.102-.672.102l-2.368.003s-.604.008-.92.02c-.174.06-.316.294-.315.454 0 .213-.13.067 1.597 1.795 1.773 1.772 1.386 1.796 1.386 1.796s-3.36 3.635-3.491 3.89c-.131.255.258.637.512.511.244-.134 3.891-3.488 3.891-3.488s.02-.38 1.794 1.382c1.728 1.733 1.576 1.6 1.801 1.602.159-.006.402-.16.453-.322.005-.307.02-.911.02-.911s-.006-1.59-.006-2.379c0-.494-.013-.495.106-.668.042-.062.112-.175.146-.242 0 0 2.346-3.481 2.414-3.612.099-.27.462-.063.462-.063l.536.15s.133.095.654.087c.362 0 .402-.01.477-.046.261-.14.465-.363.223-.663a35.31 35.31 0 0 0-2.052-2.248 36.038 36.038 0 0 0-2.263-2.061zm1.565 3.342L8.99 9.374s-.173.253-.244.434c-.2.51-.06 1.296-.06 1.296s.084 1.056-.105.96c-.192-.074-4.39-4.273-4.47-4.468-.093-.191.962-.105.962-.105s.785.137 1.296-.06c.181-.07.436-.242.436-.242l4.75-3.157s.264.09.384.213c.118.119.205.377.205.377z" clip-rule="evenodd"/>
</svg>
