<svg xmlns="http://www.w3.org/2000/svg" width="16" height="16" fill="none" viewBox="0 0 16 16">
    <path fill="#424242" fill-rule="evenodd" d="M0 2l1-1h6.2l.3.1 3.4 3.5.1.4v2.166L9.917 6.083 9.5 6.5V6H6V2.5H1.5v11H8L9.5 15H1l-1-1V2zm10.334 13h.166l.5-.5v-.166l-.666.666zM7 2.5L9.5 5H7V2.5z"/>
    <path fill="#424242" fill-rule="evenodd" d="M10.058 8.165l.088-.088.089.088.707.707.088.089-.088.088-1.08 1.08h2.699a2.625 2.625 0 110 5.25h-.625v-1.25h.625a1.375 1.375 0 000-2.75H9.862l1.08 1.08.088.087-.088.089-.707.707-.089.088-.088-.088-2.146-2.147-.037-.036v-.811l.037-.036 2.146-2.147z"/>
</svg>
