<?xml version="1.0" encoding="utf-8"?>
<svg xmlns="http://www.w3.org/2000/svg" viewBox="0 0 16 22">
    <path fill="#424242" d="m11.364995,7.38941l-6.73,0l3.36459,-5.82741l3.36542,5.82741l-0.00001,0z"/>
    <path fill="#424242" d="m8.974,4.945l0,7.79l-1.948,0l0,-7.79l1.948,0z"/>
    <path fill="#424242" d="M 10.5 5.258 L 5.5 5.258 L 10.5 5.258 Z M 6.046 4.313 L 9.954 4.313 L 6.046 4.313 Z M 13.608 5.134 C 13.532 4.676 13.13 4.313 12.653 4.313 L 9.954 4.313 L 10.5 5.258 L 12.777 5.258 L 13.732 11.946 L 12.414 11.946 C 12.041 11.946 11.716 12.156 11.544 12.471 L 11.554 12.481 L 11.134 13.331 C 10.971 13.656 10.637 13.866 10.264 13.866 L 5.717 13.866 C 5.354 13.866 5.029 13.656 4.866 13.341 L 4.446 12.471 C 4.284 12.156 3.949 11.946 3.596 11.946 L 2.268 11.946 L 3.223 5.258 L 5.5 5.258 L 6.046 4.313 L 3.347 4.313 C 2.87 4.313 2.468 4.676 2.392 5.134 L 1.312 11.955 L 1.312 16.732 C 1.312 17.258 1.742 17.688 2.268 17.688 L 13.732 17.688 C 14.258 17.688 14.688 17.258 14.688 16.732 L 14.688 11.955 L 13.608 5.134 Z"/>
</svg>
