<svg xmlns="http://www.w3.org/2000/svg" width="16" height="16" fill="none" viewBox="0 0 16 16">
  <path fill="#424242" d="M12 5.536a3.5 3.5 0 0 1 0 6.928V15h-1v-2.536a3.5 3.5 0 0 1 0-6.928V0h1v5.536ZM14 9a2.5 2.5 0 1 0-5 0 2.5 2.5 0 0 0 5 0Z"/>
  <path fill="#0F5" d="M2 10c0 .28.38 2 2 2h3.5a5 5 0 0 0 1 1H4c-2 0-3-1.47-3-3 0-1.48 1.02-3 3-3 0-2.08 1.58-4 4-4 .579 0 1.075.067 1.5.18v1.083C9.11 4.103 8.619 4 8 4 6.36 4 5 5.61 5 7v1H4c-1.65 0-2 1.83-2 2Z"/>
  <path fill="#0F5" stroke="#424242" stroke-linejoin="bevel" stroke-width=".5" d="M11.5 5.75a3.25 3.25 0 1 1 0 6.5 3.25 3.25 0 0 1 0-6.5Z"/>
</svg>
