<svg xmlns="http://www.w3.org/2000/svg" width="16" height="16" fill="none" viewBox="0 0 16 16">
    <path fill="#424242" fill-rule="evenodd" d="M13.5 4h.501v1.003h-.2a5.5 5.5 0 0 1 1.2.755V3.5l-.5-.5H13.5v1zm-4 0V3H7.713l-.852-.854L6.507 2H1.511l-.5.5v3.996L1 6.507v6.995l.5.5h6.227a5.528 5.528 0 0 1-.836-1H2V7.496h.01v-.489h4.486l.354-.146.858-.858h.014a5.51 5.51 0 0 1 1.477-1H7.5l-.353.147-.858.857H2.011V3H6.3l.853.853.353.146H9.5z" clip-rule="evenodd"/>
    <path stroke="#424242" stroke-linejoin="bevel" d="M11.5 7a3 3 0 1 1 0 6 3 3 0 0 1 0-6z"/>
    <path stroke="#424242" d="M11.5 13v3M11.5 1v6"/>
</svg>
