<?xml version="1.0" encoding="utf-8"?>
<svg xmlns="http://www.w3.org/2000/svg" viewBox="0 0 16 22">
    <path fill="#424242" d="m4.753,4.986l0.566,0.566l1.06,0.353l-1.06,5.303l-2.687,2.687c-0.312,0.312 -0.099,0.849 0.367,0.849l4.441,0l0.707,6.364l0.707,-6.364l4.441,0c0.385,0.007 0.633,-0.405 0.447,-0.742c-0.022,-0.039 -0.049,-0.075 -0.08,-0.107l-2.687,-2.687l-1.06,-5.303l1.06,-0.353l0.566,-0.566c0.311,-0.311 0.099,-0.849 -0.368,-0.849l-6.052,0c-0.385,-0.007 -0.633,0.405 -0.447,0.742c0.021,0.039 0.048,0.075 0.079,0.107z"/>
</svg>
