<svg xmlns="http://www.w3.org/2000/svg" width="16" height="16" fill="none" viewBox="0 0 16 16">
    <path fill="#424242" fill-rule="evenodd" d="M8 0c3.59 0 4 2.56 4 3 2.08 0 3 .56 3 3 0 1.977-1.371 2.755-3.051 2.949L11 8h.054c.57.004 2.946.018 2.946-2 0-1.98-1.19-2-2-2h-1V3l-.008-.03C10.902 2.635 10.464 1 8 1 6.36 1 5 2.61 5 4v1H4C2.35 5 2 6.33 2 6.5 2 6.78 2.38 8 4 8l-.92.92C1.693 8.66 1 7.774 1 6.5 1 5.02 2.02 4 4 4c0-2.08 1.58-4 4-4z" clip-rule="evenodd"/>
    <path fill="#424242" d="M7.965 7.468h-1.06L3 11.373l1.061 1.06 2.637-2.61V16h1.5V9.823l2.723 2.723 1.061-1.061-4.017-4.017z"/>
</svg>
