<svg xmlns="http://www.w3.org/2000/svg" width="16" height="16" fill="none" viewBox="0 0 16 16">
    <path fill="#000" fill-opacity=".1" stroke="#424242" stroke-width=".5" d="M.25.25h15.5v15.5H.25z"/>
    <path fill="#424242" fill-rule="evenodd" d="M7.328 9.052l.864 2.35H9.25L6.108 3H5.12L2 11.402h1.062l.812-2.35h3.454zM5.695 4.453l.043.135 1.278 3.574h-2.83l1.268-3.574.043-.135.036-.156.031-.152.02-.126h.023l.023.126.028.152.037.156zm7.335 6.011v.936h.96V7.498c0-.719-.18-1.272-.539-1.661-.359-.389-.889-.583-1.588-.583-.199 0-.401.019-.606.056a4.875 4.875 0 0 0-1.078.326 2.081 2.081 0 0 0-.343.188v.984c.266-.23.566-.411.904-.54a2.927 2.927 0 0 1 1.052-.193c.188 0 .358.028.513.085a.98.98 0 0 1 .396.267c.109.121.193.279.252.472.059.193.088.427.088.7l-1.811.252c-.344.047-.64.126-.888.237a1.947 1.947 0 0 0-.615.419 1.6 1.6 0 0 0-.36.58 2.134 2.134 0 0 0-.117.721c0 .246.042.475.124.688.082.213.203.397.363.551.16.154.36.276.598.366.238.09.513.135.826.135.402 0 .76-.092 1.075-.278.315-.186.572-.454.771-.806h.023zm-2.128-1.743c.176-.064.401-.114.674-.149l1.465-.205v.609c0 .246-.041.475-.123.688a1.727 1.727 0 0 1-.343.557 1.573 1.573 0 0 1-.524.372 1.63 1.63 0 0 1-.668.135c-.187 0-.353-.025-.495-.076a1.03 1.03 0 0 1-.357-.211.896.896 0 0 1-.22-.316 1.005 1.005 0 0 1-.076-.393 1.6 1.6 0 0 1 .055-.44.739.739 0 0 1 .202-.334 1.16 1.16 0 0 1 .41-.237z" clip-rule="evenodd"/>
</svg>
