<?xml version="1.0" encoding="utf-8"?>
<svg xmlns="http://www.w3.org/2000/svg" xmlns:xlink="http://www.w3.org/1999/xlink" viewBox="0 0 16 22">
    <path fill="#424242" stroke="#424242" stroke-width="0.25" d="M 5.601 6.599 L 6.001 7.002 L 6.751 7.251 L 6.001 10.998 L 4.101 12.9 C 3.881 13.12 4.031 13.5 4.361 13.5 L 7.501 13.5 L 8 18 L 8.501 13.5 L 11.641 13.5 C 11.911 13.505 12.088 13.215 11.959 12.976 C 11.941 12.949 11.923 12.923 11.9 12.9 L 10.001 10.998 L 9.251 7.251 L 10.001 7.002 L 10.399 6.599 C 10.62 6.379 10.471 6 10.141 6 L 5.863 6 C 5.589 5.994 5.413 6.287 5.545 6.524 C 5.56 6.551 5.579 6.579 5.601 6.599 Z"/>
</svg>
