<svg width="16" height="16" viewBox="0 0 16 16" fill="none" xmlns="http://www.w3.org/2000/svg">
<g clip-path="url(#clip0)">
<path fill-rule="evenodd" clip-rule="evenodd" d="M14.5 5.5C14.5 7.98527 12.4853 10 10 10C7.51473 10 5.5 7.98527 5.5 5.5C5.5 3.01472 7.51473 1 10 1C12.4853 1 14.5 3.01472 14.5 5.5ZM15.5 5.5C15.5 8.53753 13.0375 11 10 11C8.72153 11 7.54493 10.5638 6.61093 9.83207L1.25006 15.9118L0.5 15.2504L5.88235 9.14633C5.02223 8.17573 4.5 6.89887 4.5 5.5C4.5 2.46243 6.96247 0 10 0C13.0375 0 15.5 2.46243 15.5 5.5Z" fill="#424242"/>
</g>
<defs>
<clipPath id="clip0">
<rect width="16" height="16" fill="white"/>
</clipPath>
</defs>
</svg>
