<?xml version="1.0" encoding="utf-8"?>
<svg xmlns="http://www.w3.org/2000/svg" viewBox="0 0 16 22">
    <path fill="#424242" d="m14.414133,16.199437l-3.415492,-3.433421c0.627518,-0.878526 0.995065,-1.945307 0.995065,-3.110698c0,-2.967265 -2.411463,-5.378728 -5.378728,-5.378728c-2.967265,0 -5.378728,2.411463 -5.378728,5.378728c0,2.967265 2.411463,5.378728 5.378728,5.378728c1.165391,0 2.223207,-0.367546 3.110698,-0.995065l3.433421,3.415492c0.170326,0.179291 0.403405,0.268936 0.627518,0.268936c0.224114,0 0.466156,-0.080681 0.627518,-0.268936c0.349617,-0.349617 0.349617,-0.914384 0,-1.264001l0,0.008965zm-7.799155,-2.330782c-2.321817,0 -4.213337,-1.891519 -4.213337,-4.213337c0,-2.321817 1.891519,-4.213337 4.213337,-4.213337c2.321817,0 4.213337,1.891519 4.213337,4.213337c0,2.321817 -1.891519,4.213337 -4.213337,4.213337l0,0z"/>
</svg>
