<svg xmlns="http://www.w3.org/2000/svg" width="16" height="16" fill="none" viewBox="0 0 16 16">
    <path fill="#424242" fill-rule="evenodd" d="M9.885 1.694L8.572 3h2.774a1.67 1.67 0 0 1 1.671 1.672h-.5.5v5.782a2.014 2.014 0 1 1-1-.005V4.672A.67.67 0 0 0 11.346 4H8.539l1.3 1.343-.72.696-2.118-2.19.006-.702L9.18.986l.706.708zm1.61 10.708a1.013 1.013 0 1 1 2.026 0 1.013 1.013 0 0 1-2.026 0zM2.499 3.513a1.013 1.013 0 1 1 2.026 0 1.013 1.013 0 0 1-2.026 0zM3.512 1.5A2.013 2.013 0 0 0 3 5.46v5.847a1.671 1.671 0 0 0 1.671 1.671h2.777l-1.313 1.305.706.71 2.172-2.16.006-.703L6.9 9.94l-.718.695 1.299 1.343H4.67A.671.671 0 0 1 4 11.307v-5.84A2.014 2.014 0 0 0 3.512 1.5z" clip-rule="evenodd"/>
</svg>
