<?xml version="1.0" encoding="utf-8"?>
<svg xmlns="http://www.w3.org/2000/svg" viewBox="0 0 16 16">
    <path fill="#424242" d="M15 3.793V10h-3.265a4.4 4.4 0 0 0 .237-1H14V4.207L11.793 2H9v2.276a4.485 4.485 0 0 0-1-.225V1h4.207zm-8 9.156V14H2V7h1.276a4.493 4.493 0 0 1 .486-1H1v9h7v-2.028a4.612 4.612 0 0 1-.5.028 4.342 4.342 0 0 1-.5-.051z"/>
    <path fill="#00539c" d="M13.354 13.646l-3-3a.545.545 0 0 0-.071-.047A3.462 3.462 0 0 0 11 8.5 3.5 3.5 0 1 0 7.5 12a3.462 3.462 0 0 0 2.1-.717.57.57 0 0 0 .047.07l3 3a.5.5 0 1 0 .708-.707zM7.5 11A2.5 2.5 0 1 1 10 8.5 2.5 2.5 0 0 1 7.5 11z"/>
</svg>
