<?xml version="1.0" encoding="utf-8"?>
<svg xmlns="http://www.w3.org/2000/svg" viewBox="0 0 16 22">
    <path fill="#424242" d="m8.18878,5.18375c-0.47,-0.47 -1.11,-0.73 -1.77,-0.73l-2.46,0c-1.37,0 -2.5,1.13 -2.5,2.5l0,2.47c0,0.66 0.27,1.3 0.73,1.77l6.06,6.06c0.39,0.39 1.02,0.39 1.41,0l4.59,-4.59a0.996,0.996 0 0 0 0,-1.41l-6.06,-6.07zm-5.35,5.36c-0.31,-0.3 -0.47,-0.7 -0.47,-1.13l0,-2.46c0,-0.88 0.72,-1.59 1.59,-1.59l2.47,0c0.42,0 0.83,0.16 1.13,0.47l6.14,6.13l-4.73,4.73l-6.13,-6.15zm0.63,-4.09l2,0l0,2l-2.01,0l0,-2l0.01,0z"/>
</svg>
