<?xml version="1.0" encoding="utf-8"?>
<svg xmlns="http://www.w3.org/2000/svg" viewBox="0 0 16 22">
    <path fill="#424242" d="M3.523 16C2.684 16 2 16.684 2 17.523C2 18.362 2.684 19.045 3.523 19.045C4.362 19.045 5.045 18.362 5.045 17.523C5.045 16.684 4.362 16 3.523 16ZM8 16C7.161 16 6.477 16.684 6.477 17.523C6.477 18.362 7.161 19.045 8 19.045C8.839 19.045 9.523 18.362 9.523 17.523C9.523 16.684 8.839 16 8 16ZM12.477 16C11.638 16 10.955 16.684 10.955 17.523C10.955 18.362 11.638 19.045 12.477 19.045C13.317 19.045 14 18.362 14 17.523C14 16.684 13.316 16 12.477 16Z"/>
</svg>
