<svg xmlns="http://www.w3.org/2000/svg" width="16" height="16" fill="none" viewBox="0 0 16 16">
    <path fill="#424242" fill-rule="evenodd" d="M4.91 1L4 2v2H1.91L1 5v9l1 1h8l.522-.522c-.324.014-.665.022-1.022.022-1.75 0-3.096-.181-4.117-.5H2V5h5.5l1.505 1.505a23.982 23.982 0 0 1 1.405.013L8.006 4.25 7.364 4H5V2h5.5L13 4.5v2.334c.367.085.7.184 1 .298V4.429l-.266-.607-2.727-2.571L10.364 1H4.909z" clip-rule="evenodd"/>
    <path fill="#424242" d="M8.5 8H7c-1.657 0-3 1.12-3 2.5S5.343 13 7 13h1.5v-1H7c-1.283 0-2-.835-2-1.5S5.717 9 7 9h1.5V8zM10.5 13H12c1.657 0 3-1.12 3-2.5S13.657 8 12 8h-1.5v1H12c1.283 0 2 .835 2 1.5s-.717 1.5-2 1.5h-1.5v1z"/>
    <path stroke="#424242" d="M7 10.5h5"/>
</svg>
