<svg xmlns="http://www.w3.org/2000/svg" width="16" height="16" fill="none" viewBox="0 0 16 16">
    <path fill="#424242" fill-rule="evenodd" d="M9.885 1.694L8.572 3h2.774a1.67 1.67 0 0 1 1.671 1.672h-.5.5v5.782a2.014 2.014 0 1 1-1-.005V4.672A.67.67 0 0 0 11.346 4H8.539l1.3 1.343-.72.696-2.118-2.19.006-.702L9.18.986l.706.708zm1.61 10.708a1.013 1.013 0 1 1 2.026 0 1.013 1.013 0 0 1-2.026 0zm-6.47-8.889c0 .665-.429 1.23-1.025 1.433v6.361a.671.671 0 0 0 .671.671h2.81l-1.3-1.343.72-.696 2.118 2.191-.006.702-2.172 2.16-.706-.709 1.313-1.305H4.671A1.671 1.671 0 0 1 3 11.307v-6.37a1.514 1.514 0 1 1 2.025-1.424z" clip-rule="evenodd"/>
</svg>
