
<svg xmlns="http://www.w3.org/2000/svg" width="16" height="16" fill="none" viewBox="0 0 16 16">
    <path fill="#424242" fill-rule="evenodd" d="M9.572 3l1.313-1.306-.706-.708-2.172 2.16-.006.703 2.119 2.19.718-.696L9.538 4h2.053a.26.26 0 01.121.032.443.443 0 01.14.12.722.722 0 01.116.223c.03.09.045.188.045.29v5.382a2.5 2.5 0 101 .006V4.666h-.5.5c0-.205-.032-.409-.095-.602a1.72 1.72 0 00-.283-.533 1.44 1.44 0 00-.46-.385A1.259 1.259 0 0011.592 3H9.572zM11 12.5a1.5 1.5 0 113 0 1.5 1.5 0 01-3 0zm-8-1.47V5h1v6.03c0 .29.092.55.234.728.14.175.3.242.437.242h2.831l-1.32-1.365.718-.696 2.12 2.191-.007.702-2.172 2.16-.706-.709L7.426 13H4.671c-.485 0-.919-.242-1.219-.619A2.176 2.176 0 013 11.031z"/>
    <path fill="#424242" stroke="#424242" stroke-width=".4" d="M5.5 2.5c0-.22-.398-1.5-1.969-1.5-1.058 0-1.968.96-1.968 2C.696 3 .25 3.76.25 4.5c0 .765.438 1.5 1.556 1.478v-.622C.854 5.35.819 4.64.819 4.5c0-.085.021-.85.744-.85h.568V3c0-.695.683-1.35 1.4-1.35 1.116 0 1.37.775 1.4.9v.6H5.5c.355 0 1.181.11 1.181 1.1 0 1.045-.984 1.1-1.181 1.1l-.437.006V6H5.5c.91 0 1.75-.58 1.75-1.75 0-1.22-.84-1.75-1.75-1.75z"/>
</svg>
