<svg xmlns="http://www.w3.org/2000/svg" width="16" height="16" fill="none" viewBox="0 0 16 16">
    <path fill="#424242" fill-rule="evenodd" d="M4.91 1L4 2v2H1.91L1 5v9l1 1h4.377c.2-.316.4-.656.581-1H2V5h5.5l1.309 1.309c.36-.106.737-.186 1.127-.239l-1.93-1.819L7.364 4H5V2h5.5L13 4.5v1.756c.35.092.684.208 1 .345V4.429l-.266-.607-2.727-2.571L10.364 1H4.909z" clip-rule="evenodd"/>
    <path fill="#424242" fill-rule="evenodd" d="M14 10.333c0 1.126-1.165 2.334-3 2.334s-3-1.208-3-2.334C8 9.208 9.165 8 11 8s3 1.208 3 2.333zm1 0c0 1.841-1.79 3.334-4 3.334-.072 0-.143-.002-.213-.005-.068.058-.136.12-.205.184-.165.152-.34.313-.554.45-.397.252-.786.496-1.055.655a3.962 3.962 0 0 1-.316.174.54.54 0 0 1-.067.025.312.312 0 0 1-.06.012.254.254 0 0 1-.237-.397.42.42 0 0 1 .056-.067c.133-.133.386-.45.58-.78.098-.165.174-.322.215-.454a.697.697 0 0 0 .03-.14l-.016-.031C7.876 12.737 7 11.62 7 10.333 7 8.493 8.79 7 11 7s4 1.492 4 3.333z" clip-rule="evenodd"/>
</svg>
