<svg xmlns="http://www.w3.org/2000/svg" width="16" height="16" fill="none" viewBox="0 0 16 16">
    <path fill="#424242" fill-rule="evenodd" d="M.473.875h1.554V2.69l.322-.315a5.085 5.085 0 012.322-1.339 4.971 4.971 0 012.576 0 5.088 5.088 0 012.323 1.34 4.958 4.958 0 011.323 2.308 5.034 5.034 0 010 2.59c-.11.437-.273.846-.487 1.226H8.78a3.71 3.71 0 010 0H8.43l.023-.023c.456-.445.767-.973.937-1.587.17-.614.17-1.226 0-1.84l-.001-.003a3.341 3.341 0 00-.919-1.584l-.002-.002a3.406 3.406 0 00-1.586-.904l-.003-.001a3.392 3.392 0 00-1.839 0c-.603.17-1.125.48-1.571.937l-.004.003-.567.558h2.325v1.571H1.146l-.673-.673V.875zM7 9.926l-4.25 4.238 1.118 1.118L7 12.16v-1.881l-3.897 3.885L7 10.279v-.353zM2.287 4.304h2.686-2.686zm-.51-3.179H.723h1.054zm.748 1.428l-.748.731.748-.731a4.835 4.835 0 012.21-1.275 4.719 4.719 0 012.448 0 4.835 4.835 0 000 0 4.72 4.72 0 00-2.448 0 4.835 4.835 0 00-2.21 1.275zm8.164 2.348a5.179 5.179 0 010 0z"/>
    <path stroke="#424242" stroke-width="1.5" d="M12.5 7v7M9 10.5h7"/>
</svg>
