<svg width="16" height="16" viewBox="0 0 16 16" fill="none" xmlns="http://www.w3.org/2000/svg">
<path d="M11.8337 6.19987C12.6703 6.31624 13.4362 6.73175 13.9909 7.36882C14.5456 8.00595 14.8512 8.82191 14.8512 9.66667C14.8512 10.5114 14.5456 11.3274 13.9909 11.9645C13.4362 12.6016 12.6703 13.0171 11.8337 13.1335V15.3337H10.8337V13.1335C9.99693 13.0172 9.23016 12.6017 8.67545 11.9645C8.12086 11.3274 7.8151 10.5114 7.8151 9.66667C7.8151 8.82198 8.12086 8.00593 8.67545 7.36882C9.23016 6.73167 9.99693 6.31618 10.8337 6.19987V0.666668H11.8337V6.19987ZM11.3337 7.16667C10.6706 7.16667 10.0339 7.43025 9.5651 7.89909C9.09646 8.3679 8.83366 9.00378 8.83366 9.66667C8.83366 10.3296 9.09646 10.9654 9.5651 11.4342C10.0339 11.9031 10.6706 12.1667 11.3337 12.1667C11.6618 12.1666 11.9866 12.1018 12.2897 11.9762C12.593 11.8506 12.8691 11.6664 13.1012 11.4342C13.3333 11.2022 13.5176 10.9269 13.6432 10.6237C13.7689 10.3204 13.8337 9.99497 13.8337 9.66667C13.8337 9.33836 13.7689 9.01295 13.6432 8.70964C13.5176 8.40647 13.3333 8.13115 13.1012 7.89909C12.8691 7.66694 12.593 7.48273 12.2897 7.3571C11.9866 7.23157 11.6618 7.16671 11.3337 7.16667Z" fill="#424242"/>
<path d="M6.33366 1.99968C6.86678 1.99995 7.4466 2.66633 7.66666 2.99968H9.66666V3.99968H7.66666C7.16655 3.99968 6.79037 3.62473 6.54069 3.29655L6.33366 2.99968H1.66666V5.99968H5.99967L6.66666 5.33366C6.86666 5.14699 7.02699 5.06634 7.33366 4.99968H9.66666V5.30632C9.22751 5.47457 8.81625 5.70851 8.44694 5.99968H7.33366L6.66666 6.66667L6.49967 6.86686L6.16666 6.99968H1.66666V12.9997H8.06705L8.23502 13.1579C8.63741 13.515 9.09965 13.7994 9.60026 13.9997H1.33366L0.666664 13.3337V2.66667L1.33366 1.99968H6.33366Z" fill="#424242"/>
<path d="M15.3337 12.0671V13.3337L14.6667 13.9997H13.0671C14.0128 13.6193 14.8089 12.941 15.3337 12.0671Z" fill="#424242"/>
<path d="M14.6667 2.99968L15.3337 3.66667V7.26042C14.8003 6.37375 13.973 5.67965 12.9997 5.30632V4.99968H14.3337V3.99968H12.9997V2.99968H14.6667Z" fill="#424242"/>
<path d="M11.3333 12.6667C12.9902 12.6667 14.3333 11.3235 14.3333 9.66666C14.3333 8.00981 12.9902 6.66666 11.3333 6.66666C9.67648 6.66666 8.33334 8.00981 8.33334 9.66666C8.33334 11.3235 9.67648 12.6667 11.3333 12.6667Z" fill="#00FF55"/>
</svg>
