<?xml version="1.0" encoding="utf-8"?>
<svg xmlns="http://www.w3.org/2000/svg" viewBox="0 0 16 22">
    <path fill="#424242" d="M12.889 6.177L12.9 10.5h-1.4l.029-4.154a.17.17 0 0 0-.172-.169h-1.189v.453c0 .726-5.445.756-5.445 0v-.453H3.532a.17.17 0 0 0-.171.169v9.643c0 .094.076.17.171.17L5 16.2v1.3l-1.639.019A1.361 1.361 0 0 1 2 16.159V6.177c0-.752.61-1.362 1.361-1.362H5.63a1.816 1.816 0 0 1 3.631 0h2.268c.751 0 1.36.61 1.36 1.362zM6.765 4.815a.68.68 0 1 0 1.36 0 .68.68 0 0 0-1.36 0z"/>
    <path fill="#424242" d="M12.917 16.666h.583v1.75a.585.585 0 0 1-.583.584H7.084a.586.586 0 0 1-.584-.584v-5.833c0-.321.263-.583.584-.583h1.75v.583h-1.75v5.833h5.833v-1.75zM10 12l1.313 1.312-1.896 1.896.875.875 1.896-1.896L13.5 15.5V12H10z"/>
</svg>
