<svg width="257" height="140" viewBox="0 0 257 140" fill="none" xmlns="http://www.w3.org/2000/svg">
<rect x="0.626829" y="0.626829" width="255.746" height="137.902" rx="1.88049" fill="#FEFEFE" stroke="#DDDDDD" stroke-width="1.25366"/>
<rect x="8.1488" y="9.40243" width="43.878" height="3.76097" rx="1.88049" stroke="#DDDDDD" stroke-width="1.25366"/>
<rect x="8.1488" y="20.6854" width="43.878" height="3.76097" rx="1.88049" fill="#DDDDDD" stroke="#DDDDDD" stroke-width="1.25366"/>
<rect x="8.1488" y="29.461" width="43.878" height="3.76097" rx="1.88049" fill="#DDDDDD" stroke="#DDDDDD" stroke-width="1.25366"/>
<rect x="8.1488" y="38.2366" width="43.878" height="3.76097" rx="1.88049" fill="#DDDDDD" stroke="#DDDDDD" stroke-width="1.25366"/>
<rect x="8.1488" y="47.0122" width="43.878" height="3.76097" rx="1.88049" fill="#DDDDDD" stroke="#DDDDDD" stroke-width="1.25366"/>
<rect x="221.271" y="9.40243" width="27.5805" height="20.0585" rx="1.88049" fill="#DDDDDD" stroke="#DDDDDD" stroke-width="1.25366"/>
<path d="M200.585 39.4904H224.405C225.444 39.4905 226.285 40.332 226.285 41.3702V100.293C226.285 101.331 225.444 102.173 224.405 102.173H200.585C199.547 102.173 198.705 101.331 198.705 100.293V41.3702C198.705 40.3321 199.547 39.4906 200.585 39.4904Z" fill="#DDDDDD" stroke="#DDDDDD" stroke-width="1.25366"/>
<path d="M71.127 14.5712L71.127 11.5849C71.1272 10.5467 71.9687 9.70525 73.0068 9.70499L175.993 9.70498C177.031 9.70524 177.873 10.5467 177.873 11.5849L177.873 14.5712C177.873 15.6094 177.031 16.4508 175.993 16.4511L73.0068 16.4511C71.9687 16.4508 71.1272 15.6094 71.127 14.5712Z" fill="#DDDDDD" stroke="#DDDDDD" stroke-width="1.25366"/>
<path d="M73.0073 103.078C71.6226 103.078 70.5 101.955 70.5 100.571L70.5 22.5854C70.5 21.2006 71.6226 20.078 73.0073 20.078L175.993 20.078C177.377 20.078 178.5 21.2006 178.5 22.5854L178.5 100.571C178.5 101.955 177.377 103.078 175.993 103.078L73.0073 103.078Z" fill="#D0E2EC" fill-opacity="0.5"/>
<rect x="8.1488" y="64.5634" width="23.8195" height="3.76097" rx="1.88049" fill="#DDDDDD" stroke="#DDDDDD" stroke-width="1.25366"/>
<rect x="198.705" y="109.695" width="50.1463" height="20.0585" rx="1.88049" stroke="#DDDDDD" stroke-width="1.25366"/>
<rect x="236.941" y="117.844" width="7.52195" height="7.52195" rx="3.76097" fill="#9C9C9C"/>
<path d="M58.6084 0L58.6084 139.156" stroke="#DDDDDD" stroke-width="1.25366"/>
<path d="M135.5 28.078L85.5 28.078" stroke="#C4C4C4" stroke-width="3.25"/>
<path d="M148.5 34.078L85.5 34.078" stroke="#C4C4C4" stroke-width="1.25366"/>
<path d="M190.243 0L190.243 139.156" stroke="#DDDDDD" stroke-width="1.25366"/>
<path d="M76.5 28.078H80.5" stroke="#D17CFF" stroke-width="3.25"/>
<path d="M135.5 47.078H85.5" stroke="#C4C4C4" stroke-width="3.25"/>
<path d="M148.5 53.078L85.5 53.078" stroke="#C4C4C4" stroke-width="1.25366"/>
<path d="M76.5 47.078H80.5" stroke="#C4C4C4" stroke-width="3.25"/>
<path d="M135.5 87.078H85.5" stroke="#C4C4C4" stroke-width="3.25"/>
<path d="M148.5 93.078H85.5" stroke="#C4C4C4" stroke-width="1.25366"/>
<path d="M76.5 87.078H80.5" stroke="#C4C4C4" stroke-width="3.25"/>
<path d="M135.5 67.078H85.5" stroke="#C4C4C4" stroke-width="3.25"/>
<path d="M148.5 73.078H85.5" stroke="#C4C4C4" stroke-width="1.25366"/>
<path d="M76.5 67.078H80.5" stroke="#29D95C" stroke-width="3.25"/>
</svg>
