<svg width="32" height="32" viewBox="0 0 32 32" fill="none" xmlns="http://www.w3.org/2000/svg">
<rect width="32" height="32" rx="8" fill="rgba(0, 0, 0, 0.05)"/>
<path d="M23.25 16C23.25 12.2721 20.2279 9.25 16.5 9.25C12.7721 9.25 9.75 12.2721 9.75 16C9.75 19.7279 12.7721 22.75 16.5 22.75C20.2279 22.75 23.25 19.7279 23.25 16ZM19.5234 11.9844C19.808 11.8551 20.1423 11.9157 20.3633 12.1367C20.5843 12.3577 20.6449 12.692 20.5156 12.9766L18.4326 17.5605C18.3576 17.7255 18.2255 17.8576 18.0605 17.9326L13.4766 20.0156C13.192 20.1449 12.8577 20.0843 12.6367 19.8633C12.4157 19.6423 12.3551 19.308 12.4844 19.0234L14.5674 14.4395L14.6338 14.3223C14.7103 14.212 14.8158 14.1237 14.9395 14.0674L19.5234 11.9844ZM15.8154 15.3154L14.6768 17.8223L17.1836 16.6836L18.3223 14.1768L15.8154 15.3154ZM24.75 16C24.75 20.5563 21.0563 24.25 16.5 24.25C11.9437 24.25 8.25 20.5563 8.25 16C8.25 11.4437 11.9437 7.75 16.5 7.75C21.0563 7.75 24.75 11.4437 24.75 16Z" fill="#707070"/>
</svg>
