<svg width="32" height="32" viewBox="0 0 32 32" fill="none" xmlns="http://www.w3.org/2000/svg">
<rect width="32" height="32" rx="8" fill="rgba(255, 255, 255, 0.05)"/>
<path fill-rule="evenodd" clip-rule="evenodd" d="M12.0416 13.4125C12.4351 13.4125 12.7541 13.7315 12.7541 14.125L12.7541 18.875C12.7541 19.2685 12.4351 19.5875 12.0416 19.5875C11.6481 19.5875 11.3291 19.2685 11.3291 18.875L11.3291 14.125C11.3291 13.7315 11.6481 13.4125 12.0416 13.4125Z" fill="#707070"/>
<path fill-rule="evenodd" clip-rule="evenodd" d="M16.4751 14.125C16.4751 13.7315 16.7941 13.4125 17.1876 13.4125L19.9584 13.4125C20.7892 13.4125 21.4626 14.0859 21.4626 14.9167L21.4626 19.2708C21.4626 19.6643 21.1436 19.9833 20.7501 19.9833C20.3566 19.9833 20.0376 19.6643 20.0376 19.2708L20.0376 14.9167C20.0376 14.8729 20.0022 14.8375 19.9584 14.8375L17.1876 14.8375C16.7941 14.8375 16.4751 14.5185 16.4751 14.125Z" fill="#707070"/>
<path fill-rule="evenodd" clip-rule="evenodd" d="M18.0871 16.2121C17.8088 16.4904 17.3577 16.4904 17.0794 16.2121L16.0559 15.1886C15.4685 14.6012 15.4685 13.6488 16.0559 13.0614L17.0794 12.0379C17.3577 11.7596 17.8088 11.7596 18.0871 12.0379C18.3653 12.3161 18.3653 12.7672 18.0871 13.0455L17.0635 14.069C17.0326 14.0999 17.0326 14.1501 17.0635 14.181L18.0871 15.2045C18.3653 15.4828 18.3653 15.9339 18.0871 16.2121Z" fill="#707070"/>
<path fill-rule="evenodd" clip-rule="evenodd" d="M12.0417 12.7C12.5664 12.7 12.9917 12.2747 12.9917 11.75C12.9917 11.2253 12.5664 10.8 12.0417 10.8C11.5171 10.8 11.0917 11.2253 11.0917 11.75C11.0917 12.2747 11.5171 12.7 12.0417 12.7ZM12.0417 14.125C13.3534 14.125 14.4167 13.0617 14.4167 11.75C14.4167 10.4383 13.3534 9.375 12.0417 9.375C10.7301 9.375 9.66675 10.4383 9.66675 11.75C9.66675 13.0617 10.7301 14.125 12.0417 14.125Z" fill="#707070"/>
<path fill-rule="evenodd" clip-rule="evenodd" d="M12.0417 22.2C12.5664 22.2 12.9917 21.7747 12.9917 21.25C12.9917 20.7253 12.5664 20.3 12.0417 20.3C11.5171 20.3 11.0917 20.7253 11.0917 21.25C11.0917 21.7747 11.5171 22.2 12.0417 22.2ZM12.0417 23.625C13.3534 23.625 14.4167 22.5617 14.4167 21.25C14.4167 19.9383 13.3534 18.875 12.0417 18.875C10.7301 18.875 9.66675 19.9383 9.66675 21.25C9.66675 22.5617 10.7301 23.625 12.0417 23.625Z" fill="#707070"/>
<path fill-rule="evenodd" clip-rule="evenodd" d="M20.75 22.2C21.2747 22.2 21.7 21.7747 21.7 21.25C21.7 20.7253 21.2747 20.3 20.75 20.3C20.2253 20.3 19.8 20.7253 19.8 21.25C19.8 21.7747 20.2253 22.2 20.75 22.2ZM20.75 23.625C22.0617 23.625 23.125 22.5617 23.125 21.25C23.125 19.9383 22.0617 18.875 20.75 18.875C19.4383 18.875 18.375 19.9383 18.375 21.25C18.375 22.5617 19.4383 23.625 20.75 23.625Z" fill="#707070"/>
</svg>
