<svg width="257" height="140" viewBox="0 0 257 140" fill="none" xmlns="http://www.w3.org/2000/svg">
<rect x="0.626829" y="0.626829" width="255.746" height="137.902" rx="1.88049" fill="#121212" stroke="#363636" stroke-width="1.25366"/>
<rect x="8.1488" y="9.40243" width="43.878" height="3.76097" rx="1.88049" stroke="#363636" stroke-width="1.25366"/>
<rect x="8.1488" y="20.6854" width="43.878" height="3.76097" rx="1.88049" fill="#363636" stroke="#363636" stroke-width="1.25366"/>
<rect x="8.1488" y="29.461" width="43.878" height="3.76097" rx="1.88049" fill="#363636" stroke="#363636" stroke-width="1.25366"/>
<rect x="8.1488" y="38.2366" width="43.878" height="3.76097" rx="1.88049" fill="#363636" stroke="#363636" stroke-width="1.25366"/>
<rect x="8.1488" y="47.0122" width="43.878" height="3.76097" rx="1.88049" fill="#363636" stroke="#363636" stroke-width="1.25366"/>
<rect x="221.271" y="9.40243" width="27.5805" height="20.0585" rx="1.88049" fill="#363636" stroke="#363636" stroke-width="1.25366"/>
<ellipse cx="146.678" cy="29.0506" rx="12.5366" ry="12.5366" fill="#00FF5B" fill-opacity="0.1"/>
<ellipse cx="122.823" cy="26.8353" rx="16.5141" ry="16.5141" fill="#00FF5B" fill-opacity="0.1"/>
<ellipse cx="111.47" cy="26.8353" rx="11.3534" ry="11.3534" fill="#00FF5B" fill-opacity="0.1"/>
<ellipse cx="99.0844" cy="27.8675" rx="6.19277" ry="6.19277" fill="#FF64FC" fill-opacity="0.4"/>
<ellipse cx="88.763" cy="27.8674" rx="7.2249" ry="7.2249" fill="#FF64FC" fill-opacity="0.4"/>
<ellipse cx="166.689" cy="26.8353" rx="8.77309" ry="9.28916" fill="#FF64FC" fill-opacity="0.2"/>
<circle cx="76.4734" cy="28.3861" r="8.77561" fill="#FF64FC" fill-opacity="0.2"/>
<path d="M200.585 39.4904H224.405C225.443 39.4905 226.285 40.332 226.285 41.3702V100.293C226.285 101.331 225.443 102.173 224.405 102.173H200.585C199.547 102.173 198.705 101.331 198.705 100.293V41.3702C198.705 40.3321 199.547 39.4906 200.585 39.4904Z" fill="#363636" stroke="#363636" stroke-width="1.25366"/>
<rect x="8.1488" y="64.5634" width="23.8195" height="3.76097" rx="1.88049" fill="#363636" stroke="#363636" stroke-width="1.25366"/>
<rect x="198.705" y="109.695" width="50.1463" height="20.0585" rx="1.88049" stroke="#363636" stroke-width="1.25366"/>
<rect x="237.568" y="118.471" width="6.26829" height="6.26829" rx="3.13415" fill="#D9D9D9" stroke="#D9D9D9" stroke-width="1.25366"/>
<path d="M58.6086 0L58.6086 139.156" stroke="#363636" stroke-width="1.25366"/>
<path d="M190.556 49.7184L58.922 49.7183" stroke="#363636" stroke-width="1.25366"/>
<path d="M129.127 110.765H86.5026" stroke="#808080" stroke-width="1.25366"/>
<path d="M122.823 118.695H110.438" stroke="#808080" stroke-width="1.25366"/>
<path d="M76.3774 125.92H97.02" stroke="#808080" stroke-width="1.25366"/>
<path d="M190.243 0L190.243 139.156" stroke="#363636" stroke-width="1.25366"/>
<path d="M167.205 48.51L167.205 29.9317" stroke="#FF64FC" stroke-width="1.25366"/>
<path d="M146.562 48.51L146.562 31.996" stroke="#00A02E" stroke-width="1.25366"/>
<path d="M146.678 47.4326L146.678 26.1204" stroke="#00A02E" stroke-width="1.25366"/>
<path d="M122.859 48.6863L122.859 39.9106" stroke="#00A02E" stroke-width="1.25366"/>
<path d="M88.7983 48.6863L88.7983 39.9106" stroke="#00A02E" stroke-width="1.25366"/>
<path d="M111.505 48.6863L111.505 39.9106" stroke="#00A02E" stroke-width="1.25366"/>
<path d="M99.0842 48.51L99.0842 17.5462" stroke="#FF64FC" stroke-width="1.25366"/>
<path d="M135.209 48.51L135.209 44.3815" stroke="#FF64FC" stroke-width="1.25366"/>
<path d="M156.884 48.51L156.884 44.3815" stroke="#FF64FC" stroke-width="1.25366"/>
<path d="M178.558 48.51L178.558 44.3815" stroke="#FF64FC" stroke-width="1.25366"/>
<path d="M76.4732 118.287H105.307" stroke="#00A02E" stroke-width="1.25366"/>
<path d="M70.1001 110.765L82.6367 110.765" stroke="#FF64FC" stroke-width="1.25366"/>
<path d="M149.659 83.6024H86.6989" stroke="#808080" stroke-width="1.25366"/>
<path d="M122.823 91.8594H110.438" stroke="#808080" stroke-width="1.25366"/>
<path d="M76.3774 99.0843H115.598" stroke="#808080" stroke-width="1.25366"/>
<path d="M76.4732 91.4516H105.307" stroke="#00A02E" stroke-width="1.25366"/>
<path d="M70.1001 83.9297L82.6367 83.9297" stroke="#FF64FC" stroke-width="1.25366"/>
<path d="M129.127 65.3513H86.5026" stroke="#808080" stroke-width="1.25366"/>
<path d="M119.727 73.2811H110.438" stroke="#808080" stroke-width="1.25366"/>
<path d="M76.4732 72.8733H105.307" stroke="#00A02E" stroke-width="1.25366"/>
<path d="M70.1001 65.3513L82.6367 65.3513" stroke="#FF64FC" stroke-width="1.25366"/>
<path d="M76 49L76 44" stroke="#00A02E" stroke-width="1.25366"/>
</svg>
