<svg width="257" height="140" viewBox="0 0 257 140" fill="none" xmlns="http://www.w3.org/2000/svg">
<rect x="0.626829" y="0.626829" width="255.746" height="137.902" rx="1.88049" fill="#FEFEFE" stroke="#DDDDDD" stroke-width="1.25366"/>
<path d="M128.5 17.078L72.5 17.078" stroke="#AA5BF5" stroke-opacity="0.3" stroke-width="4.25"/>
<path d="M128.5 76.078H72.5" stroke="#AA5BF5" stroke-opacity="0.3" stroke-width="4.25"/>
<path d="M128.5 86.078H72.5" stroke="#AA5BF5" stroke-opacity="0.3" stroke-width="4.25"/>
<path d="M128.5 27.078L82.5 27.078" stroke="#00A02E" stroke-opacity="0.3" stroke-width="4.25"/>
<path d="M128.5 107.078H122.5" stroke="#00A02E" stroke-opacity="0.3" stroke-width="4.25"/>
<path d="M128.5 66.078H82.5" stroke="#00A02E" stroke-opacity="0.3" stroke-width="4.25"/>
<path d="M128.5 37.078H92.5" stroke="#309FC7" stroke-opacity="0.3" stroke-width="4.25"/>
<path d="M128.5 47.078H102.5" stroke="#C7B830" stroke-opacity="0.3" stroke-width="4.25"/>
<path d="M128.5 57.078H112.5" stroke="#C7308B" stroke-opacity="0.3" stroke-width="4.25"/>
<path d="M128.5 97.078H72.5" stroke="#C7308B" stroke-opacity="0.2" stroke-width="4.25"/>
<rect x="8.1488" y="9.40246" width="43.878" height="3.76097" rx="1.88049" stroke="#DDDDDD" stroke-width="1.25366"/>
<rect x="8.1488" y="20.6854" width="43.878" height="3.76097" rx="1.88049" fill="#DDDDDD" stroke="#DDDDDD" stroke-width="1.25366"/>
<rect x="8.1488" y="29.4609" width="43.878" height="3.76097" rx="1.88049" fill="#DDDDDD" stroke="#DDDDDD" stroke-width="1.25366"/>
<rect x="8.1488" y="38.2366" width="43.878" height="3.76097" rx="1.88049" fill="#DDDDDD" stroke="#DDDDDD" stroke-width="1.25366"/>
<rect x="8.1488" y="47.0122" width="43.878" height="3.76097" rx="1.88049" fill="#DDDDDD" stroke="#DDDDDD" stroke-width="1.25366"/>
<rect x="221.271" y="9.40246" width="27.5805" height="20.0585" rx="1.88049" fill="#DDDDDD" stroke="#DDDDDD" stroke-width="1.25366"/>
<path d="M200.585 39.4904H224.405C225.444 39.4905 226.285 40.332 226.285 41.3702V100.293C226.285 101.331 225.444 102.173 224.405 102.173H200.585C199.547 102.173 198.705 101.331 198.705 100.293V41.3702C198.705 40.3321 199.547 39.4906 200.585 39.4904Z" fill="#DDDDDD" stroke="#DDDDDD" stroke-width="1.25366"/>
<rect x="8.1488" y="64.5634" width="23.8195" height="3.76097" rx="1.88049" fill="#DDDDDD" stroke="#DDDDDD" stroke-width="1.25366"/>
<rect x="198.705" y="109.695" width="50.1463" height="20.0585" rx="1.88049" stroke="#DDDDDD" stroke-width="1.25366"/>
<rect x="236.941" y="117.844" width="7.52195" height="7.52195" rx="3.76097" fill="#9C9C9C"/>
<path d="M58.6084 0L58.6084 139.156" stroke="#DDDDDD" stroke-width="1.25366"/>
<path d="M190.5 119.078L59.5 119.078" stroke="#DDDDDD" stroke-width="1.25366"/>
<path d="M190.243 0L190.243 139.156" stroke="#DDDDDD" stroke-width="1.25366"/>
<path d="M69.5 118.078L69.5 99.0781" stroke="#C180FF" stroke-width="1.25366"/>
<path d="M69.5 73.0781L69.5 20.0781" stroke="#C180FF" stroke-width="1.25366"/>
<path d="M69.5 83.078L69.5 79.078" stroke="#C180FF" stroke-width="1.25366"/>
<path d="M69.5 93.078L69.5 89.078" stroke="#C180FF" stroke-width="1.25366"/>
<path d="M79.5 118.078L79.5 69.078" stroke="#37D865" stroke-width="1.25366"/>
<path d="M79.5 62.6171L79.5 29.6171" stroke="#37D865" stroke-width="1.25366"/>
<path d="M89.5 118.078L89.5 40.0781" stroke="#47E2D8" stroke-width="1.25366"/>
<path d="M99.5 118.078L99.5 50.0781" stroke="#E9BF51" stroke-width="1.25366"/>
<path d="M109.5 60.078L109.5 94.0781C109.5 95.7349 108.157 97.0781 106.5 97.0781L72.5 97.0781" stroke="#FF7CDA" stroke-width="1.25366"/>
<circle cx="109.5" cy="57.0781" r="3" stroke="#FF7CDA" stroke-width="1.25366"/>
<circle cx="99.5" cy="47.0781" r="3" stroke="#E9BF51" stroke-width="1.25366"/>
<path d="M119.5 118.078L119.5 109.078" stroke="#A3F16A" stroke-width="1.25366"/>
<circle cx="119.5" cy="106.078" r="3" stroke="#A3F16A" stroke-width="1.25366"/>
<circle cx="89.5" cy="37.0781" r="3" stroke="#47E2D8" stroke-width="1.25366"/>
<circle cx="79.5" cy="27.0781" r="3" stroke="#37D865" stroke-width="1.25366"/>
<circle cx="79.5" cy="66.0781" r="3" stroke="#37D865" stroke-width="1.25366"/>
<circle cx="69.5" cy="17.0781" r="3" stroke="#C180FF" stroke-width="1.25366"/>
<circle cx="69.5" cy="96.0781" r="3" stroke="#C180FF" stroke-width="1.25366"/>
<circle cx="69.5" cy="86.0781" r="3" stroke="#C180FF" stroke-width="1.25366"/>
<circle cx="69.5" cy="76.0781" r="3" stroke="#C180FF" stroke-width="1.25366"/>
<path d="M178.5 17.0781L135.5 17.0781" stroke="#808080" stroke-width="1.25366"/>
<path d="M163.5 27.0781L135.5 27.0781" stroke="#808080" stroke-width="1.25366"/>
<path d="M178.5 37.0781H135.5" stroke="#808080" stroke-width="1.25366"/>
<path d="M163.5 47.0781H135.5" stroke="#808080" stroke-width="1.25366"/>
<path d="M178.5 57.0781H135.5" stroke="#808080" stroke-width="1.25366"/>
<path d="M163.5 67.0781H135.5" stroke="#808080" stroke-width="1.25366"/>
<path d="M178.5 77.0781H135.5" stroke="#808080" stroke-width="1.25366"/>
<path d="M163.5 87.0781H135.5" stroke="#808080" stroke-width="1.25366"/>
<path d="M178.5 97.0781H135.5" stroke="#808080" stroke-width="1.25366"/>
<path d="M163.5 107.078H135.5" stroke="#808080" stroke-width="1.25366"/>
</svg>
