<?xml version="1.0" encoding="utf-8"?>
<svg width="128" height="128" version="1.0" xmlns="http://www.w3.org/2000/svg">
 <g>
  <path d="m30.452075,4.398001l19.925815,19.925815c4.63074,-1.563693 9.941224,-0.514191 13.631259,3.176598c3.712285,3.713794 4.752924,9.069908 3.148692,13.717429l19.205533,19.20327c4.647522,-1.601969 10.005898,-0.566421 13.718184,3.150955c5.185283,5.183774 5.185283,13.587137 0,18.775248c-5.189054,5.1883 -13.59072,5.1883 -18.782036,0c-3.899898,-3.903669 -4.864926,-9.634632 -2.887165,-14.439975l-17.912794,-17.911286l0,47.133088c1.263135,0.626005 2.456316,1.459798 3.509588,2.510054c5.185283,5.184717 5.185283,13.587137 0,18.779774c-5.185283,5.18302 -13.592983,5.18302 -18.774494,0c-5.185283,-5.192636 -5.185283,-13.595057 0,-18.779774c1.281613,-1.280105 2.765735,-2.248527 4.349227,-2.896782l0,-47.569028c-1.583491,-0.648255 -3.064031,-1.608569 -4.349227,-2.897536c-3.927239,-3.925919 -4.87228,-9.690822 -2.857939,-14.514455l-19.643548,-19.646564" fill="#fff"/>
 </g>
</svg>