<svg xmlns="http://www.w3.org/2000/svg" xmlns:xlink="http://www.w3.org/1999/xlink" viewBox="0 0 153 153"><defs><radialGradient id="a" cx="50" cy="50" r="50" gradientUnits="userSpaceOnUse"><stop offset="0" stop-color="#FFF" stop-opacity=".5"/><stop offset="1" stop-color="#FFF" stop-opacity="0"/></radialGradient></defs><path d="M45.7-.025a5.92 5.92 0 0 0-4.2 1.724L33.2 10l10.6 10.6a7.41 7.41 0 0 1 3.458-.254 69.93 69.93 0 0 0-8.621 5.363 69.93 69.93 0 0 1 .779-.57c.06-.18.109-.363.184-.54L29.2 14.2 1.7 41.7c-2.3 2.3-2.3 6.1 0 8.4l11.027 11.028a69.93 69.93 0 0 1 .308-.813 69.93 69.93 0 0 0-3.69 22.184 69.93 69.93 0 0 0 69.93 69.93 69.93 69.93 0 0 0 21.56-3.498l44.946-44.946a69.93 69.93 0 0 0 3.424-21.486 69.93 69.93 0 0 0-69.93-69.93 69.93 69.93 0 0 0-18.12 2.475 69.93 69.93 0 0 1 1.66-.43L49.9 1.7a5.924 5.924 0 0 0-4.2-1.724zm14.077 15.46l7.088 7.088c5.276-1.688 11.184-.632 15.194 3.588 4.22 4.22 5.274 10.129 3.586 15.405l21.525 21.523c5.276-1.688 11.184-.633 15.404 3.588 5.909 5.698 5.909 15.195 0 21.103-5.908 5.91-15.193 5.91-21.101 0-4.432-4.431-5.488-10.763-3.166-16.25L78.26 51.434v52.755c1.477.634 2.743 1.69 4.01 2.745 5.908 5.697 5.908 15.192 0 21.101a15.164 15.164 0 0 1-21.104 0c-5.909-5.909-5.909-15.193 0-21.101 1.477-1.478 3.165-2.533 4.854-3.166v-53.39c-1.689-.632-3.377-1.899-4.854-3.165-4.431-4.432-5.485-10.762-3.164-16.248L47.344 20.307a69.93 69.93 0 0 1 12.433-4.871zM15.4 54.19a69.93 69.93 0 0 0-.228.479 69.93 69.93 0 0 1 .228-.479z" fill="#f05133"/><path d="M149.204 82.497a69.93 69.93 0 0 1-69.93 69.93 69.93 69.93 0 0 1-69.929-69.93 69.93 69.93 0 0 1 69.93-69.929 69.93 69.93 0 0 1 69.93 69.93z" fill="url(#a)" stroke="#fff" stroke-width="1"/></svg>
