<svg width="28" height="28" viewBox="0 0 28 28" fill="none" xmlns="http://www.w3.org/2000/svg">
<path d="M14 27C21.1797 27 27 21.1797 27 14C27 6.8203 21.1797 1 14 1C6.8203 1 1 6.8203 1 14C1 21.1797 6.8203 27 14 27Z" stroke="black" stroke-width="1.5" stroke-linecap="round" stroke-linejoin="round"/>
<path d="M11.42 6.91956L7.48494 3L6 4.55305L9.86077 8.39864C9.45244 9.36002 9.63806 10.4694 10.4176 11.2459C10.6775 11.4677 10.9745 11.6896 11.2715 11.8005V19.1557C10.9745 19.2666 10.6775 19.4515 10.4176 19.7103C9.3782 20.7457 9.3782 22.3727 10.4176 23.408C11.4571 24.4064 13.0905 24.4064 14.1299 23.408C15.1694 22.3727 15.1694 20.7087 14.1299 19.7103L14.1298 19.7102C13.9071 19.5254 13.6844 19.3405 13.4246 19.2296V11.8005L16.9513 15.4982C16.5429 16.4596 16.7285 17.5689 17.5081 18.3454C18.5476 19.3808 20.181 19.3808 21.2204 18.3454C22.2599 17.31 22.2599 15.6461 21.2204 14.6477C20.478 13.9082 19.4385 13.7233 18.5104 14.0191L14.7239 10.2475C15.0209 9.32306 14.8353 8.28772 14.0928 7.54817C13.3875 6.80862 12.348 6.62373 11.42 6.91956Z" fill="black"/>
</svg>
