<svg width="29" height="29" viewBox="0 0 29 29" fill="none" xmlns="http://www.w3.org/2000/svg">
<path fill-rule="evenodd" clip-rule="evenodd" d="M12.9532 9.74212C12.9586 9.7458 12.964 9.7495 12.9694 9.75321L18.5016 13.544C18.7263 13.698 18.9163 13.8282 19.0582 13.948C19.2045 14.0715 19.341 14.2169 19.413 14.4175C19.5114 14.6914 19.5114 15.0031 19.413 15.277C19.341 15.4776 19.2045 15.623 19.0582 15.7465C18.9163 15.8663 18.7263 15.9965 18.5017 16.1504L12.953 19.9525C12.7524 20.09 12.5798 20.2083 12.4353 20.2865C12.29 20.3652 12.1102 20.44 11.911 20.407C11.6408 20.3622 11.4197 20.1788 11.2857 19.9367C11.1927 19.7687 11.1628 19.5738 11.149 19.3809C11.1352 19.1878 11.1353 18.9422 11.1353 18.6434V11.0511C11.1353 10.7523 11.1352 10.5067 11.149 10.3136C11.1628 10.1207 11.1927 9.92586 11.2857 9.75778C11.4197 9.51568 11.6408 9.33231 11.911 9.28754C12.1102 9.25454 12.29 9.32935 12.4353 9.40801C12.5798 9.48624 12.7526 9.60462 12.9532 9.74212ZM12.0109 10.0225C11.9761 10.0308 11.9264 10.0605 11.885 10.1352C11.8759 10.1517 11.8548 10.205 11.843 10.3699C11.8315 10.5314 11.8312 10.7485 11.8312 11.0663V18.6281C11.8312 18.946 11.8315 19.163 11.843 19.3246C11.8548 19.4896 11.8759 19.5429 11.885 19.5593C11.9264 19.6341 11.9761 19.6638 12.0108 19.672C12.0203 19.67 12.0525 19.6612 12.1203 19.6245C12.2296 19.5653 12.3725 19.4679 12.5932 19.3167L18.1109 15.5358C18.3542 15.3691 18.5147 15.2586 18.6263 15.1644C18.7366 15.0713 18.7575 15.0273 18.7631 15.0115C18.8001 14.9085 18.8001 14.786 18.7631 14.683C18.7575 14.6672 18.7366 14.6232 18.6263 14.5301C18.5147 14.4359 18.3542 14.3254 18.1109 14.1587L12.5932 10.3778C12.3725 10.2266 12.2296 10.1292 12.1204 10.07C12.0525 10.0333 12.0203 10.0246 12.0109 10.0225Z" fill="white"/>
<path fill-rule="evenodd" clip-rule="evenodd" d="M14.3833 28.029C21.9196 28.029 28.029 21.9196 28.029 14.3833C28.029 6.84698 21.9196 0.737604 14.3833 0.737604C6.84698 0.737604 0.737604 6.84698 0.737604 14.3833C0.737604 21.9196 6.84698 28.029 14.3833 28.029ZM14.3833 28.7666C22.327 28.7666 28.7666 22.327 28.7666 14.3833C28.7666 6.43962 22.327 0 14.3833 0C6.43962 0 0 6.43962 0 14.3833C0 22.327 6.43962 28.7666 14.3833 28.7666Z" fill="white"/>
</svg>
