<svg width="24" height="24" viewBox="0 0 24 24" fill="none" xmlns="http://www.w3.org/2000/svg">
<path fill-rule="evenodd" clip-rule="evenodd" d="M12 24C18.6274 24 24 18.6274 24 12C24 5.37258 18.6274 0 12 0C5.37258 0 0 5.37258 0 12C0 18.6274 5.37258 24 12 24ZM15.2816 21.9083C19.4369 20.5328 22.4348 16.6165 22.4348 12C22.4348 6.23703 17.763 1.56522 12 1.56522C6.23703 1.56522 1.56522 6.23703 1.56522 12C1.56522 17.763 6.23703 22.4348 12 22.4348C12.0051 22.4348 12.0101 22.4348 12.0152 22.4348C10.857 22.4329 9.76458 22.2499 8.73809 21.9022C9.254 22.0021 9.43707 21.6859 9.43707 21.403C9.43707 21.3157 9.43504 21.1777 9.43239 20.9981C9.42747 20.6637 9.42043 20.1852 9.42043 19.6222C6.52465 20.2546 5.90888 18.2243 5.90888 18.2243C5.42625 17.0094 4.74391 16.6932 4.74391 16.6932C3.7953 16.0441 4.81048 16.0607 4.81048 16.0607C5.85895 16.144 6.40815 17.1425 6.40815 17.1425C7.32349 18.7402 8.83794 18.2742 9.43707 18.0079C9.53692 17.3256 9.8032 16.8762 10.1028 16.6099C7.77283 16.3437 5.34304 15.445 5.34304 11.4508C5.34304 10.3191 5.7591 9.38715 6.4248 8.65488C6.3083 8.3886 5.95881 7.32349 6.52465 5.89224C6.52465 5.89224 7.39005 5.60932 9.38714 6.95736C10.2193 6.72436 11.118 6.60786 12 6.60786C12.882 6.60786 13.7807 6.72436 14.6129 6.95736C16.5933 5.60932 17.4753 5.89224 17.4753 5.89224C18.0412 7.32349 17.6751 8.3886 17.5752 8.65488C18.2409 9.38715 18.6403 10.3191 18.6403 11.4508C18.6403 15.445 16.2105 16.327 13.8806 16.5933C14.2634 16.9095 14.5962 17.5586 14.5962 18.5238C14.5962 19.4558 14.5888 20.262 14.5839 20.7995C14.5814 21.0683 14.5796 21.2698 14.5796 21.3863C14.5796 21.6613 14.7525 21.9677 15.2816 21.9083Z" fill="#C5C5C5"/>
</svg>
