<svg xmlns="http://www.w3.org/2000/svg" width="16" height="16" fill="none" viewBox="0 0 16 16">
    <path fill="#C5C5C5" fill-rule="evenodd" d="M8 0c3.59 0 4 2.56 4 3 2.08 0 3 .56 3 3 0 2.34-1.92 3-4 3h-1V8h1.054c.57.004 2.946.018 2.946-2 0-1.98-1.19-2-2-2h-1V3l-.008-.03C10.902 2.635 10.464 1 8 1 6.36 1 5 2.61 5 4v1H4C2.35 5 2 6.33 2 6.5 2 6.78 2.38 8 4 8h1v1H4c-2 0-3-.97-3-2.5C1 5.02 2.02 4 4 4c0-2.08 1.58-4 4-4z" clip-rule="evenodd"/>
    <path fill="#C5C5C5" d="M7.965 16h-1.06L3 12.095l1.061-1.06 2.637 2.61V7.468h1.5v6.177l2.723-2.723 1.061 1.061L7.965 16z"/>
</svg>
