<svg xmlns="http://www.w3.org/2000/svg" width="16" height="16" fill="none" viewBox="0 0 16 16">
    <path fill="#C5C5C5" d="M1.41 1.66a.45.45 0 0 0-.45.53l1.92 11.63a.61.61 0 0 0 .6.51h9.2a.45.45 0 0 0 .44-.38L15.04 2.2a.451.451 0 0 0-.45-.53H1.41v-.01zm8.07 8.41H6.55l-.8-4.15h4.44l-.7 4.15h-.01z"/>
    <path fill="url(#paint0_linear)" d="M14.43 5.92h-4.24l-.7 4.15H6.54L3.08 14.2a.61.61 0 0 0 .4.15h9.2a.45.45 0 0 0 .44-.38l1.3-8.04.01-.01z"/>
    <defs>
        <linearGradient id="paint0_linear" x1="3.08" x2="3.08" y1="5.92" y2="14.35" gradientUnits="userSpaceOnUse">
            <stop stop-color="#424242" stop-opacity=".7"/>
            <stop offset=".5" stop-color="#424242" stop-opacity="0"/>
            <stop offset="1" stop-color="#424242" stop-opacity="0"/>
        </linearGradient>
    </defs>
</svg>
