<?xml version="1.0" encoding="utf-8"?>
<svg xmlns="http://www.w3.org/2000/svg" viewBox="0 0 16 22">
    <path fill="#c5c5c5" d="M.9 3.9h4.2v2.2H4V14c.01.27.1.49.31.69.21.2.42.29.69.31h1v-2l3 3-3 3v-2H5c-.78-.03-1.46-.35-2.06-.94-.6-.59-.91-1.28-.94-2.06V6.1H.9zm13.834 11.115c.763 1.331-.2 2.989-1.734 2.985a2 2 0 0 1-1.004-.268c-1.327-.768-1.325-2.686.004-3.452V8a.943.943 0 0 0-.31-.69c-.21-.2-.42-.29-.69-.31h-1v2L7 6l3-3v2h1c.78.03 1.46.35 2.06.94.6.59.91 1.28.94 2.06v6.28c.305.176.559.429.734.735zM14.2 16c0-.65-.55-1.2-1.2-1.2-.65 0-1.2.55-1.2 1.2 0 .65.54 1.2 1.2 1.2.65 0 1.2-.55 1.2-1.2z"/>
</svg>
