<svg width="16" height="16" viewBox="0 0 16 16" fill="none" xmlns="http://www.w3.org/2000/svg">
<rect width="16" height="16" fill="black"/>
<path d="M11.0769 0H1.23077C0.551034 0 0 0.551034 0 1.23077V11.0769C0 11.7567 0.551034 12.3077 1.23077 12.3077H11.0769C11.7567 12.3077 12.3077 11.7567 12.3077 11.0769V1.23077C12.3077 0.551034 11.7567 0 11.0769 0Z" fill="#FFAAAA"/>
<path d="M14.7692 3.69231H4.92308C4.24334 3.69231 3.69231 4.24334 3.69231 4.92308V14.7692C3.69231 15.449 4.24334 16 4.92308 16H14.7692C15.449 16 16 15.449 16 14.7692V4.92308C16 4.24334 15.449 3.69231 14.7692 3.69231Z" fill="#AAFFAA"/>
<path d="M5.53846 6.76923H9.23077V8H5.53846V6.76923Z" fill="#FF0000"/>
<path d="M10.4615 6.76923H14.1538V8H10.4615V6.76923Z" fill="#FF0000"/>
<path d="M5.53846 11.0769H6.76923V9.84615H8V11.0769H9.23077V12.3077H8V13.5385H6.76923V12.3077H5.53846V11.0769Z" fill="#008000"/>
<path d="M10.4615 11.0769H11.6923V9.84615H12.9231V11.0769H14.1538V12.3077H12.9231V13.5385H11.6923V12.3077H10.4615V11.0769Z" fill="#008000"/>
</svg>