<svg xmlns="http://www.w3.org/2000/svg" width="16" height="16" fill="none" viewBox="0 0 16 16">
   <path fill="#fff" fill-opacity=".1" d="M9.69 11.282L6.866 9.923a.565.565 0 01-.263-.752L7.96 6.344a.565.565 0 01.753-.262l.604.29-.003-2.433.372-.002.002 2.608s1.279.539 1.851.893c.083.051.227.151.287.32a.566.566 0 01-.022.43l-1.358 2.827a.567.567 0 01-.755.267z" />
   <path fill="#C5C5C5" d="M8.152 8.963a.402.402 0 00-.385.308.401.401 0 00.202.445.4.4 0 00.506-.12.402.402 0 00-.04-.514l.534-1.094a.397.397 0 00.138-.011c.092-.02.158-.08.158-.08a5.483 5.483 0 01.593.298.442.442 0 01.167.165c.042.122-.043.332-.043.332-.05.169-.41.904-.41.904a.404.404 0 00-.394.278.398.398 0 10.675-.147c.043-.082.083-.164.125-.251.111-.232.3-.677.3-.677.02-.038.128-.23.06-.475-.055-.254-.28-.372-.28-.372a5.225 5.225 0 00-.65-.338s0-.091-.025-.158a.401.401 0 00-.086-.14c.104-.217.209-.43.314-.646l-.272-.136-.323.657a.4.4 0 00-.316.65l-.548 1.122zm6.59-5.128c-.092-.092-.214-.09-.214-.09s-2.61.147-3.962.179c-.296.006-.59.013-.882.015v2.61l-.37-.176-.002-2.432a49.87 49.87 0 01-1.986-.049s-3.15-.158-3.492-.189c-.219-.013-.502-.047-.869.034-.194.04-.746.164-1.198.599-1.002.893-.746 2.314-.715 2.527.038.26.154.985.706 1.615 1.02 1.25 3.216 1.22 3.216 1.22s.27.644.681 1.236c.557.738 1.13 1.312 1.686 1.381l4.207-.002s.267.002.63-.23c.312-.189.59-.52.59-.52s.288-.308.689-1.01c.122-.215.225-.425.314-.623 0 0 1.229-2.608 1.229-5.147-.024-.768-.214-.904-.258-.948zM3.67 8.38c-.577-.19-.822-.416-.822-.416s-.425-.299-.639-.887c-.367-.984-.031-1.586-.031-1.586s.187-.5.857-.668c.308-.082.69-.069.69-.069s.159 1.323.35 2.098c.16.65.553 1.73.553 1.73s-.582-.068-.958-.202zm6.688 2.396s-.136.323-.437.343c-.129.01-.23-.026-.23-.026l-.117-.047L7.06 9.82s-.243-.127-.286-.348c-.049-.18.06-.403.06-.403l1.21-2.492s.107-.216.272-.29a.497.497 0 01.1-.033c.18-.046.4.063.4.063l2.466 1.196s.28.127.34.36a.612.612 0 01-.04.384c-.14.342-1.224 2.518-1.224 2.518z" />
</svg>
