<?xml version="1.0" encoding="utf-8"?>
<svg xmlns="http://www.w3.org/2000/svg" viewBox="0 0 16 22">
    <path fill="#C5C5C5" d="m4.635005,6.8745l6.73,0l-3.36459,5.82741l-3.36542,-5.82741l0.00001,0z"/>
    <path fill="#C5C5C5" d="m8.974,1.5075l0,7.79l-1.948,0l0,-7.79l1.948,0z"/>
    <path fill="#C5C5C5" d="m6.5,4.313l3,0l-3,0zm3,0.945l-3,0l3,0zm4.108,-0.124c-0.076,-0.458 -0.478,-0.821 -0.955,-0.821l-3.153,0l0,0.945l3.277,0l0.955,6.688l-1.318,0c-0.373,0 -0.698,0.21 -0.87,0.525l0.01,0.01l-0.42,0.85c-0.163,0.325 -0.497,0.535 -0.87,0.535l-4.547,0c-0.363,0 -0.688,-0.21 -0.851,-0.525l-0.42,-0.87c-0.162,-0.315 -0.497,-0.525 -0.85,-0.525l-1.328,0l0.955,-6.688l3.277,0l0,-0.945l-3.153,0c-0.477,0 -0.879,0.363 -0.955,0.821l-1.08,6.821l0,4.777c0,0.526 0.43,0.956 0.956,0.956l11.464,0c0.526,0 0.956,-0.43 0.956,-0.956l0,-4.777l-1.08,-6.821z"/>
</svg>
