<?xml version="1.0" encoding="utf-8"?>
<svg xmlns="http://www.w3.org/2000/svg" viewBox="0 0 16 22">
    <path fill="#C5C5C5" d="M11.538 4.817H9.267A1.819 1.819 0 0 0 7.45 3a1.819 1.819 0 0 0-1.817 1.817h-2.27C2.61 4.817 2 5.428 2 6.18v9.99c0 .752.61 1.363 1.363 1.363h8.175c.752 0 1.362-.611 1.362-1.363V6.18c0-.752-.61-1.363-1.362-1.363zm-.172 11.353H3.534a.17.17 0 0 1-.171-.169V6.349a.17.17 0 0 1 .171-.169h1.191v.453c0 .757 5.45.727 5.45 0V6.18h1.191a.17.17 0 0 1 .172.169v9.652a.17.17 0 0 1-.172.169zM7.45 4.135a.682.682 0 1 1 0 1.363.682.682 0 0 1 0-1.363"/>
</svg>
