<svg xmlns="http://www.w3.org/2000/svg" width="16" height="16" fill="none" viewBox="0 0 16 16">
	<path fill="#fff" fill-opacity=".1" stroke="#C5C5C5" stroke-width=".5" d="M.25.25h15.5v15.5H.25z"/>
	<path fill="#C5C5C5" d="M1.88 13h12.25v-2H15v3H1v-3h.88v2ZM4.9 5.37c1.3 0 1.94.69 1.94 2.05V11h-.88v-.86h-.02c-.38.66-.95.99-1.7.99-.54 0-.97-.15-1.28-.44-.31-.29-.46-.67-.46-1.15 0-1.03.6-1.63 1.81-1.8l1.65-.23c0-.93-.38-1.4-1.13-1.4a2.7 2.7 0 0 0-1.8.68v-.9a3.4 3.4 0 0 1 1.87-.52Zm4.43 1.1h.02a2.08 2.08 0 0 1 1.9-1.1 2 2 0 0 1 1.65.74c.4.5.6 1.15.6 1.98 0 .92-.22 1.66-.67 2.21-.44.55-1.06.83-1.83.83a1.8 1.8 0 0 1-1.65-.92h-.02V11h-.88V2.86h.88v3.6ZM4.63 8.4c-.4.06-.71.16-.92.3-.2.15-.31.4-.31.77 0 .27.1.5.28.67.2.16.45.25.77.25.44 0 .8-.15 1.08-.46.29-.3.43-.7.43-1.16v-.55l-1.33.18Zm6.4-2.29c-.51 0-.93.18-1.24.54-.3.35-.46.8-.46 1.34v.76c0 .46.14.85.44 1.17.3.31.67.47 1.12.47.54 0 .95-.2 1.26-.61.3-.41.45-.98.45-1.7 0-.62-.14-1.1-.42-1.45a1.4 1.4 0 0 0-1.15-.52Z"/>
</svg>
