<svg xmlns="http://www.w3.org/2000/svg" width="16" height="16" fill="none" viewBox="0 0 16 16">
	<path fill="#C5C5C5" d="M11.83 6.2a3.5 3.5 0 0 1 0 6.93v2.2h-1v-2.2a3.5 3.5 0 0 1 0-6.93V.67h1V6.2Zm-.5.97a2.5 2.5 0 1 0 0 5 2.5 2.5 0 0 0 0-5Z"/>
	<path fill="#C5C5C5" d="M9.67 5.3A4.67 4.67 0 0 0 9.6 14H1.33l-.66-.67V6.67L1.33 6H6l.67-.67c.2-.19.36-.26.66-.33h2.34v.3ZM15.33 12.07v1.26l-.66.67h-1.6a4.68 4.68 0 0 0 2.26-1.93ZM15.33 5.67v1.6A4.69 4.69 0 0 0 13 5.3V5h1.67l.66.67ZM6.33 2c.54 0 1.11.67 1.34 1h2v1h-2c-.5 0-.88-.38-1.13-.7l-.2-.3H1.66v2.33h-.34L.67 6V2.67L1.33 2h5ZM15.33 3.67V5l-.66-.67h-.34V4H13V3h1.67l.66.67Z"/>
</svg>
