<?xml version="1.0" encoding="utf-8"?>
<svg xmlns="http://www.w3.org/2000/svg" viewBox="0 0 16 22">
    <path fill="#C5C5C5" d="M12 10.005c-.73 0-1.38.41-1.73 1.02v-.02c-1.05-.02-2.27-.36-3.13-1.02-.75-.58-1.5-1.61-1.89-2.44 1.199-.958.911-2.854-.518-3.413A2.002 2.002 0 0 0 2 6.005a2 2 0 0 0 1 1.72v6.56c-.59.35-1 .99-1 1.72 0 1.11.89 2 2 2 1.534.004 2.497-1.654 1.734-2.985A1.99 1.99 0 0 0 5 14.285v-3.61c.67.7 1.44 1.27 2.3 1.69.86.42 2.03.63 2.97.64v-.02c.36.61 1 1.02 1.73 1.02 1.11 0 2-.89 2-2 0-1.11-.89-2-2-2zm-6.8 6c0 .66-.55 1.2-1.2 1.2-.65 0-1.2-.55-1.2-1.2 0-.65.55-1.2 1.2-1.2.65 0 1.2.55 1.2 1.2zM4 7.205c-.66 0-1.2-.55-1.2-1.2 0-.65.55-1.2 1.2-1.2.65 0 1.2.55 1.2 1.2 0 .65-.55 1.2-1.2 1.2zm8 6c-.66 0-1.2-.55-1.2-1.2 0-.65.55-1.2 1.2-1.2.65 0 1.2.55 1.2 1.2 0 .65-.55 1.2-1.2 1.2z"/>
</svg>
