<?xml version="1.0" encoding="utf-8"?>
<svg xmlns="http://www.w3.org/2000/svg" viewBox="0 0 16 22">
    <path fill="#C5C5C5" d="m6,12l-1,0l0,-1l1,0l0,1l0,0zm0,-3l-1,0l0,1l1,0l0,-1l0,0zm0,-2l-1,0l0,1l1,0l0,-1l0,0zm0,-2l-1,0l0,1l1,0l0,-1l0,0zm8,-1l0,12c0,0.55 -0.45,1 -1,1l-5,0l0,2l-1.5,-1.5l-1.5,1.5l0,-2l-2,0c-0.55,0 -1,-0.45 -1,-1l0,-12c0,-0.55 0.45,-1 1,-1l10,0c0.55,0 1,0.45 1,1l0,0zm-1,10l-10,0l0,2l2,0l0,-1l3,0l0,1l5,0l0,-2l0,0zm0,-10l-9,0l0,9l9,0l0,-9l0,0z"/>
    <ellipse cx="13" cy="17" fill="#0366d6" stroke="#C5C5C5" stroke-width="0.5" rx="3" ry="3"/>
</svg>
