<svg width="16" height="16" viewBox="0 0 16 16" fill="none" xmlns="http://www.w3.org/2000/svg">
<path d="M12.0021 9.7024L12.0393 9.6273C12.1333 9.51215 12.2687 9.4458 12.4138 9.4458H13.7321H14.1875V13.7321C14.1875 13.9814 13.9814 14.1875 13.7321 14.1875H2.26786C2.01855 14.1875 1.8125 13.9814 1.8125 13.7321V9.4458H2.26786H3.5958C3.75417 9.4458 3.91869 9.54373 3.99919 9.69565L4.41629 10.5583L4.41614 10.5583L4.42194 10.5696C4.66584 11.043 5.15733 11.3661 5.7167 11.3661H10.2642C10.8267 11.3661 11.3339 11.0484 11.5808 10.5547L11.5818 10.5527L12.0021 9.7024Z" stroke="#C5C5C5"/>
</svg>
