<?xml version="1.0" encoding="utf-8"?>
<svg xmlns="http://www.w3.org/2000/svg" viewBox="0 0 16 22">
    <path fill="#C5C5C5" d="m14.687501,11.955358l-1.079554,-6.821251c-0.076429,-0.458572 -0.477679,-0.821607 -0.955357,-0.821607l-9.30518,0c-0.477679,0 -0.878929,0.363036 -0.955357,0.821607l-1.079554,6.821251l0,4.776787c0,0.525447 0.429911,0.955357 0.955357,0.955357l11.464288,0c0.525447,0 0.955357,-0.429911 0.955357,-0.955357l0,-4.776787l0,0zm-3.133572,0.525447l-0.420357,0.850268c-0.162411,0.324821 -0.496786,0.535 -0.869375,0.535l-4.547501,0c-0.363036,0 -0.687857,-0.210179 -0.850268,-0.525447l-0.420357,-0.869375c-0.162411,-0.315268 -0.496786,-0.525447 -0.850268,-0.525447l-1.327947,0l0.955357,-6.687501l9.553573,0l0.955357,6.687501l-1.318393,0c-0.372589,0 -0.697411,0.210179 -0.869375,0.525447l0.009554,0.009554z"/>
</svg>
