<svg xmlns="http://www.w3.org/2000/svg" width="16" height="16" fill="none" viewBox="0 0 16 16">
    <circle cx="7.5" cy="7.5" r="7.5" fill="#6C6C6C"/>
    <path fill="#fff" d="M7.325 2.9c.507 0 .942.095 1.305.284.364.185.641.428.833.73.191.303.287.623.287.959 0 .403-.074.733-.222.99a2.282 2.282 0 0 1-.538.642 22.88 22.88 0 0 1-.647.51c-.216.16-.397.35-.545.568-.144.214-.216.491-.216.832v.41H6.451v-.473c0-.412.07-.752.21-1.021a2.44 2.44 0 0 1 .526-.681 9.42 9.42 0 0 1 .629-.517c.207-.16.381-.33.52-.51a1.04 1.04 0 0 0 .216-.668c0-.34-.127-.601-.383-.782-.255-.185-.575-.277-.958-.277-.283 0-.57.071-.862.214-.292.143-.56.37-.803.68l-.796-.623c.347-.429.737-.746 1.168-.952.43-.21.9-.315 1.407-.315zm-.282 7.216c.244 0 .448.087.611.259.164.172.246.38.246.624 0 .248-.082.46-.246.636a.799.799 0 0 1-.61.265.786.786 0 0 1-.6-.265.916.916 0 0 1-.239-.636c0-.244.08-.452.24-.624a.795.795 0 0 1 .598-.259z"/>
</svg>
