<svg xmlns="http://www.w3.org/2000/svg" width="16" height="16" fill="none" viewBox="0 0 16 16">
    <circle cx="7.5" cy="7.5" r="7.5" fill="#6C6C6C"/>
    <path fill="#fff" fill-rule="evenodd" d="M11.146 3.646l-7.5 7.5.708.707 1.125-1.125A7.195 7.195 0 0 0 7.5 11c3.176 0 4.85-1.75 6-3.5-.592-.901-1.324-1.803-2.328-2.465l.682-.681-.708-.708zm-.699 2.114L8.5 7.708l.001.042A1.25 1.25 0 0 1 7.208 9l-.898.897c.367.067.762.103 1.19.103 2.385 0 3.762-1.123 4.782-2.5-.5-.675-1.086-1.29-1.835-1.74zM6.001 7.792l1.291-1.291L7.25 6.5A1.25 1.25 0 0 0 6 7.792zM7.5 5c.428 0 .823.036 1.19.103l.83-.83A7.196 7.196 0 0 0 7.5 4c-3.176 0-4.85 1.75-6 3.5.592.901 1.324 1.803 2.328 2.465l.725-.725c-.749-.45-1.335-1.065-1.835-1.74C3.738 6.123 5.115 5 7.5 5z" clip-rule="evenodd"/>
</svg>
