<svg xmlns="http://www.w3.org/2000/svg" width="16" height="16" fill="none" viewBox="0 0 16 16">
    <path fill="#C5C5C5" fill-rule="evenodd" d="M9.885 1.694L8.572 3h2.774a1.671 1.671 0 011.671 1.672h-.5.5v6.368h-.07a2.5 2.5 0 11-.895 0h-.035V4.672A.67.67 0 0011.346 4H8.539l1.3 1.343-.72.696-2.118-2.19.006-.702L9.18.986l.706.708zM11 13.5a1.5 1.5 0 113 0 1.5 1.5 0 01-3 0zm-5-10a2.5 2.5 0 01-2 2.45v6.357a.671.671 0 00.671.671h2.81l-1.3-1.343.72-.696 2.118 2.191-.006.702-2.172 2.16-.706-.709 1.313-1.305H4.671A1.67 1.67 0 013 12.307V5.95A2.5 2.5 0 116 3.5z" />
</svg>
