<svg xmlns="http://www.w3.org/2000/svg" width="16" height="16" fill="none" viewBox="0 0 16 16">
    <path fill="#9E9E9E" fill-rule="evenodd" d="M8.153 14.758l-.005.007h.01l.007-.023 6.313-8.438h-3.69l-2.623 8.438-.01.013-2.647-8.45h-3.68l6.325 8.453z" clip-rule="evenodd"/>
    <path fill="#636363" fill-rule="evenodd" d="M1.028 8.874l.8-2.57 6.325 8.454 6.325-8.453.8 2.57a.601.601 0 0 1-.001.354.57.57 0 0 1-.2.286L8.155 14.76l.004.005-.005-.004-.005.004.003-.005-6.923-5.245a.569.569 0 0 1-.2-.286.6.6 0 0 1 0-.354z" clip-rule="evenodd"/>
    <path fill="#C5C5C5" fill-rule="evenodd" d="M1.828 6.305h3.69l2.64 8.46 2.63-8.46h3.69l-1.59-5.1a.28.28 0 0 0-.099-.137.264.264 0 0 0-.313 0 .28.28 0 0 0-.098.137l-1.6 5.1h-5.25l-1.6-5.1a.28.28 0 0 0-.099-.137.263.263 0 0 0-.313 0 .28.28 0 0 0-.098.137l-1.59 5.1z" clip-rule="evenodd"/>
</svg>
