<svg width="16" height="16" viewBox="0 0 16 16" fill="none" xmlns="http://www.w3.org/2000/svg">
<path fill-rule="evenodd" clip-rule="evenodd" d="M4.99008 1C4.5965 1 4.21175 1.11671 3.8845 1.33538C3.55724 1.55404 3.30218 1.86484 3.15156 2.22846C3.00094 2.59208 2.96153 2.99221 3.03832 3.37823C3.1151 3.76425 3.30463 4.11884 3.58294 4.39714C3.83589 4.65009 4.15185 4.8297 4.49715 4.91798L4.49099 10.8286C4.40192 10.8517 4.31421 10.881 4.22852 10.9165C3.8649 11.0671 3.5541 11.3222 3.33544 11.6494C3.11677 11.9767 3.00006 12.3614 3.00006 12.755C3.00006 13.2828 3.20972 13.7889 3.58292 14.1621C3.95612 14.5353 4.46228 14.745 4.99006 14.745C5.38365 14.745 5.76839 14.6283 6.09565 14.4096C6.4229 14.191 6.67796 13.8802 6.82858 13.5165C6.9792 13.1529 7.01861 12.7528 6.94182 12.3668C6.86504 11.9807 6.67551 11.6262 6.3972 11.3479C6.14426 11.0949 5.8283 10.9153 5.48299 10.827V9.745H5.48915V8.80133C6.50043 10.3332 8.19531 11.374 10.1393 11.4893C10.2388 11.7413 10.3893 11.9714 10.5825 12.1648C10.8608 12.4432 11.2154 12.6328 11.6014 12.7097C11.9875 12.7866 12.3877 12.7472 12.7513 12.5966C13.115 12.446 13.4259 12.191 13.6446 11.8637C13.8633 11.5364 13.98 11.1516 13.98 10.758C13.98 10.2304 13.7705 9.72439 13.3975 9.35122C13.0245 8.97805 12.5186 8.76827 11.991 8.76801C11.5974 8.76781 11.2126 8.88435 10.8852 9.10289C10.5578 9.32144 10.3026 9.63216 10.1518 9.99577C10.0875 10.1509 10.0434 10.3127 10.0199 10.4772C7.48375 10.2356 5.48915 8.09947 5.48915 5.5C5.48915 5.33125 5.47282 5.16445 5.48915 5V4.9164C5.57823 4.89333 5.66594 4.86401 5.75162 4.82852C6.11525 4.6779 6.42604 4.42284 6.64471 4.09558C6.86337 3.76833 6.98008 3.38358 6.98008 2.99C6.98008 2.46222 6.77042 1.95605 6.39722 1.58286C6.02403 1.20966 5.51786 1 4.99008 1ZM4.99008 2C5.18593 1.9998 5.37743 2.0577 5.54037 2.16636C5.70331 2.27502 5.83035 2.42957 5.90544 2.61045C5.98052 2.79133 6.00027 2.99042 5.96218 3.18253C5.9241 3.37463 5.82989 3.55113 5.69147 3.68968C5.55306 3.82824 5.37666 3.92262 5.18459 3.9609C4.99252 3.99918 4.79341 3.97964 4.61246 3.90474C4.4315 3.82983 4.27682 3.70294 4.168 3.54012C4.05917 3.37729 4.00108 3.18585 4.00108 2.99C4.00135 2.72769 4.1056 2.47618 4.29098 2.29061C4.47637 2.10503 4.72777 2.00053 4.99008 2ZM4.99006 13.745C4.79422 13.7452 4.60271 13.6873 4.43977 13.5786C4.27684 13.47 4.14979 13.3154 4.07471 13.1345C3.99962 12.9537 3.97988 12.7546 4.01796 12.5625C4.05605 12.3704 4.15026 12.1939 4.28867 12.0553C4.42709 11.9168 4.60349 11.8224 4.79555 11.7841C4.98762 11.7458 5.18673 11.7654 5.36769 11.8403C5.54864 11.9152 5.70332 12.0421 5.81215 12.2049C5.92097 12.3677 5.97906 12.5591 5.97906 12.755C5.9788 13.0173 5.87455 13.2688 5.68916 13.4544C5.50377 13.64 5.25237 13.7445 4.99006 13.745ZM11.991 9.76801C12.1868 9.76801 12.3782 9.82607 12.541 9.93485C12.7038 10.0436 12.8307 10.1983 12.9057 10.3791C12.9806 10.56 13.0002 10.7591 12.962 10.9511C12.9238 11.1432 12.8295 11.3196 12.6911 11.458C12.5526 11.5965 12.3762 11.6908 12.1842 11.729C11.9921 11.7672 11.7931 11.7476 11.6122 11.6726C11.4313 11.5977 11.2767 11.4708 11.1679 11.308C11.0591 11.1452 11.001 10.9538 11.001 10.758C11.0013 10.4955 11.1057 10.2439 11.2913 10.0583C11.4769 9.87266 11.7285 9.76827 11.991 9.76801Z" fill="#C5C5C5"/>
</svg>
