<svg xmlns="http://www.w3.org/2000/svg" width="16" height="16" fill="none" viewBox="0 0 16 16">
	<path fill="#C5C5C5" d="M13.8 6.53a3.5 3.5 0 0 0-1.97-1V.67h-1v4.86a3.5 3.5 0 0 0 0 6.94v2.86h1v-2.86a3.5 3.5 0 0 0 1.98-5.94Zm-2.47-.03a2.5 2.5 0 1 1 0 5 2.5 2.5 0 0 1 0-5Z"/>
	<path fill="#F05" d="M11.33 12a3 3 0 1 0 0-6 3 3 0 0 0 0 6Z"/>
	<path fill="#C5C5C5" d="M10 1.63c-1.1-.2-2.22-.3-3.33-.3-1.42 0-2.78.14-3.78.4-1 .24-1.56.58-1.56.94V4c0 .35.56.7 1.56.94a19.13 19.13 0 0 0 5.63.3A3.4 3.4 0 0 1 10 4.48v-.45c-.88.2-2.07.31-3.33.31-1.36 0-2.64-.13-3.54-.36-.38-.1-.64-.2-.8-.27v-.73a4 4 0 0 1 .8-.27c.91-.23 2.18-.37 3.54-.37 1.26 0 2.45.12 3.33.32V1.63Zm-2.25 4.4a21 21 0 0 0-3.7.14c-.42.06-.81.14-1.16.22-1 .25-1.56.59-1.56.94v1.34c0 .35.56.69 1.56.94.35.08.74.16 1.16.22.9.12 1.82.18 2.73.17a4.6 4.6 0 0 1-.11-1c-1.36 0-2.64-.13-3.54-.36-.38-.1-.64-.2-.8-.27v-.74c.16-.08.42-.17.8-.26 1.3-.3 2.65-.42 3.98-.36.17-.36.38-.68.64-.98Zm-.77 4.64c-.98-.01-1.96.05-2.93.17-.42.06-.8.13-1.16.22-1 .25-1.56.59-1.56.94v1.33c0 .36.56.7 1.56.94 1 .26 2.36.4 3.78.4 1.22 0 2.39-.11 3.33-.3v-.93l-.16-.05c-.87.17-1.98.28-3.17.28-1.36 0-2.64-.14-3.54-.36a5 5 0 0 1-.8-.28v-.73c.16-.08.42-.17.8-.27a15 15 0 0 1 4.4-.34 4.6 4.6 0 0 1-.55-1.02Z"/>
</svg>
