<svg xmlns="http://www.w3.org/2000/svg" width="16" height="16" fill="none" viewBox="0 0 16 16">
	<path fill="#C5C5C5" d="M11.83 6.2a3.5 3.5 0 0 1 0 6.93v2.2h-1v-2.2a3.5 3.5 0 0 1 0-6.93V.67h1V6.2Zm-.5.97a2.5 2.5 0 1 0 0 5 2.5 2.5 0 0 0 0-5Z"/>
	<path fill="#C5C5C5" d="M6.33 2c.54 0 1.12.67 1.34 1h2v1h-2c-.5 0-.88-.38-1.13-.7l-.2-.3H1.66v3H6l.67-.67c.2-.18.36-.26.66-.33h2.34v.3c-.44.17-.85.4-1.22.7H7.33l-.66.67-.17.2-.33.13h-4.5v6h6.4l.17.16c.4.36.86.64 1.36.84H1.33l-.66-.67V2.67L1.33 2h5ZM15.33 12.07v1.26l-.66.67h-1.6a4.68 4.68 0 0 0 2.26-1.93ZM14.67 3l.66.67v3.59A4.7 4.7 0 0 0 13 5.31V5h1.33V4H13V3h1.67Z"/>
	<path fill="#FF5" d="M11.33 12.67a3 3 0 1 0 0-6 3 3 0 0 0 0 6Z"/>
</svg>
