<?xml version="1.0" encoding="utf-8"?>
<svg xmlns="http://www.w3.org/2000/svg" viewBox="0 0 16 22">
    <path fill="#c5c5c5" d="M14.5 14.28V8c-.03-.78-.34-1.47-.94-2.06-.6-.59-1.28-.91-2.06-.94h-1V3l-3 3 3 3V7h1c.27.02.48.11.69.31.21.2.3.42.31.69v6.28c-1.329.766-1.331 2.684-.004 3.452A2 2 0 0 0 13.5 18c1.534.004 2.497-1.654 1.734-2.985a1.99 1.99 0 0 0-.734-.735zm-1 2.92c-.66 0-1.2-.55-1.2-1.2 0-.65.55-1.2 1.2-1.2.65 0 1.2.55 1.2 1.2 0 .65-.55 1.2-1.2 1.2z"/>
    <path fill="#c5c5c5" stroke="#c5c5c5" stroke-width=".5" d="M7.25 8.688C7.25 8.44 6.738 7 4.719 7 3.358 7 2.188 8.08 2.188 9.25 1.074 9.25.5 10.105.5 10.938c0 .86.563 1.687 2 1.662v-.7c-1.224-.006-1.269-.805-1.269-.962 0-.096.028-.957.957-.957h.731V9.25c0-.782.877-1.519 1.8-1.519 1.434 0 1.76.872 1.8 1.013v.675h.731c.456 0 1.519.124 1.519 1.237 0 1.176-1.266 1.238-1.519 1.238l-.562-.056v.787h.562c1.17 0 2.25-.652 2.25-1.969 0-1.372-1.08-1.968-2.25-1.968z"/>
    <path fill="#c5c5c5" d="M7.5 15h-1c-.27-.02-.48-.11-.69-.31-.21-.2-.3-.42-.31-.69v-3h-2v3c.03.78.34 1.47.94 2.06.6.59 1.28.91 2.06.94h1v2l3-3-3-3v2zM7.082-1.406H1.917A1.42 1.42 0 0 1 .5-2.824c0-.781.636-1.417 1.417-1.417h.161c.2-.27.508-.441.844-.466a1.842 1.842 0 0 1 1.808-1.45c.698 0 1.338.4 1.651 1.013a1.38 1.38 0 0 1 1.502 1.151 1.418 1.418 0 0 1-.801 2.587z"/>
</svg>
