<svg width="16" height="16" viewBox="0 0 16 16" fill="none" xmlns="http://www.w3.org/2000/svg">
<g clip-path="url(#clip0)">
<path d="M14 5.48063C14.0023 5.01812 13.8754 4.5641 13.6335 4.16941C13.3915 3.77472 13.044 3.45494 12.63 3.24589C12.2159 3.03685 11.7517 2.94678 11.2892 2.98579C10.8267 3.0248 10.3843 3.19133 10.0113 3.46675C9.63847 3.74216 9.34987 4.11557 9.17793 4.54518C9.006 4.97478 8.9574 5.4436 9.03773 5.89914C9.11807 6.35467 9.324 6.77897 9.6326 7.12442C9.9412 7.46993 10.3403 7.72297 10.785 7.85524C10.6208 8.1878 10.3667 8.46821 10.0514 8.66478C9.73607 8.86142 9.372 8.96651 9 8.9683H7C6.2596 8.9709 5.54667 9.24798 5 9.74556V4.93157C5.60702 4.8081 6.14641 4.46443 6.5136 3.96718C6.8808 3.46994 7.0496 2.85455 6.98733 2.24032C6.92507 1.62609 6.63615 1.05678 6.17657 0.64276C5.71701 0.228742 5.11954 -0.000488281 4.5 -0.000488281C3.88046 -0.000488281 3.28299 0.228742 2.82342 0.64276C2.36385 1.05678 2.07493 1.62609 2.01266 2.24032C1.95039 2.85455 2.11921 3.46994 2.4864 3.96718C2.85359 4.46443 3.39298 4.8081 4 4.93157V11.0101C3.39412 11.1255 2.85158 11.458 2.47472 11.9446C2.09786 12.4313 1.91273 13.0385 1.95425 13.6518C1.99577 14.2651 2.26106 14.8421 2.70009 15.2738C3.13913 15.7056 3.72155 15.9625 4.33751 15.9958C4.95347 16.0292 5.56037 15.8367 6.04376 15.4548C6.52715 15.073 6.8536 14.5281 6.96153 13.9229C7.06947 13.3176 6.95147 12.694 6.62971 12.1695C6.30797 11.645 5.80477 11.256 5.215 11.0759C5.3795 10.7436 5.63367 10.4637 5.94897 10.2674C6.26428 10.0711 6.62824 9.96638 7 9.96478H9C9.624 9.96193 10.2315 9.76522 10.7381 9.4021C11.2446 9.03899 11.6249 8.52753 11.826 7.93894C12.4254 7.86042 12.9759 7.56805 13.3757 7.11605C13.7754 6.66405 13.9972 6.08307 14 5.48063ZM3 2.49119C3 2.19557 3.08797 1.90658 3.25279 1.66078C3.41762 1.41497 3.65189 1.22339 3.92597 1.11025C4.20007 0.997128 4.50167 0.967526 4.79263 1.0252C5.08361 1.08287 5.35088 1.22523 5.56066 1.43427C5.77044 1.64331 5.9133 1.90964 5.97118 2.19959C6.02905 2.48954 5.99935 2.79008 5.88582 3.0632C5.77229 3.33632 5.58003 3.56977 5.33335 3.73401C5.08668 3.89825 4.79667 3.98591 4.5 3.98591C4.10217 3.98591 3.72065 3.82844 3.43934 3.54812C3.15803 3.26781 3 2.88762 3 2.49119ZM6 13.4525C6 13.7481 5.91203 14.0371 5.74721 14.2829C5.58238 14.5287 5.34811 14.7202 5.07403 14.8334C4.79993 14.9465 4.49833 14.9761 4.20737 14.9185C3.91639 14.8608 3.64912 14.7185 3.43934 14.5094C3.22956 14.3003 3.0867 14.034 3.02882 13.7441C2.97095 13.4541 3.00065 13.1536 3.11418 12.8805C3.22771 12.6073 3.41997 12.3739 3.66665 12.2096C3.91332 12.0454 4.20333 11.9577 4.5 11.9577C4.89783 11.9577 5.27935 12.1153 5.56066 12.3955C5.84197 12.6759 6 13.0561 6 13.4525ZM11.5 6.97535C11.2033 6.97535 10.9133 6.88766 10.6667 6.72344C10.42 6.5592 10.2277 6.32576 10.1142 6.05264C10.0007 5.77951 9.97093 5.47898 10.0288 5.18903C10.0867 4.89908 10.2295 4.63275 10.4393 4.4237C10.6491 4.21466 10.9164 4.07231 11.2073 4.01463C11.4983 3.95696 11.7999 3.98656 12.074 4.09969C12.3481 4.21282 12.5824 4.40441 12.7472 4.65021C12.912 4.89602 13 5.185 13 5.48063C13 5.87706 12.8419 6.25725 12.5607 6.53755C12.2793 6.81784 11.8978 6.97535 11.5 6.97535Z" fill="#C5C5C5"/>
<path d="M13 15C14.1046 15 15 14.1046 15 13C15 11.8954 14.1046 11 13 11C11.8954 11 11 11.8954 11 13C11 14.1046 11.8954 15 13 15Z" fill="#32CD32" stroke="#C5C5C5" stroke-width="0.5"/>
</g>
<defs>
<clipPath id="clip0">
<rect width="16" height="16" fill="white"/>
</clipPath>
</defs>
</svg>
