<svg xmlns="http://www.w3.org/2000/svg" width="16" height="16" fill="none" viewBox="0 0 16 16">
    <path fill="#6C6C6C" fill-rule="evenodd" d="M7.5 15a7.5 7.5 0 1 0 0-15 7.5 7.5 0 0 0 0 15zm-3.942-3.942l7.5-7.5.884.884-.664.664c.95.655 1.65 1.524 2.222 2.394-1.15 1.75-2.824 3.5-6 3.5-.696 0-1.32-.084-1.882-.234l-1.176 1.176-.884-.884zm5.188-3.42l1.629-1.629c.634.393 1.147.913 1.594 1.491C10.99 8.767 9.692 9.75 7.5 9.75c-.287 0-.56-.017-.817-.05l.455-.454a1.5 1.5 0 0 0 1.608-1.608zM7.362 6.254L5.754 7.862a1.5 1.5 0 0 1 1.608-1.608zm.955-.955A6.595 6.595 0 0 0 7.5 5.25c-2.192 0-3.49.982-4.469 2.25.447.578.96 1.098 1.594 1.491l-.903.903C2.772 9.239 2.072 8.369 1.5 7.5 2.65 5.75 4.324 4 7.5 4c.696 0 1.32.084 1.882.234L8.317 5.299z" clip-rule="evenodd"/>
</svg>
