<svg width="16" height="16" viewBox="0 0 16 16" fill="none" xmlns="http://www.w3.org/2000/svg">
<g clip-path="url(#clip0)">
<path d="M14 5.48063C14.0023 5.01812 13.8754 4.5641 13.6334 4.16941C13.3914 3.77472 13.044 3.45494 12.63 3.24589C12.2159 3.03685 11.7516 2.94678 11.2892 2.98579C10.8266 3.0248 10.3842 3.19133 10.0113 3.46675C9.63844 3.74216 9.34984 4.11557 9.1779 4.54518C9.00597 4.97478 8.95737 5.4436 9.0377 5.89914C9.11804 6.35467 9.32397 6.77897 9.63257 7.12442C9.94117 7.46993 10.3402 7.72297 10.785 7.85524C10.6208 8.1878 10.3667 8.46821 10.0514 8.66478C9.73604 8.86142 9.37197 8.96651 8.99997 8.9683H6.99997C6.25957 8.9709 5.54664 9.24798 4.99997 9.74556V4.93157C5.60699 4.8081 6.14638 4.46443 6.51357 3.96718C6.88077 3.46994 7.04957 2.85455 6.9873 2.24032C6.92504 1.62609 6.63612 1.05678 6.17654 0.64276C5.71698 0.228742 5.11951 -0.000488281 4.49997 -0.000488281C3.88043 -0.000488281 3.28296 0.228742 2.82339 0.64276C2.36382 1.05678 2.0749 1.62609 2.01263 2.24032C1.95036 2.85455 2.11918 3.46994 2.48637 3.96718C2.85356 4.46443 3.39295 4.8081 3.99997 4.93157V11.0101C3.39409 11.1255 2.85155 11.458 2.47469 11.9446C2.09783 12.4313 1.9127 13.0385 1.95422 13.6518C1.99574 14.2651 2.26103 14.8421 2.70006 15.2738C3.1391 15.7056 3.72152 15.9625 4.33748 15.9958C4.95344 16.0292 5.56034 15.8367 6.04373 15.4548C6.52712 15.073 6.85357 14.5281 6.9615 13.9229C7.06944 13.3176 6.95144 12.694 6.62968 12.1695C6.30794 11.645 5.80474 11.256 5.21497 11.0759C5.37947 10.7436 5.63364 10.4637 5.94894 10.2674C6.26425 10.0711 6.62821 9.96638 6.99997 9.96478H8.99997C9.62397 9.96193 10.2315 9.76522 10.738 9.4021C11.2446 9.03899 11.6248 8.52753 11.826 7.93894C12.4254 7.86042 12.9759 7.56805 13.3756 7.11605C13.7754 6.66405 13.9972 6.08307 14 5.48063ZM2.99997 2.49119C2.99997 2.19557 3.08794 1.90658 3.25276 1.66078C3.41759 1.41497 3.65186 1.22339 3.92594 1.11025C4.20004 0.997128 4.50164 0.967526 4.7926 1.0252C5.08358 1.08287 5.35085 1.22523 5.56063 1.43427C5.77041 1.64331 5.91327 1.90964 5.97115 2.19959C6.02902 2.48954 5.99932 2.79008 5.88579 3.0632C5.77226 3.33632 5.58 3.56977 5.33332 3.73401C5.08665 3.89825 4.79664 3.98591 4.49997 3.98591C4.10214 3.98591 3.72062 3.82844 3.43931 3.54812C3.158 3.26781 2.99997 2.88762 2.99997 2.49119ZM5.99997 13.4525C5.99997 13.7481 5.912 14.0371 5.74718 14.2829C5.58235 14.5287 5.34808 14.7202 5.074 14.8334C4.7999 14.9465 4.4983 14.9761 4.20734 14.9185C3.91636 14.8608 3.64909 14.7185 3.43931 14.5094C3.22953 14.3003 3.08667 14.034 3.02879 13.7441C2.97092 13.4541 3.00062 13.1536 3.11415 12.8805C3.22768 12.6073 3.41994 12.3739 3.66662 12.2096C3.91329 12.0454 4.2033 11.9577 4.49997 11.9577C4.8978 11.9577 5.27932 12.1153 5.56063 12.3955C5.84194 12.6759 5.99997 13.0561 5.99997 13.4525ZM11.5 6.97535C11.2033 6.97535 10.9133 6.88766 10.6666 6.72344C10.42 6.5592 10.2277 6.32576 10.1142 6.05264C10.0006 5.77951 9.9709 5.47898 10.0288 5.18903C10.0866 4.89908 10.2295 4.63275 10.4393 4.4237C10.6491 4.21466 10.9164 4.07231 11.2073 4.01463C11.4983 3.95696 11.7999 3.98656 12.074 4.09969C12.3481 4.21282 12.5824 4.40441 12.7472 4.65021C12.912 4.89602 13 5.185 13 5.48063C13 5.87706 12.8419 6.25725 12.5606 6.53755C12.2793 6.81784 11.8978 6.97535 11.5 6.97535Z" fill="#C5C5C5"/>
</g>
<defs>
<clipPath id="clip0">
<rect width="16" height="16" fill="white"/>
</clipPath>
</defs>
</svg>
