<?xml version="1.0" encoding="utf-8"?>
<svg xmlns="http://www.w3.org/2000/svg" viewBox="0 0 16 22">
    <path fill="#FFFFFF" fill-opacity="0.74" d="m15.42812,10.30382l-6.75342,-6.72687c-0.38735,-0.38583 -1.02733,-0.38583 -1.41468,0l-1.39784,1.39234l1.7852,1.77818c0.42103,-0.13421 0.8926,-0.05033 1.21258,0.28518c0.33684,0.33551 0.42103,0.80521 0.28631,1.22459l1.71783,1.71107c0.42103,-0.13421 0.8926,-0.05033 1.22943,0.28518c0.47156,0.45293 0.47156,1.20781 0,1.67753s-1.21258,0.46972 -1.68415,0c-0.35367,-0.35227 -0.43788,-0.85554 -0.25263,-1.29169l-1.59994,-1.59365l0,4.19381c0.11789,0.05033 0.21894,0.13421 0.31999,0.21808c0.47156,0.45293 0.47156,1.20781 0,1.67753c-0.47156,0.45293 -1.21258,0.45293 -1.68415,0c-0.47156,-0.46972 -0.47156,-1.20781 0,-1.67753c0.11789,-0.11742 0.25263,-0.2013 0.38735,-0.25163l0,-4.24414c-0.13473,-0.05033 -0.26946,-0.15098 -0.38735,-0.25163c-0.35367,-0.35227 -0.43788,-0.85554 -0.25263,-1.29169l-1.75151,-1.74462l-4.6314,4.61319c-0.38735,0.38583 -0.38735,1.02329 0,1.40913l6.75342,6.72687c0.38735,0.38583 1.02733,0.38583 1.41468,0l6.71974,-6.69332c0.38735,-0.40261 0.38735,-1.04006 -0.01685,-1.42589l0.00001,0l0,-0.00002z"/>
</svg>
