<svg xmlns="http://www.w3.org/2000/svg" width="16" height="16" fill="none" viewBox="0 0 16 16">
    <path fill="#C5C5C5" fill-rule="evenodd" d="M4.95.143c-.241.034-.39.341-.305.622.03.098.045.116.299.37l.524.397.484.277s.414.11.283.372c-.027.058-.847 4.26-.847 4.26l-.066.275c-.037.19-.404.547-.404.547L3.246 8.94s-.421.433-.636.666c-.081.164-.017.43.098.542.15.151-.045.14 2.399.14 2.506 0 2.25.29 2.25.29s.194 4.946.281 5.22c.088.272.633.267.724 0 .078-.269.285-5.22.285-5.22s-.255-.282 2.245-.29c2.448.003 2.246.017 2.408-.141.107-.117.17-.397.09-.548-.212-.22-.628-.66-.628-.66s-1.13-1.119-1.687-1.676c-.35-.35-.359-.341-.398-.548a2.82 2.82 0 0 0-.067-.274s-.803-4.12-.847-4.26c-.121-.261.282-.372.282-.372l.485-.273s.16-.027.524-.401c.255-.256.277-.292.304-.37.086-.284.072-.585-.31-.626A35.293 35.293 0 0 0 8.006 0a36.01 36.01 0 0 0-3.058.143zm3.468 1.256l1.13 5.59s.057.301.134.48c.219.501.874.959.874.959s.807.686.606.753c-.189.082-6.126.081-6.32 0-.202-.068.605-.753.605-.753s.652-.46.874-.96c.078-.177.138-.479.138-.479l1.126-5.591s.25-.123.422-.121c.167 0 .411.122.411.122z" clip-rule="evenodd"/>
</svg>
