<svg width="16" height="16" viewBox="0 0 16 16" fill="none" xmlns="http://www.w3.org/2000/svg">
<path fill-rule="evenodd" clip-rule="evenodd" d="M8 14C8 14 12.5 9.515 12.5 6.125C12.5 3.875 10.4825 2 8 2C5.5175 2 3.5 3.875 3.5 6.125C3.5 9.515 8 14 8 14ZM6.5 6.125C6.5 5.2925 7.1675 4.625 8 4.625C8.8325 4.625 9.5 5.2925 9.5 6.125C9.5 6.9575 8.8325 7.625 8 7.625C7.1675 7.625 6.5 6.9575 6.5 6.125Z" fill="#C5C5C5"/>
<path d="M8 14L7.64704 14.3541H8.35296L8 14ZM12 6.125C12 6.86926 11.7507 7.70878 11.3444 8.57286C10.9405 9.43184 10.3971 10.2823 9.8458 11.0394C9.2955 11.7952 8.74407 12.4487 8.32983 12.9136C8.12296 13.1458 7.95094 13.3302 7.83121 13.4559C7.77137 13.5188 7.72463 13.567 7.6932 13.5991C7.67748 13.6151 7.66559 13.6272 7.65781 13.635C7.65391 13.639 7.65105 13.6418 7.64924 13.6437C7.64834 13.6446 7.6477 13.6452 7.64733 13.6456C7.64715 13.6457 7.64703 13.6459 7.64698 13.6459C7.64696 13.6459 7.64697 13.6459 7.64696 13.6459C7.64699 13.6459 7.64704 13.6459 8 14C8.35296 14.3541 8.35305 14.3541 8.35314 14.354C8.3532 14.3539 8.35332 14.3538 8.35343 14.3537C8.35365 14.3535 8.35395 14.3532 8.35431 14.3528C8.35503 14.3521 8.35602 14.3511 8.35728 14.3498C8.3598 14.3473 8.36339 14.3437 8.36801 14.339C8.37725 14.3297 8.39064 14.3161 8.40788 14.2985C8.44236 14.2633 8.49231 14.2118 8.55551 14.1454C8.68188 14.0127 8.86142 13.8202 9.07642 13.5789C9.50593 13.0969 10.0795 12.4173 10.6542 11.6281C11.2279 10.8402 11.8095 9.93378 12.2493 8.99839C12.6868 8.06809 13 7.07574 13 6.125H12ZM8 2.5C10.2461 2.5 12 4.18928 12 6.125H13C13 3.56072 10.7189 1.5 8 1.5V2.5ZM4 6.125C4 4.18928 5.75389 2.5 8 2.5V1.5C5.28111 1.5 3 3.56072 3 6.125H4ZM8 14C8.35296 13.6459 8.35301 13.6459 8.35304 13.6459C8.35303 13.6459 8.35304 13.6459 8.35302 13.6459C8.35297 13.6459 8.35285 13.6457 8.35267 13.6456C8.3523 13.6452 8.35166 13.6446 8.35076 13.6437C8.34895 13.6418 8.34609 13.639 8.34219 13.635C8.33441 13.6272 8.32252 13.6151 8.3068 13.5991C8.27537 13.567 8.22863 13.5188 8.16879 13.4559C8.04906 13.3302 7.87704 13.1458 7.67017 12.9136C7.25593 12.4487 6.7045 11.7952 6.1542 11.0394C5.60287 10.2823 5.05951 9.43184 4.6556 8.57286C4.24929 7.70878 4 6.86926 4 6.125H3C3 7.07574 3.31321 8.06809 3.75065 8.99839C4.19049 9.93378 4.77213 10.8402 5.3458 11.6281C5.9205 12.4173 6.49407 13.0969 6.92358 13.5789C7.13858 13.8202 7.31812 14.0127 7.44449 14.1454C7.50769 14.2118 7.55764 14.2633 7.59212 14.2985C7.60936 14.3161 7.62275 14.3297 7.63199 14.339C7.63661 14.3437 7.6402 14.3473 7.64272 14.3498C7.64398 14.3511 7.64497 14.3521 7.64569 14.3528C7.64605 14.3532 7.64635 14.3535 7.64657 14.3537C7.64668 14.3538 7.6468 14.3539 7.64686 14.354C7.64695 14.3541 7.64704 14.3541 8 14ZM8 4.125C6.89136 4.125 6 5.01636 6 6.125H7C7 5.56864 7.44364 5.125 8 5.125V4.125ZM10 6.125C10 5.01636 9.10864 4.125 8 4.125V5.125C8.55636 5.125 9 5.56864 9 6.125H10ZM8 8.125C9.10864 8.125 10 7.23364 10 6.125H9C9 6.68136 8.55636 7.125 8 7.125V8.125ZM6 6.125C6 7.23364 6.89136 8.125 8 8.125V7.125C7.44364 7.125 7 6.68136 7 6.125H6Z" fill="#C5C5C5"/>
</svg>
