<svg xmlns="http://www.w3.org/2000/svg" width="16" height="16" fill="none" viewBox="0 0 16 16">
    <path fill="#C5C5C5" fill-rule="evenodd" d="M3 4.682V2H2v3.5l.5.5H6V5H4a5.002 5.002 0 0 1 8.863 1.832l.805-.805A6.003 6.003 0 0 0 3 4.682zm10.026 6.597l-1.747 1.747a6.032 6.032 0 0 0 1.747-1.747zm-6.371 2.57l.523-.916a5.007 5.007 0 0 1-3.94-3.403l-.953.302c.64 2 2.301 3.543 4.37 4.017zM8 8h3V7H7.5l-.5.5V11h1V8z" clip-rule="evenodd"/>
    <path fill="#C5C5C5" fill-rule="evenodd" d="M8 14.296l.704.704 2.062-1.179.109-.083L15 9.613v-.729L14.116 8h-.73l-4.124 4.125-.083.109L8 14.297zm2.186-.757l-1.482.758.757-1.483.725.725zm.433-.274l4.016-4.016-.884-.884-4.016 4.016.884.884z" clip-rule="evenodd"/>
</svg>
