<svg xmlns="http://www.w3.org/2000/svg" width="16" height="16" fill="none" viewBox="0 0 16 16">
    <path fill="#C5C5C5" fill-rule="evenodd" d="M10.5 7C9.67157 7 9 7.67157 9 8.5C9 9.32843 9.67157 10 10.5 10C11.3284 10 12 9.32843 12 8.5C12 7.67157 11.3284 7 10.5 7ZM10 0L10 6.05001C8.85888 6.28164 8 7.29052 8 8.5C8 9.70948 8.85888 10.7184 10 10.95V16H11V10.95C12.1411 10.7184 13 9.70948 13 8.5C13 7.29052 12.1411 6.28164 11 6.05001L11 0H10Z" clip-rule="evenodd"/>
    <path fill="#C5C5C5" fill-rule="evenodd" d="M5.5 2C4.67157 2 4 2.67157 4 3.5C4 4.32843 4.67157 5 5.5 5C6.32843 5 7 4.32843 7 3.5C7 2.67157 6.32843 2 5.5 2ZM5 0V1.05001C3.85888 1.28164 3 2.29052 3 3.5C3 4.70948 3.85888 5.71836 5 5.94999L5 10.05C3.85888 10.2816 3 11.2905 3 12.5C3 13.7095 3.85888 14.7184 5 14.95V16H6V14.95C7.14112 14.7184 8 13.7095 8 12.5C8 11.2905 7.14112 10.2816 6 10.05L6 5.94999C7.14112 5.71836 8 4.70948 8 3.5C8 2.29052 7.14112 1.28164 6 1.05001V0H5ZM5.5 11C4.67157 11 4 11.6716 4 12.5C4 13.3284 4.67157 14 5.5 14C6.32843 14 7 13.3284 7 12.5C7 11.6716 6.32843 11 5.5 11Z" clip-rule="evenodd"/>
</svg>
