<svg width="16" height="16" viewBox="0 0 16 16" fill="none" xmlns="http://www.w3.org/2000/svg">
<path fill-rule="evenodd" clip-rule="evenodd" d="M2.5158 5.56253C3.45013 3.46348 5.55417 2 8.00002 2C11.3137 2 14 4.68629 14 8C14 11.3137 11.3137 14 8.00002 14C5.32522 14 3.05922 12.2497 2.28485 9.83199L3.23835 9.52968C3.88457 11.5429 5.77213 13 8.00002 13C10.7614 13 13 10.7614 13 8C13 5.23858 10.7614 3 8.00002 3C6.31107 3 4.8177 3.83742 3.91248 5.11969L2.5158 5.56253Z" fill="#C5C5C5"/>
<path fill-rule="evenodd" clip-rule="evenodd" d="M3 5V2H2V5.5L2.5 6H6V5H3Z" fill="#C5C5C5"/>
<path fill-rule="evenodd" clip-rule="evenodd" d="M8 8L11 8V7L7.5 7L7 7.5L7 11H8L8 8Z" fill="#C5C5C5"/>
</svg>
