<?xml version="1.0" encoding="utf-8"?>
<svg xmlns="http://www.w3.org/2000/svg" viewBox="0 0 16 22">
    <path fill="#c5c5c5" d="M6 15H5c-.27-.02-.48-.11-.69-.31-.21-.2-.3-.42-.31-.69V7.72c1.329-.766 1.331-2.684.004-3.452A2 2 0 0 0 3 4C1.466 3.996.503 5.654 1.266 6.985c.175.306.429.559.734.735V14c.03.78.34 1.47.94 2.06.6.59 1.28.91 2.06.94h1v2l3-3-3-3v2zM3 4.8c.66 0 1.2.55 1.2 1.2 0 .65-.55 1.2-1.2 1.2-.65 0-1.2-.55-1.2-1.2 0-.65.55-1.2 1.2-1.2zm11 9.48V8c-.03-.78-.34-1.47-.94-2.06-.6-.59-1.28-.91-2.06-.94h-1V3L7 6l3 3V7h1c.27.02.48.11.69.31.21.2.3.42.31.69v6.28c-1.329.766-1.331 2.684-.004 3.452A2 2 0 0 0 13 18c1.534.004 2.497-1.654 1.734-2.985A1.99 1.99 0 0 0 14 14.28zm-1 2.92c-.66 0-1.2-.55-1.2-1.2 0-.65.55-1.2 1.2-1.2.65 0 1.2.55 1.2 1.2 0 .65-.55 1.2-1.2 1.2z"/>
</svg>
