<svg xmlns="http://www.w3.org/2000/svg" width="16" height="16" fill="none" viewBox="0 0 16 16">
    <path fill="#C5C5C5" fill-rule="evenodd" d="M5.47 1.518c-.2.029-.323.283-.252.516.025.082.037.097.248.307l.434.33.402.229s.343.092.234.309c-.022.048-.702 3.532-.702 3.532l-.055.229c-.03.158-.335.453-.335.453l-1.387 1.39s-.349.36-.527.553c-.067.136-.014.356.081.45.125.125-.037.116 1.99.116 2.078 0 1.865.24 1.865.24s.161 4.102.234 4.328c.073.226.525.222.6 0 .065-.222.236-4.328.236-4.328s-.211-.234 1.863-.24c2.03.002 1.862.013 1.996-.117.089-.097.141-.33.075-.455l-.521-.546s-.937-.929-1.4-1.391c-.289-.29-.296-.283-.329-.455a2.352 2.352 0 0 0-.056-.227S9.5 3.324 9.463 3.208c-.1-.216.234-.308.234-.308l.402-.226s.133-.023.434-.333c.212-.212.23-.242.253-.307.07-.235.06-.485-.258-.519-.08-.011-1.3-.116-2.521-.115-1.229.001-2.46.108-2.536.118zM8.347 2.56l.937 4.636s.047.25.111.397c.181.416.725.796.725.796s.669.57.502.625c-.156.068-5.08.067-5.241 0-.167-.057.502-.625.502-.625s.54-.38.724-.796c.066-.147.115-.397.115-.397l.934-4.637s.208-.102.35-.1c.139 0 .341.101.341.101z" clip-rule="evenodd"/>
</svg>
