<?xml version="1.0" encoding="utf-8"?>
<svg xmlns="http://www.w3.org/2000/svg" viewBox="0 0 16 22">
    <path fill="#C5C5C5" d="m12.24,10.4c0.19,1.28 -0.2,2.62 -1.2,3.6c-1.47,1.45 -3.74,1.63 -5.41,0.54l1.17,-1.14l-4.3,-0.6l0.6,4.2l1.31,-1.26c2.36,1.74 5.7,1.57 7.84,-0.54c1.24,-1.23 1.81,-2.85 1.74,-4.46l-1.75,-0.34l0,0zm-7.28,-2.4c1.47,-1.45 3.74,-1.63 5.41,-0.54l-1.17,1.14l4.3,0.6l-0.6,-4.2l-1.31,1.26c-2.36,-1.74 -5.7,-1.57 -7.85,0.54c-1.24,1.23 -1.8,2.85 -1.73,4.46l1.75,0.35c-0.19,-1.28 0.2,-2.63 1.2,-3.61l0,0z"/>
</svg>
