<svg xmlns="http://www.w3.org/2000/svg" width="16" height="16" fill="none" viewBox="0 0 16 16">
    <path fill="#C5C5C5" fill-rule="evenodd" d="M8.572 3l1.313-1.306-.706-.708-2.172 2.16-.006.703 2.119 2.19.718-.696L8.538 4h2.808a.67.67 0 0 1 .671.672v5.777a2.014 2.014 0 1 0 1 .005V4.672h-.5.5A1.67 1.67 0 0 0 11.346 3H8.572zm3.936 8.389a1.013 1.013 0 1 0 0 2.026 1.013 1.013 0 0 0 0-2.026zM3 11.307V6.5h1v4.807a.671.671 0 0 0 .671.671h2.81l-1.3-1.343.72-.696 2.118 2.191-.006.702-2.172 2.16-.706-.709 1.313-1.305H4.671A1.671 1.671 0 0 1 3 11.307z" clip-rule="evenodd"/>
    <path fill="#C5C5C5" stroke="#C5C5C5" stroke-width=".5" d="M5.3 4.95c0-.176-.364-1.2-1.8-1.2-.968 0-1.8.768-1.8 1.6-.792 0-1.2.608-1.2 1.2 0 .612.4 1.2 1.422 1.182v-.498c-.87-.004-.902-.572-.902-.684 0-.068.02-.68.68-.68h.52v-.52c0-.556.624-1.08 1.28-1.08 1.02 0 1.252.62 1.28.72v.48h.52c.324 0 1.08.088 1.08.88 0 .836-.9.88-1.08.88l-.4.004v.516h.4c.832 0 1.6-.464 1.6-1.4 0-.976-.768-1.4-1.6-1.4z"/>
</svg>
