<svg xmlns="http://www.w3.org/2000/svg" width="16" height="16" fill="none" viewBox="0 0 16 16">
    <path fill="#C5C5C5" fill-rule="evenodd" d="M8 15C11.866 15 15 11.866 15 8C15 4.13401 11.866 1 8 1C4.13401 1 1 4.13401 1 8C1 11.866 4.13401 15 8 15ZM7.5 13C8.32843 13 9 12.3284 9 11.5C9 10.8469 8.5826 10.2913 8 10.0854V5.91465C8.03995 5.90053 8.07912 5.88476 8.11744 5.86744L9.57434 7.32434C9.52623 7.4572 9.5 7.60054 9.5 7.75C9.5 8.44036 10.0596 9 10.75 9C11.4404 9 12 8.44036 12 7.75C12 7.05964 11.4404 6.5 10.75 6.5C10.5771 6.5 10.4125 6.53509 10.2627 6.59853L8.83967 5.17546C8.94223 4.97246 9 4.74298 9 4.5C9 3.67157 8.32843 3 7.5 3C6.67157 3 6 3.67157 6 4.5C6 5.15311 6.4174 5.70873 7 5.91465V10.0854C6.4174 10.2913 6 10.8469 6 11.5C6 12.3284 6.67157 13 7.5 13Z" clip-rule="evenodd">
        <animate attributeName="fill" dur="0.8s" repeatCount="indefinite" values="#b27b70;#F05133;#b27b70"/>
    </path>
</svg>
